<?xml version="1.0" encoding="utf-8"?>
<!-- Generator: Adobe Illustrator 21.0.0, SVG Export Plug-In . SVG Version: 6.00 Build 0)  -->
<svg version="1.1" id="Ebene_1" xmlns="http://www.w3.org/2000/svg" xmlns:xlink="http://www.w3.org/1999/xlink" x="0px" y="0px"
	 viewBox="0 0 1200 1200" style="enable-background:new 0 0 1200 1200;" xml:space="preserve">
<path d="M599.2,0C266.6,0.3-0.6,268,0,600.3c-1,350.8,294.4,604.8,605.5,599.6c328.2-5.5,594.8-270.4,594.5-600.4
	C1199.8,267.8,931.1-0.3,599.2,0z M596.7,1169.1c-273.5,5.5-566.8-214.3-567.4-569.4C28.6,271.1,292.5,28.3,602.5,29.4
	c315.1,1.2,567.4,256.8,567.2,570.7C1169.5,917.3,914.9,1170.1,596.7,1169.1z"/>
<path d="M631.8,508.5c45.4,0,81.4,0,122.6,0c-5.4,42.2-10.1,79.4-15,118.4c-36.7,1.7-68.9,3.3-106,5c0,104.6,0,206.3,0,312.5
	c-43.7,0-82.4,0-128.6,0c0-103.7,0-206.9,0-311.1c-24.5-2.9-42-5-61.8-7.4c0-38.3,0-74.4,0-114.1c18.4-3.2,37.1-6.5,61.8-10.7
	c0-30.9-0.6-61.6,0.1-92.3c2.5-99.1,53.2-152.9,151.1-157.9c32.4-1.6,65,2.1,100.8,3.5c0,37.9,0,71.4,0,111
	c-23.8,0-45.4-1.5-66.7,0.3c-38.8,3.3-55.4,20.2-57.9,59.3C630.5,450.1,631.8,475.3,631.8,508.5z"/>
</svg>
