<?xml version="1.0" encoding="utf-8"?>
<!-- Generator: Adobe Illustrator 21.0.0, SVG Export Plug-In . SVG Version: 6.00 Build 0)  -->
<svg version="1.1" id="Ebene_1" xmlns="http://www.w3.org/2000/svg" xmlns:xlink="http://www.w3.org/1999/xlink" x="0px" y="0px"
	 viewBox="0 0 1200 1200" style="enable-background:new 0 0 1200 1200;" xml:space="preserve">
<path d="M1198.2,554.5C1172.4,216,877.6-30.2,538.2,3C237.2,32.4-12,294.2,0.4,623.1c13.9,340.9,303.9,601.4,644.8,575
	C982.7,1172,1223.2,883.6,1198.2,554.5z M600,1169.2c-316.2-0.1-572.2-256.5-571.2-572.2C29.7,285.7,287.5,29.2,599.8,28.8
	c315.1-0.4,570.7,257,569.7,573.5C1168.6,916.4,914.5,1169.4,600,1169.2z"/>
<path d="M927.9,490.7c-3.8-78.9-31-107.5-107.9-109.3c-147.9-3.3-296-2.7-443.9,0c-66.7,1.3-97,26.2-101.6,91.8
	c-6.4,92.6-5.9,186.1,0,278.8c4.1,63.4,34,86.1,97.4,88.2c69.4,2.3,138.8,0.5,208.3,0.5v1.3c80.3,0,160.8,3.2,241-0.9
	c76.5-3.9,100.8-27.3,105.6-104.5C931.9,654.9,931.9,572.5,927.9,490.7z M535.7,699.3V521.1c56.6,29.5,107,55.8,167.5,87.3
	C643.1,641,592.2,668.7,535.7,699.3z"/>
</svg>
