<?xml version="1.0" encoding="utf-8"?>
<!-- created by empty soul  -->
<svg version="1.1" id="downarrow" xmlns="http://www.w3.org/2000/svg" xmlns:xlink="http://www.w3.org/1999/xlink" x="0px" y="0px"
	 viewBox="0 0 1200 1200" style="enable-background:new 0 0 1200 1200;" xml:space="preserve">
<g>
	<path d="M1119.5,539.2l-505.1,505.3c-7.1,7.1-18.6,7.1-25.6,0L85.5,541.2c-27-27-27-70.7,0-97.6l28.1-28.1c27-27,70.7-27,97.6,0
		l297,297v-491c0-38.2,30.9-69.1,69-69H617c38.2,0,69.1,30.9,69,69v499.8l307.8-307.8c27-27,70.7-27,97.6,0l28.1,28.1
		C1146.5,468.6,1146.5,512.3,1119.5,539.2z"/>
</g>
</svg>
