<?xml version="1.0" encoding="utf-8"?>
<!-- created by empty soul  -->
<svg version="1.1" id="downarrow" xmlns="http://www.w3.org/2000/svg" xmlns:xlink="http://www.w3.org/1999/xlink" x="0px" y="0px"
	 viewBox="0 0 1200 1200" style="enable-background:new 0 0 1200 1200;" xml:space="preserve">
<g>
	<path d="M1176,328.7L608.6,896.1c-4,3.9-10.4,3.9-14.3,0L25.5,327.3c-3.9-4-3.9-10.4,0-14.3l7-7l7-7c4-4,10.4-4,14.3,0l7.2,7
		l533.4,523.5c4,4,10.3,4,14.3,0l532-522.2l7.1-7c3.9-4,10.4-4,14.3,0l7,7l7,7C1180,318.4,1180,324.8,1176,328.7z"/>
</g>
</svg>
