<?xml version="1.0" encoding="utf-8"?>
<svg version="1.1" id="Cohecean_Logo" xmlns="http://www.w3.org/2000/svg" xmlns:xlink="http://www.w3.org/1999/xlink" x="0px" y="0px"
	 viewBox="0 0 841.9 595.3" style="enable-background:new 0 0 841.9 595.3;" xml:space="preserve">
<style type="text/css">
	.st0{fill:none;stroke:#B27F4A;stroke-width:3;stroke-miterlimit:10;}
	.st1{fill:none;}
	.st2{fill:#432919;}
	.st3{fill:#B27F4A;}
	.st4{fill:#3B78BC;}
	.st5{fill:#4DA2DA;}
	.st6{fill:#5EB4E5;}
	.st7{fill:#4285C5;}
	.st8{fill:#7ECEF3;}
</style>
<polyline class="st0" points="636.7,346 636.7,512.6 220,512.6 "/>
<polyline class="st0" points="220.8,240.9 220.8,74.3 637.5,74.3 "/>
<g>
	<path class="st1" d="M208.1,264.6c-5.8,0-11,1.3-15.6,3.8c-4.6,2.5-8.2,6-10.7,10.5c-2.5,4.5-3.7,9.6-3.7,15.3
		c0,5.7,1.3,10.8,3.9,15.3c0.4,0.7,0.8,1.4,1.3,2c1.7,1.6,3.6,3,5.8,4.2c4.6,2.5,9.8,3.7,15.6,3.7c8.8,0,16-2.8,21.6-8.3
		c5.6-5.5,8.5-12.6,8.5-21.3c0-5.7-1.3-10.8-3.8-15.3c-0.4-0.7-0.8-1.4-1.3-2.1c-1.7-1.6-3.6-3-5.8-4.2
		C219.1,265.8,213.9,264.6,208.1,264.6z"/>
	<polygon class="st1" points="646.5,299.2 634.9,272 624.3,299.2 	"/>
	<path class="st2" d="M146.3,325.6c-5.5,2.9-10.6,5-15.3,6.2c-4.6,1.2-10.1,1.8-16.3,1.8c-9,0-17.1-1.8-24.2-5.4
		c-4.1-2.1-7.7-4.7-10.8-7.9c3.8,5.1,8.6,9.2,14.5,12.2c7.1,3.6,15.1,5.4,24.2,5.4c6.2,0,11.6-0.6,16.3-1.8
		c4.6-1.2,9.7-3.3,15.3-6.2v-15.5c-1.3,0.7-2.5,1.3-3.7,1.9V325.6z"/>
	<path class="st2" d="M130.7,262.3c-4.5-1.3-9.1-2-14-2c-6.1,0-11.6,1.3-16.5,3.8c-4.9,2.5-8.7,6-11.4,10.6
		c-2.7,4.6-4.1,9.6-4.1,15.2c0,5.7,1.3,10.8,4,15.4c1.3,2.2,2.8,4.1,4.6,5.8c-0.3-0.5-0.6-0.9-0.9-1.4c-2.7-4.5-4-9.6-4-15.4
		c0-5.6,1.4-10.7,4.1-15.2c2.7-4.6,6.5-8.1,11.4-10.6c4.9-2.5,10.4-3.8,16.5-3.8c4.9,0,9.5,0.7,14,2c4.5,1.3,9.3,3.5,14.6,6.5v-15.5
		c-1.2-0.6-2.5-1.2-3.7-1.7v12.9C140,265.8,135.2,263.6,130.7,262.3z"/>
	<path class="st2" d="M181.9,309.5c-2.6-4.5-3.9-9.6-3.9-15.3c0-5.7,1.2-10.8,3.7-15.3c2.5-4.5,6-8,10.7-10.5
		c4.6-2.5,9.8-3.8,15.6-3.8c5.8,0,11,1.2,15.6,3.7c2.2,1.2,4.1,2.6,5.8,4.2c-2.4-3.6-5.6-6.4-9.5-8.5c-4.6-2.5-9.8-3.7-15.6-3.7
		c-5.8,0-11,1.3-15.6,3.8c-4.6,2.5-8.2,6-10.7,10.5c-2.5,4.5-3.7,9.6-3.7,15.3c0,5.7,1.3,10.8,3.9,15.3c1.4,2.4,3,4.5,5,6.3
		C182.8,310.8,182.3,310.2,181.9,309.5z"/>
	<path class="st2" d="M243,263.9c0.8,1.1,1.6,2.2,2.3,3.4c4.2,6.9,6.3,14.4,6.3,22.6c0,8-2,15.4-6.1,22.2
		c-4.1,6.8-9.7,12.1-16.9,15.9c-7.2,3.8-15.2,5.7-24.2,5.7c-8.8,0-16.9-1.9-24.1-5.7c-4.2-2.2-7.8-4.9-11-8.1
		c3.8,5.1,8.7,9.3,14.6,12.5c7.2,3.8,15.3,5.7,24.1,5.7c9,0,17-1.9,24.2-5.7c7.2-3.8,12.8-9.1,16.9-15.9c4.1-6.8,6.1-14.2,6.1-22.2
		c0-8.2-2.1-15.7-6.3-22.6C247.3,268.7,245.3,266.2,243,263.9z"/>
	<polygon class="st2" points="344.5,332.6 331.7,332.6 331.7,336.9 348.2,336.9 348.2,251.4 344.5,251.4 	"/>
	<rect x="283.6" y="251.4" class="st2" width="3.7" height="31.6"/>
	<polygon class="st2" points="283.6,296.5 283.6,332.6 270.8,332.6 270.8,336.9 287.3,336.9 287.3,300.8 328,300.8 328,296.5 	"/>
	<polygon class="st2" points="419.4,332.6 367,332.6 367,336.9 423.1,336.9 423.1,324 419.4,324 	"/>
	<polygon class="st2" points="379.9,295.4 379.9,319.6 383.5,319.6 383.5,299.7 420.6,299.7 420.6,286.8 416.9,286.8 416.9,295.4
		"/>
	<polygon class="st2" points="379.9,260 379.9,282.5 383.5,282.5 383.5,264.3 422.3,264.3 422.3,251.4 418.6,251.4 418.6,260 	"/>
	<path class="st2" d="M494.4,262.3c-4.5-1.3-9.1-2-14-2c-6.1,0-11.6,1.3-16.5,3.8c-4.9,2.5-8.7,6-11.4,10.6
		c-2.7,4.6-4.1,9.6-4.1,15.2c0,5.7,1.3,10.8,4,15.4c1.3,2.2,2.8,4.1,4.6,5.8c-0.3-0.5-0.6-0.9-0.9-1.4c-2.7-4.5-4-9.6-4-15.4
		c0-5.6,1.4-10.7,4.1-15.2c2.7-4.6,6.5-8.1,11.4-10.6c4.9-2.5,10.4-3.8,16.5-3.8c4.9,0,9.5,0.7,14,2c4.5,1.3,9.3,3.5,14.6,6.5v-15.5
		c-1.2-0.6-2.5-1.2-3.7-1.7v12.9C503.7,265.8,498.8,263.6,494.4,262.3z"/>
	<path class="st2" d="M509.9,325.6c-5.5,2.9-10.6,5-15.3,6.2c-4.6,1.2-10.1,1.8-16.3,1.8c-9,0-17.1-1.8-24.2-5.4
		c-4.1-2.1-7.7-4.7-10.8-7.9c3.8,5.1,8.6,9.2,14.5,12.2c7.1,3.6,15.1,5.4,24.2,5.4c6.2,0,11.6-0.6,16.3-1.8
		c4.6-1.2,9.7-3.3,15.3-6.2v-15.5c-1.3,0.7-2.5,1.3-3.7,1.9V325.6z"/>
	<polygon class="st2" points="581.8,332.6 529.3,332.6 529.3,336.9 585.4,336.9 585.4,324 581.8,324 	"/>
	<polygon class="st2" points="542.2,295.4 542.2,319.6 545.9,319.6 545.9,299.7 582.9,299.7 582.9,286.8 579.2,286.8 579.2,295.4
		"/>
	<polygon class="st2" points="542.2,260 542.2,282.5 545.9,282.5 545.9,264.3 584.6,264.3 584.6,251.4 580.9,251.4 580.9,260 	"/>
	<polygon class="st2" points="642.4,251.4 678.2,332.6 662.6,332.6 664.5,336.9 681.9,336.9 644.2,251.4 	"/>
	<polygon class="st2" points="613.9,311.8 605.7,332.6 593.8,332.6 592,336.9 609.4,336.9 617.6,316.1 653.8,316.1 651.9,311.8 	"/>
	<polygon class="st2" points="634.9,272 632.1,265.4 618.9,299.2 624.3,299.2 	"/>
	<polygon class="st2" points="704.4,332.6 691.9,332.6 691.9,336.9 708.1,336.9 708.1,276.3 704.4,271.9 	"/>
	<rect x="730" y="242.8" transform="matrix(0.7615 -0.6482 0.6482 0.7615 -6.7811 539.7456)" class="st2" width="0" height="72.6"/>
	<polygon class="st2" points="769.6,251.4 769.6,332.6 755.5,332.6 759.1,336.9 773.3,336.9 773.3,251.4 	"/>
	<path class="st3" d="M114.7,333.7c6.2,0,11.6-0.6,16.3-1.8c4.6-1.2,9.7-3.3,15.3-6.2v-9.3v-6.3c-6.5,3.5-11.9,5.9-16.1,7.3
		c-4.3,1.3-8.7,2-13.4,2c-6.1,0-11.6-1.2-16.5-3.7c-2.6-1.3-4.8-2.9-6.8-4.7c-1.8-1.7-3.3-3.6-4.6-5.8c-2.7-4.5-4-9.6-4-15.4
		c0-5.6,1.4-10.7,4.1-15.2c2.7-4.6,6.5-8.1,11.4-10.6c4.9-2.5,10.4-3.8,16.5-3.8c4.9,0,9.5,0.7,14,2c4.5,1.3,9.3,3.5,14.6,6.5v-12.9
		v-2.6c-5.4-2.6-10.4-4.5-15-5.6c-4.6-1.1-9.4-1.7-14.3-1.7c-9.2,0-17.4,1.9-24.7,5.6c-7.3,3.7-13.1,9-17.2,15.8
		c-4.2,6.9-6.3,14.6-6.3,23.2c0,8,2,15.4,6.1,22.2c1.7,2.8,3.7,5.4,5.9,7.6c3.1,3.2,6.7,5.8,10.8,7.9
		C97.7,331.9,105.7,333.7,114.7,333.7z"/>
	<path class="st3" d="M180.3,327.9c7.2,3.8,15.3,5.7,24.1,5.7c9,0,17-1.9,24.2-5.7c7.2-3.8,12.8-9.1,16.9-15.9
		c4.1-6.8,6.1-14.2,6.1-22.2c0-8.2-2.1-15.7-6.3-22.6c-0.7-1.2-1.5-2.3-2.3-3.4c-3.9-5.2-8.7-9.4-14.6-12.4
		c-7.1-3.6-15-5.5-23.9-5.5c-9.2,0-17.4,1.9-24.5,5.7c-7.1,3.8-12.7,9.2-16.7,16.1c-4,6.9-6.1,14.3-6.1,22.1c0,8.1,2,15.5,6.1,22.2
		c1.7,2.8,3.7,5.4,6,7.7C172.5,323,176.1,325.7,180.3,327.9z M178.3,305.2c-2.6-4.5-3.9-9.6-3.9-15.3c0-5.7,1.2-10.8,3.7-15.3
		c2.5-4.5,6-8,10.7-10.5c4.6-2.5,9.8-3.8,15.6-3.8c5.8,0,11,1.2,15.6,3.7c3.9,2.1,7.1,4.9,9.5,8.5c0.5,0.7,0.9,1.3,1.3,2.1
		c2.5,4.5,3.8,9.7,3.8,15.3c0,8.7-2.8,15.8-8.5,21.3c-5.6,5.5-12.9,8.3-21.6,8.3c-5.8,0-11-1.2-15.6-3.7c-2.2-1.2-4.1-2.6-5.8-4.2
		C181.3,309.7,179.6,307.6,178.3,305.2z"/>
	<polygon class="st3" points="344.5,251.4 344.5,247.1 328,247.1 328,283.1 287.3,283.1 283.6,283.1 283.6,251.4 283.6,247.1
		267.1,247.1 267.1,332.6 270.8,332.6 283.6,332.6 283.6,296.5 328,296.5 328,300.8 328,332.6 331.7,332.6 344.5,332.6 	"/>
	<polygon class="st3" points="419.4,324 419.4,319.6 383.5,319.6 379.9,319.6 379.9,295.4 416.9,295.4 416.9,286.8 416.9,282.5
		383.5,282.5 379.9,282.5 379.9,260 418.6,260 418.6,251.4 418.6,247.1 363.3,247.1 363.3,332.6 367,332.6 419.4,332.6 	"/>
	<path class="st3" d="M478.4,333.7c6.2,0,11.6-0.6,16.3-1.8c4.6-1.2,9.7-3.3,15.3-6.2v-9.3v-6.3c-6.5,3.5-11.9,5.9-16.1,7.3
		c-4.3,1.3-8.7,2-13.4,2c-6.1,0-11.6-1.2-16.5-3.7c-2.6-1.3-4.8-2.9-6.8-4.7c-1.8-1.7-3.3-3.6-4.6-5.8c-2.7-4.5-4-9.6-4-15.4
		c0-5.6,1.4-10.7,4.1-15.2c2.7-4.6,6.5-8.1,11.4-10.6c4.9-2.5,10.4-3.8,16.5-3.8c4.9,0,9.5,0.7,14,2c4.5,1.3,9.3,3.5,14.6,6.5v-12.9
		v-2.6c-5.4-2.6-10.4-4.5-15-5.6c-4.6-1.1-9.4-1.7-14.3-1.7c-9.2,0-17.4,1.9-24.7,5.6c-7.3,3.7-13.1,9-17.2,15.8
		c-4.2,6.9-6.3,14.6-6.3,23.2c0,8,2,15.4,6.1,22.2c1.7,2.8,3.7,5.4,5.9,7.6c3.1,3.2,6.7,5.8,10.8,7.9
		C461.3,331.9,469.4,333.7,478.4,333.7z"/>
	<polygon class="st3" points="581.8,324 581.8,319.6 545.9,319.6 542.2,319.6 542.2,295.4 579.2,295.4 579.2,286.8 579.2,282.5
		545.9,282.5 542.2,282.5 542.2,260 580.9,260 580.9,251.4 580.9,247.1 525.7,247.1 525.7,332.6 529.3,332.6 581.8,332.6 	"/>
	<path class="st3" d="M642.4,251.4l-1.9-4.3h-16.9l-35.2,85.4h5.5h11.8l8.3-20.8h38l1.8,4.3l7,16.5h1.8h15.6L642.4,251.4z
		 M632.1,265.4l2.8,6.6l11.6,27.2h-22.2h-5.4L632.1,265.4z"/>
	<polygon class="st3" points="769.6,251.4 769.6,247.1 753.5,247.1 753.5,306.7 753.5,306.7 706.4,251.4 702.7,247.1 688.2,247.1
		688.2,332.6 691.9,332.6 704.4,332.6 704.4,271.9 708.1,276.3 755.5,332.6 755.5,332.6 769.6,332.6 	"/>
</g>
<g>
	<path class="st1" d="M150.1,500.2c-0.3,0.5-0.7,1.1-1.2,1.7C149.4,501.3,149.8,500.7,150.1,500.2z"/>
	<path class="st4" d="M150.5,499.5c-0.1,0.2-0.3,0.5-0.5,0.8C150.2,500,150.4,499.7,150.5,499.5z"/>
	<path class="st4" d="M148.9,501.9c-3,4.1-8.6,10.7-10,10.7C143.5,508.1,146.9,504.6,148.9,501.9z"/>
	<path class="st1" d="M150.5,499.5c-0.1,0.2-0.3,0.5-0.5,0.8C150.2,500,150.4,499.7,150.5,499.5z"/>
	<path class="st1" d="M148.9,501.9c-3,4.1-8.6,10.7-10,10.7C143.5,508.1,146.9,504.6,148.9,501.9z"/>
	<path class="st1" d="M150.1,500.2c-0.3,0.5-0.7,1.1-1.2,1.7C149.4,501.3,149.8,500.7,150.1,500.2z"/>
	<path class="st1" d="M435.5,448.7l0.3-0.1c0,0-0.1,0-0.1,0L435.5,448.7z"/>
	<path class="st1" d="M539.3,391.8c2.2-1.3,4.4-2.3,4.7-2.6C542.4,390.2,540.8,391,539.3,391.8z"/>
	<path class="st1" d="M488.3,427.5c1.3,0.3,2.3,1.1,2.9,2.5c0.4,0.7,1,1.2,2,1.4c-0.9-0.2-1.6-0.6-2-1.4
		C490.6,428.6,489.6,427.8,488.3,427.5c-0.2-0.1-0.4-0.1-0.6-0.1C487.9,427.4,488.1,427.4,488.3,427.5z"/>
	<path class="st1" d="M432.6,449.3C432.6,449.3,432.6,449.3,432.6,449.3l0.7-0.1c0,0,0,0-0.1,0L432.6,449.3z"/>
	<path class="st1" d="M436.5,448.6l0.7-0.1l-0.4,0.1C436.6,448.5,436.6,448.6,436.5,448.6z"/>
	<polygon class="st1" points="465.5,474.7 465.5,474.6 465.5,474.5 465.5,474.6 	"/>
	<path class="st1" d="M438.2,448.3L438.2,448.3C438.3,448.2,438.3,448.2,438.2,448.3L438.2,448.3
		C438.2,448.3,438.2,448.3,438.2,448.3z"/>
	<path class="st1" d="M466.7,472.7l-2.3,0.5c-0.8,0.2-2,0.4-3.4,0.6c1.4-0.2,2.5-0.4,3.4-0.6L466.7,472.7z"/>
	<path class="st1" d="M382.1,450.2c0.7,0,1.6-0.1,2.6-0.1C383.7,450.2,382.8,450.2,382.1,450.2z"/>
	<path class="st1" d="M382.1,450.2c-0.5,0-0.8,0-1.1,0.1c-0.7,0.1-2,0.2-3.7,0.5c1.7-0.3,3-0.4,3.7-0.5
		C381.2,450.3,381.6,450.2,382.1,450.2z"/>
	<path class="st1" d="M384.7,450.1c0.7,0,1.5,0,2.4,0C386.2,450.1,385.4,450.1,384.7,450.1z"/>
	<path class="st1" d="M438.7,465.9L438.7,465.9c1.6-0.2,3-0.4,4.2-0.6C441.6,465.5,440.2,465.7,438.7,465.9z"/>
	<path class="st1" d="M306.7,401.2c-0.4,0-0.8,0-1.1,0C305.9,401.2,306.3,401.2,306.7,401.2z"/>
	<path class="st1" d="M304,400.6c-0.3-0.5-0.8-0.8-1.5-0.9c-0.7-0.1-1.6-1-2.7-2.7c-1.1-1.6-1.4-2.5-1-2.8c-0.4,0.2-0.1,1.2,1,2.8
		c1.1,1.7,2.1,2.5,2.7,2.7C303.2,399.8,303.7,400.1,304,400.6c0.1,0.3,0.7,0.5,1.6,0.5C304.6,401.1,304.1,400.9,304,400.6z"/>
	<path class="st1" d="M404.4,424.1c-2.8-0.2-4.3-0.6-4.4-1.1c0-0.2-0.2-0.3-0.5-0.4c0.3,0,0.5,0.2,0.5,0.4
		C400.1,423.5,401.6,423.8,404.4,424.1c2.9,0.2,5.1,0.5,6.6,0.8c1.2,0.3,2.3,0.4,3.3,0.4c-1,0-2.2-0.2-3.3-0.4
		C409.5,424.6,407.3,424.3,404.4,424.1z"/>
	<path class="st1" d="M420.2,428.9c-0.3-1.3-0.8-2-1.5-2.1c-0.7-0.1-1.1-0.5-1.2-1c-0.1-0.5-0.8-0.7-2.1-0.5c1.3-0.1,2,0,2.1,0.5
		c0.1,0.5,0.5,0.8,1.2,1C419.4,426.9,419.9,427.6,420.2,428.9c0.3,1.3,4.4,1.9,4.4,1.9l0,0C424.6,430.8,420.5,430.2,420.2,428.9z"/>
	<path class="st1" d="M388,421.5c-0.4-0.6-1.6-1.2-3.6-2c-2.1-0.8-3.9-1.5-5.6-1.9c-0.9-0.2-1.8-0.4-2.7-0.4c1,0,1.9,0.2,2.7,0.4
		c1.7,0.5,3.6,1.1,5.6,1.9C386.4,420.3,387.6,421,388,421.5c0.4,0.6,1.4,1.2,3.2,1.6c0.9,0.2,1.7,0.3,2.7,0.3
		c-0.9,0-1.8-0.1-2.7-0.3C389.4,422.7,388.4,422.2,388,421.5z"/>
	<path class="st1" d="M429,430.7l-2.6-0.7h0L429,430.7c1.7,0.5,2.6,0.8,2.8,0.9c0.1,0,0.8,0.1,1.9,0.1c-1.1,0-1.8-0.1-1.9-0.1
		C431.7,431.5,430.8,431.2,429,430.7z"/>
	<path class="st1" d="M366,418.6C366,418.6,366,418.6,366,418.6C366,418.6,366,418.6,366,418.6c0.1,0.3,0.2,0.4,0.5,0.4
		C366.2,419,366,418.9,366,418.6z"/>
	<path class="st1" d="M460.6,425.1l-0.3-0.1l-0.2-0.2l-0.2-0.2l-0.3-0.1l-0.3-0.1l-0.2-0.2L459,424c-0.1-0.1-0.4-0.1-0.8-0.1
		c0.4,0,0.7,0,0.8,0.1l0.2,0.2l0.2,0.2l0.3,0.1l0.3,0.1l0.2,0.2l0.2,0.2L460.6,425.1l0.2,0.1v0L460.6,425.1z"/>
	<path class="st1" d="M446.7,428c0.6-0.1,1.2-0.2,1.8-0.2c0.4,0,0.8-0.1,1.1-0.1c-0.4,0-0.7,0.1-1.1,0.1
		C447.8,427.8,447.2,427.9,446.7,428z"/>
	<path class="st1" d="M457.3,424c0.1,0,0.2-0.1,0.3-0.1c0.2,0,0.3,0,0.5,0c-0.1,0-0.3,0-0.5,0C457.6,423.9,457.5,423.9,457.3,424z"
		/>
	<path class="st1" d="M460.8,445.6c-0.6,0.1-1.3,0.2-2,0.3C459.5,445.8,460.2,445.7,460.8,445.6L460.8,445.6z"/>
	<path class="st1" d="M463.5,445.1c-0.8,0.2-1.6,0.3-2.5,0.5l0,0C461.9,445.4,462.7,445.2,463.5,445.1z"/>
	<path class="st1" d="M280.6,391.7c2.4,0,4.6,0.3,6.6,1c0.8,0.3,1.5,0.5,2.2,0.7c-0.7-0.2-1.4-0.4-2.2-0.7
		C285.3,392.1,283.1,391.8,280.6,391.7z"/>
	<path class="st1" d="M293.3,394.2c-1.2-0.1-2.5-0.4-3.9-0.7C290.8,393.8,292.1,394,293.3,394.2z"/>
	<path class="st1" d="M298.4,394c0.4,0,0.5,0,0.5,0.1C299,394.1,298.8,394,298.4,394z"/>
	<path class="st1" d="M329.1,415.3c0.4-0.3,0.4-0.8,0.2-1.3c-0.3-0.5-1.4-1.2-3.3-2.1c-1.9-1-3.1-2.7-3.7-5.3
		c-0.5-2.6-1.7-3.6-3.4-2.9s-2.7,0.7-2.8,0.2c-0.1-0.5,0.3-1.2,1.2-2l1.3-1.3l-0.9-0.2l-0.9-0.2h0l0.9,0.2l0.9,0.2l-1.3,1.3
		c-0.9,0.8-1.3,1.5-1.2,2s1,0.5,2.8-0.2c1.8-0.6,2.9,0.3,3.4,2.9c0.5,2.6,1.8,4.4,3.7,5.3c2,0.9,3.1,1.7,3.3,2.1
		C329.5,414.5,329.5,414.9,329.1,415.3c-0.3,0.3,1.8,1.3,6.3,3c0,0,0,0,0,0c0,0,0,0,0,0C330.9,416.6,328.8,415.6,329.1,415.3z"/>
	<path class="st1" d="M314.5,400.5c0.2,0,0.3-0.1,0.5-0.1l1.1-0.2l-1.1,0.2C314.9,400.4,314.7,400.4,314.5,400.5z"/>
	<path class="st1" d="M339.6,459.5l0-0.8L339.6,459.5l1.9,0.8c0.3,0.1,0.5,0.2,0.7,0.3c-0.2-0.1-0.4-0.2-0.7-0.3L339.6,459.5z"/>
	<path class="st1" d="M277.7,464.8c-0.3,0-0.4-0.1-0.4-0.2C277.3,464.7,277.4,464.8,277.7,464.8z"/>
	<path class="st1" d="M229.1,375.5c1.5,0.5,1.8,0.9,1.1,1.2h0C230.9,376.5,230.6,376.1,229.1,375.5c-1.5-0.5-1.8-1-1.1-1.5
		c0,0,0,0,0,0c0,0,0,0,0,0C227.3,374.5,227.7,375,229.1,375.5z"/>
	<polygon class="st1" points="276.2,455.7 276.2,455.7 276.2,455.7 277.5,455.7 277.7,455.1 277.5,455.7 	"/>
	<polygon class="st1" points="220.4,382.2 219.7,382.7 219.6,383 219.6,383 219.7,382.7 220.4,382.2 221.1,381.6 221.2,381.6
		221.1,381.6 	"/>
	<path class="st1" d="M277.5,461.8c-0.7-0.9-1.3-2.2-1.8-3.7l-0.6-2.3l0.6,2.3C276.2,459.6,276.8,460.8,277.5,461.8z"/>
	<path class="st1" d="M229.2,377.9c0.1,0.5,0.4,0.8,1,0.8l0.8,0.1l0.2,0.2l0.3,0.1l0.3,0.1l0.2,0.2l0.2,0.2l0.3,0.1l0.3,0.1l0.2,0.2
		l0,0l-0.2-0.2l-0.3-0.1l-0.3-0.1l-0.2-0.2l-0.2-0.2l-0.3-0.1l-0.3-0.1l-0.2-0.2l-0.8-0.1C229.7,378.7,229.3,378.5,229.2,377.9
		c-0.1-0.3,0-0.5,0.2-0.8C229.2,377.4,229.2,377.7,229.2,377.9z"/>
	<path class="st1" d="M252.6,420.3c0.4,0.5,0.9,1,1.3,1.5C253.5,421.2,253,420.7,252.6,420.3z"/>
	<path class="st1" d="M257.2,404.5c0.1-0.1,0.3-0.2,0.5-0.2c0.3-0.1,0.6-0.4,1-0.7c-0.4,0.4-0.7,0.6-1,0.7
		C257.4,404.3,257.3,404.4,257.2,404.5z"/>
	<path class="st1" d="M258.5,426.2L258.5,426.2c0.1,0,0.1,0,0.2,0C258.6,426.2,258.6,426.2,258.5,426.2z"/>
	<path class="st1" d="M317.9,464.9c0.5-0.1,1-0.2,1.6-0.3C318.9,464.7,318.4,464.8,317.9,464.9z"/>
	<path class="st1" d="M321.3,464c-0.3,0.1-0.6,0.2-0.9,0.3s-0.6,0.2-0.9,0.3c0.3-0.1,0.6-0.2,0.9-0.3S321,464.1,321.3,464z"/>
	<path class="st1" d="M340.3,464.3c0,0,0.1,0.1,0.1,0.1l0.2,0.2l-0.2-0.2C340.4,464.4,340.4,464.3,340.3,464.3z"/>
	<path class="st1" d="M340,463.3c0,0.1,0,0.1,0,0.2c0,0.1,0.1,0.2,0.1,0.3c0-0.1-0.1-0.2-0.1-0.3C340,463.4,340,463.4,340,463.3z"/>
	<path class="st1" d="M332,465.1c-0.3,0-0.6,0-0.9,0.1c-0.3,0-0.6,0-0.9,0c0.3,0,0.6,0,0.9,0C331.4,465.2,331.7,465.1,332,465.1z"/>
	<path class="st5" d="M148.9,501.9c0.5-0.6,0.9-1.2,1.2-1.7c0.2-0.3,0.4-0.6,0.5-0.8c1.4-2.7,2.8-5.6,4.2-8.5c1.4-3,3.6-5.5,6.4-7.6
		c2.8-2,20.2-27.2,20.2-29.3c0.1-2.2,0.4-3.6,1-4.4c0.5-0.8,1.7-1.7,3.7-2.6c2-0.9,3.3-1.7,3.9-2.4c0.7-0.7,1.7-2.3,3-4.9
		c1.4-2.5,3.3-4.4,5.7-5.5c2.4-1.2,4.5-2.5,6.1-3.9s2.7-3.1,3.4-5c0.7-1.9,1.6-3.1,2.9-3.8c1.2-0.6,3-1.9,5.3-3.7
		c2.3-1.8,4.8-3.4,7.5-4.8c2.7-1.4,5.2-2.9,7.5-4.8c2.3-1.8,6-3.7,11-5.6l7.5-3l4.5-1.6c3-1,5.2-1.8,6.4-2.3l1.9-0.8l0.7-0.5
		l0.7-0.5l1.6-0.3l0.4,0.2l0.4,0.1h0l0.1,0.4l-0.7,0.5l-0.7,0.5l-0.1,0.3l-0.2,0.2l-0.2,0.2l-0.1,0.3l-0.1,0.3l-0.2,0.2l-0.2,0.2
		l-0.1,0.3l-0.1,0.3l-0.2,0.2l-0.2,0.2l-0.1,0.3l-2.2,2.9c-0.7,0.9-1.3,1.6-1.8,2.2c-0.2,0.2-0.3,0.3-0.5,0.5
		c-0.4,0.4-0.7,0.6-1,0.7c-0.2,0.1-0.4,0.1-0.5,0.2c-0.4,0.2-0.6,0.6-0.5,0.9c0.1,0.5-0.1,0.8-0.6,0.9c-0.5,0.1-0.9,1.3-1.3,3.7
		c-0.3,2.4-1,3.9-2.1,4.5c-1.1,0.7-1.7,1.5-1.7,2.6c0,1.1,0.2,1.8,0.6,2.1c0,0,0,0,0,0c0,0,0.1,0,0.1,0.1c0.1,0,0.1,0.1,0.2,0.2
		c0.2,0.2,0.5,0.4,0.7,0.7c0.4,0.4,0.8,0.9,1.3,1.5c0.5,0.7,0.9,1.3,0.9,1.6c0.1,0.9,0.3,2,0.5,3.4c0.3,1.4,0.7,2.1,1.2,2
		c0.5-0.1,0.8-0.5,1-1.2c0.1-0.7,0.4-1.2,0.9-1.5h0c0.1,0,0.1,0,0.2,0c0.1,0,0.2,0,0.4,0.1c0.4,0.1,0.8,0.6,1.3,1.2
		c0.8,1.1,2,4.4,3.4,2.3c1.4-2.1,0.7-1.4,1-2.6c0.3-1.1,0.8-1,1.4,0.4c0.7,1.3,1,2.7,0.9,4.2c-0.1,1.5,0.2,2.9,0.7,4.1
		c0.5,1.2,1.5,2.9,3,5c1.5,2.1,3.4,4.1,5.8,5.8c2.4,1.8,4.5,3,6.2,3.4c1.7,0.5,2.6,0.8,2.8,0.9l0.3,0.1l0.3,0.1l0.2,0.2l1.2,0.1
		l1.2,0.1l0.2,0.2l0.3,0.1l0.3,0.1l0.2,0.2l-1.1,0.6l-1.1,0.6l1.2,0.1l1.2,0.1l0.1,0.4l-2,0.2l-2,0.2l-0.9-0.2
		c-0.1,0-0.3-0.1-0.4-0.1c-0.2-0.1-0.5-0.1-0.6-0.1c-0.1,0-0.2,0-0.2,0c-0.3,0.1-0.8-0.1-1.7-0.5c-0.9-0.4-1.8-0.4-2.8,0
		c-0.8,0.2-1.3,0.5-1.6,0.8c-0.1,0.1-0.2,0.2-0.2,0.3l-0.3,0.6l-1.2,0l-0.1,0l-1.1,0.1v0l0.6,2.3c0.5,1.5,1.1,2.7,1.8,3.7
		s0.8,1.7,0.2,2.2c-0.2,0.2-0.3,0.4-0.4,0.5c0,0,0,0.1,0,0.1c0,0.1,0.1,0.2,0.4,0.2l0.8,0l0.3,1.6l-2.3,0.5l-13.5,2.9
		c-9,2-16.2,4.6-21.6,7.7c-22,12.9-58.3,57.6-64.8,57.6c-24.3-1.9-37.7-22.4-37.7-22.4C140.3,512.6,145.9,506,148.9,501.9z"/>
	<path class="st6" d="M263.2,398l0.1-0.3l0.2-0.2l0.2-0.2l0.1-0.3l0.1-0.3l0.2-0.2l0.2-0.2l0.1-0.3l0.1-0.3l0.2-0.2l0.2-0.2l0.1-0.3
		l0.7-0.5l0.7-0.5l-0.1-0.4l7.8-1.4c0.1,0,0.2,0,0.3,0c1.1-0.2,2.1-0.3,3.1-0.4c0.2,0,0.4,0,0.5,0c0.9-0.1,1.7-0.1,2.5-0.1
		c2.4,0,4.6,0.3,6.6,1c0.8,0.3,1.5,0.5,2.2,0.7c1.4,0.4,2.7,0.6,3.9,0.7c0.6,0.1,1.2,0.1,1.7,0.1c0.3,0,0.6,0,0.9,0
		c0.3,0,0.6-0.1,0.8-0.1c0.3,0,0.5,0,0.7,0c0.4,0,0.7,0,1,0c0.4,0,0.5,0,0.5,0.1c0,0-0.1,0.1-0.1,0.1c0,0,0,0,0,0
		c-0.4,0.2-0.1,1.2,1,2.8c1.1,1.7,2.1,2.5,2.7,2.7c0.7,0.1,1.2,0.4,1.5,0.9c0.1,0.3,0.7,0.5,1.6,0.5c0.3,0,0.7,0,1.1,0
		c0.3,0,0.6,0,0.9,0c0.3,0,0.7,0,1,0c1.9-0.1,3.5-0.3,4.7-0.5c0.4-0.1,0.8-0.1,1.1-0.2c0.2,0,0.3-0.1,0.5-0.1l1.1-0.2l0.8-0.2
		l0.9,0.2l0.9,0.2l-1.3,1.3c-0.9,0.8-1.3,1.5-1.2,2c0.1,0.5,1,0.5,2.8-0.2s2.9,0.3,3.4,2.9c0.5,2.6,1.8,4.4,3.7,5.3
		c2,0.9,3.1,1.7,3.3,2.1c0.2,0.5,0.1,0.9-0.2,1.3c-0.3,0.3,1.8,1.3,6.3,3c0,0,0,0,0,0c4.5,1.6,8.3,2.5,11.3,2.7
		c3,0.2,4.3,2.2,7.1,1.7c2.8-0.6,7.5-0.7,9.6-1.3c1.9-0.5,2.4-2.7,2.6-2.8c0,0,0,0,0,0.1c0.1,0.3,0.2,0.4,0.5,0.4
		c0.3,0,0.7-0.1,1.3-0.4c1.1-0.5,2.8-0.9,5.1-1.3c1.1-0.1,2.1-0.2,3.1-0.2c1,0,1.9,0.2,2.7,0.4c1.7,0.5,3.6,1.1,5.6,1.9
		c2,0.8,3.3,1.4,3.6,2c0.4,0.6,1.4,1.2,3.2,1.6c0.9,0.2,1.8,0.3,2.7,0.3c0.9,0,1.9-0.2,2.9-0.5c0.8-0.2,1.4-0.3,1.9-0.4
		c0.2,0,0.3,0,0.4,0c0.1,0,0.3,0,0.4,0c0.3,0,0.5,0.2,0.5,0.4c0.1,0.5,1.6,0.9,4.4,1.1c2.9,0.2,5.1,0.5,6.6,0.8
		c1.2,0.3,2.3,0.4,3.3,0.4c0.3,0,0.7,0,1,0c0,0,0,0,0.1,0c1.3-0.1,2,0,2.1,0.5c0.1,0.5,0.5,0.8,1.2,1c0.7,0.1,1.2,0.8,1.5,2.1
		c0.3,1.3,4.4,1.9,4.4,1.9l0,0l0.2-0.2l0.1-0.3l1.6-0.3l2.6,0.7c1.7,0.5,2.6,0.8,2.8,0.9c0.1,0,0.8,0.1,1.9,0.1c0.2,0,0.4,0,0.6,0
		c0.4,0,0.8,0,1.1,0c0.3,0,0.5,0,0.8-0.1c0.3,0,0.7-0.1,1-0.2c0.6-0.1,1.3-0.3,1.8-0.6c0.2-0.1,0.3-0.2,0.5-0.3
		c0.4-0.3,0.9-0.6,1.4-0.8c0.3-0.2,0.7-0.3,1.1-0.5c0.3-0.1,0.5-0.2,0.8-0.3c0.5-0.2,1-0.3,1.5-0.5c0.2-0.1,0.4-0.1,0.6-0.2
		c0.5-0.1,1.1-0.3,1.7-0.4c0.6-0.1,1.2-0.2,1.8-0.2c0.4,0,0.8-0.1,1.1-0.1c1.4-0.2,2.6-0.4,3.6-0.8c0.5-0.2,0.9-0.4,1.2-0.6
		c0.3-0.2,0.6-0.5,0.9-0.7c0.4-0.5,0.8-0.8,1.1-1.1c0.3-0.3,0.7-0.4,1-0.5c0.1,0,0.2-0.1,0.3-0.1c0.2,0,0.3,0,0.5,0c0,0,0,0,0,0
		c0.4,0,0.7,0,0.8,0.1l0.2,0.2l0.2,0.2l0.3,0.1l0.3,0.1l0.2,0.2l0.2,0.2l0.3,0.1l0.2,0.1l-1.3,4.6l-4.3,1.7l1.7,14.7l3.9-0.5
		c-0.6,0.1-1.3,0.2-2,0.3c-0.2,0-0.4,0.1-0.6,0.1c-1.1,0.2-2.3,0.3-3.5,0.5c-0.2,0-0.4,0-0.5,0.1c-2,0.2-4,0.5-6.2,0.7
		c-0.1,0-0.2,0-0.2,0l-9.5,1c0,0,0,0,0,0l-0.1,0c0,0-0.1,0-0.1,0l-0.4,0.1l-0.5,0.1l-0.7,0.1c-0.2,0-0.4,0.1-0.7,0.1l-0.3,0.1
		l-0.1,0l-1.2,0.2l-0.8,0.2l-0.8,0.1c-0.1,0-0.1,0-0.2,0l-0.7,0.1l-0.8,0.1c-1.9,0.3-3.4,0.6-4.5,0.7c-0.4,0.1-0.7,0.1-1.1,0.2
		c-0.2,0-0.5,0.1-0.7,0.1c-0.4,0-0.7,0.1-0.9,0.1c-0.1,0-0.2,0-0.3,0c-0.1,0-0.1,0-0.2,0c0,0,0,0-0.1,0c-0.1,0-0.3,0-0.7,0
		c-0.3,0-0.7,0-1.2,0c-0.4,0-0.8,0-1.3,0c-0.5,0-1.1,0-1.7,0c-3.2-0.1-8.1-0.1-14.5-0.2c-3.2-0.1-6.1-0.1-8.7-0.1
		c-1.9,0-3.7,0-5.2,0c-0.5,0-1,0-1.5,0s-0.9,0-1.4,0c-0.9,0-1.7,0-2.4,0c-1.1,0-1.9,0-2.6,0.1c-0.5,0-0.8,0-1.1,0.1
		c-0.7,0.1-2,0.2-3.7,0.5c-3.8,0.6-10,1.7-18.5,3.2l-18.7,3.4l-0.1,0.3l-0.2,0.2l-0.1,0.8l0,0.8l1.9,0.8c0.3,0.1,0.5,0.2,0.7,0.3
		c0.2,0.1,0.4,0.2,0.5,0.2c0.5,0.2,0.7,0.4,0.6,0.5l-0.1,0.3l-1.7,0.6c-0.9,0.3-1.4,0.6-1.6,0.9c0,0.1,0,0.1,0,0.2s0,0.1,0,0.2
		c0,0.1,0.1,0.2,0.1,0.3c0.1,0.2,0.1,0.3,0.2,0.4c0,0,0.1,0.1,0.1,0.1l0.2,0.2l-1.9,0.4c-0.6,0.1-1.2,0.2-1.7,0.2
		c-0.2,0-0.4,0-0.6,0c-0.2,0-0.4,0-0.5-0.1c-0.4-0.1-1.1-0.1-2.3-0.1c-0.5,0-1,0-1.6,0.1c-0.3,0-0.6,0-0.9,0.1c-0.3,0-0.6,0-0.9,0
		c-0.6,0-1.1,0-1.5,0s-0.8-0.1-1-0.2c-0.2-0.1-0.4-0.1-0.5-0.2c-0.1-0.1-0.2-0.2-0.2-0.3c-0.1-0.5-0.6-0.9-1.4-1.2
		c-0.2-0.1-0.5-0.1-0.8-0.1c-0.2,0-0.3,0-0.5,0c-0.7,0.1-1.7,0.3-2.9,0.6c-0.3,0.1-0.6,0.2-0.9,0.3s-0.6,0.2-0.9,0.3
		c-0.6,0.1-1.1,0.2-1.6,0.3c-0.2,0-0.5,0-0.7,0c-0.2,0-0.4,0-0.6,0c-0.4,0-0.7-0.1-0.9-0.3c-0.1-0.1-0.2-0.2-0.3-0.2
		c-0.1-0.1-0.2-0.2-0.4-0.3c-0.1-0.1-0.3-0.2-0.4-0.3c-0.3-0.2-0.7-0.4-1.1-0.5c-0.6-0.3-1.3-0.5-2.2-0.7c-0.3-0.1-0.6-0.1-0.9-0.2
		c-2.4-0.6-3.7-1.1-3.9-1.6c0-0.1-0.1-0.1-0.1-0.2c-0.1-0.1-0.3-0.2-0.5-0.3c-0.2-0.1-0.5-0.2-0.8-0.3c-0.6-0.2-1.5-0.3-2.5-0.5
		c-0.9-0.1-1.6-0.3-2.2-0.4c-0.2,0-0.4-0.1-0.5-0.2c-0.6-0.2-1-0.4-1.1-0.7c-0.3-0.5-1.8-1.3-4.5-2.3l-4.2-1.6L290,454l-1.2-0.1
		l-1.2-0.1l1.1-0.6l1.1-0.6l-0.2-0.2l-0.3-0.1L289,452l-0.2-0.2l-1.2-0.1l-1.2-0.1l-0.2-0.2l-0.3-0.1l-0.3-0.1
		c-0.1-0.1-1.1-0.4-2.8-0.9c-1.7-0.5-3.8-1.6-6.2-3.4c-2.4-1.8-4.3-3.7-5.8-5.8c-1.5-2.1-2.6-4.6-3.1-7.4s-0.4-4.3,0.5-4.4l1.4-0.1
		l0.7-0.5l0.7-0.5l-0.2-0.2l-0.3-0.1l-0.3-0.1l-0.2-0.2l-0.2-0.2l-0.3-0.1l-0.3-0.1l-0.2-0.2l-0.2-0.2l-0.3-0.1l-0.1,0.8l0,0.8
		l-0.8,0l-0.8-0.1l0.1-0.3l0.2-0.2l0.2-0.9l0.2-0.9l0.2-0.2l0.1-0.3l0.1-0.3l0.2-0.2l-0.3-1.6l-0.2,0.2l-0.1,0.3l-0.7,0.5l-0.7,0.5
		l-1.7,1.4c-1.2,0.9-1.6,1.6-1.2,2.2c0.4,0.6,0.3,1-0.2,1.1l-0.8,0.2l-0.2-0.2l-0.3-0.1l-0.3-0.1c-0.1-0.1-0.6-0.7-1.3-1.8
		c-0.5-0.7-0.9-1.1-1.3-1.2c-0.1,0-0.2-0.1-0.4-0.1c-0.1,0-0.1,0-0.2,0c-0.5,0.3-1.6-0.8-3.5-3.1c-0.4-0.5-0.7-0.9-1.1-1.3
		c-0.4-0.5-0.9-1.1-1.3-1.5c-0.3-0.3-0.5-0.6-0.7-0.7c-0.1-0.1-0.2-0.1-0.2-0.2c0,0-0.1-0.1-0.1-0.1c0,0,0,0,0,0
		c-0.4-0.3-0.6-1.1-0.6-2.1c0-1.1,0.6-2,1.7-2.6c1.1-0.6,1.8-2.1,2.1-4.5c0.3-2.3,0.8-3.5,1.3-3.7c0.5-0.1,0.7-0.4,0.6-0.9
		c-0.1-0.4,0.1-0.7,0.5-0.9c0.1-0.1,0.3-0.2,0.5-0.2c0.3-0.1,0.6-0.4,1-0.7c0.2-0.1,0.3-0.3,0.5-0.5c0.5-0.5,1.1-1.3,1.8-2.2
		L263.2,398z"/>
	<path class="st6" d="M464.3,444.9l-0.5,0.1c-0.1,0-0.2,0-0.3,0.1c-0.8,0.2-1.6,0.3-2.5,0.5L464.3,444.9z"/>
	<path class="st6" d="M266.5,394.2l-0.7,0.5l-0.7,0.5l-0.1,0.3l-0.2,0.2l-0.2,0.2l-0.1,0.3l-0.1,0.3l-0.2,0.2l-0.2,0.2l-0.1,0.3
		l-0.1,0.3l-0.2,0.2l-0.2,0.2l-0.1,0.3l-2.2,2.9c-0.7,0.9-1.3,1.6-1.8,2.2c0.5-0.5,1.1-1.3,1.8-2.2l2.2-2.9l0.1-0.3l0.2-0.2l0.2-0.2
		l0.1-0.3l0.1-0.3l0.2-0.2l0.2-0.2l0.1-0.3l0.1-0.3l0.2-0.2l0.2-0.2l0.1-0.3l0.7-0.5L266.5,394.2l-0.1-0.4h0h0L266.5,394.2z"/>
	<path class="st6" d="M260.4,427.5c0.8,1.1,1.2,1.7,1.3,1.8l0.3,0.1l0.3,0.1l0.2,0.2l0.8-0.2c0.5-0.1,0.6-0.5,0.2-1.1
		c-0.4-0.6,0-1.3,1.2-2.2l1.7-1.4l0.7-0.5l0.7-0.5l0.1-0.3l0.2-0.2l0.3,1.6l-0.2,0.2l-0.1,0.3l-0.1,0.3l-0.2,0.2l-0.2,0.9l-0.2,0.9
		l-0.2,0.2l-0.1,0.3l0.8,0.1l0.8,0l0-0.8l0.1-0.8l0.3,0.1l0.2,0.2l0.2,0.2l0.3,0.1l0.3,0.1l0.2,0.2l0.2,0.2l0.3,0.1l0.3,0.1l0.2,0.2
		l-0.7,0.5l-0.7,0.5l-1.4,0.1c-0.9,0.1-1.1,1.5-0.5,4.4s1.6,5.3,3.1,7.4c-1.5-2.1-2.5-3.8-3-5c-0.5-1.2-0.8-2.6-0.7-4.1
		c0.1-1.5-0.2-2.9-0.9-4.2c-0.7-1.4-1.1-1.5-1.4-0.4c-0.3,1.1,0.4,0.5-1,2.6C262.3,431.8,261.1,428.6,260.4,427.5
		c-0.5-0.7-0.9-1.1-1.3-1.2C259.4,426.4,259.9,426.8,260.4,427.5z"/>
	<path class="st6" d="M258.5,426.2c-0.5,0.3-0.8,0.8-0.9,1.5c-0.1,0.7-0.5,1.1-1,1.2c-0.5,0.1-0.9-0.6-1.2-2
		c-0.3-1.4-0.5-2.5-0.5-3.4c0-0.4-0.4-1-0.9-1.6c0.3,0.4,0.7,0.8,1.1,1.3C256.9,425.5,258,426.5,258.5,426.2z"/>
	<path class="st6" d="M256.7,405.4c0.1,0.5-0.1,0.8-0.6,0.9c-0.5,0.1-0.9,1.3-1.3,3.7c-0.3,2.4-1,3.9-2.1,4.5
		c-1.1,0.7-1.7,1.5-1.7,2.6c0,1.1,0.2,1.8,0.6,2.1c0,0,0,0,0,0c0,0,0,0,0,0c-0.4-0.3-0.6-1.1-0.6-2.1c0-1.1,0.6-2,1.7-2.6
		c1.1-0.6,1.8-2.1,2.1-4.5c0.3-2.3,0.8-3.5,1.3-3.7C256.6,406.3,256.8,406,256.7,405.4c-0.1-0.4,0.1-0.7,0.5-0.9
		C256.7,404.7,256.6,405.1,256.7,405.4z"/>
	<path class="st6" d="M252.6,420.3c-0.3-0.3-0.5-0.6-0.7-0.7C252.1,419.7,252.3,419.9,252.6,420.3z"/>
	<path class="st6" d="M251.7,419.3c0.1,0,0.1,0.1,0.2,0.2C251.8,419.5,251.8,419.4,251.7,419.3z"/>
	<path class="st4" d="M155.6,417.4c11.3-10,19.8-17.4,25.7-22.2c5.9-4.8,13.5-10.3,22.7-16.5l25.2-15.1c7.1-3.4,13.4-5.8,18.7-7.1
		l8.1-1.8l0.1,0.4l0.2,0.2l0.3,0.1l0.6,1.1l0.6,1.1l0.3,0.1l0.2,0.2l-0.1,0.3l-0.2,0.2l-0.2,0.2l-0.1,0.3l-6.9,1.8
		c-4.6,1.2-9.7,2.8-15.2,4.7l-8.3,2.9l1.1,0.8c0.8,0.5,1.4,2.3,1,2.4c-0.5,0.1-0.6,2-1.3,2.5c0,0,0,0,0,0c-0.7,0.5-0.3,1,1.1,1.5
		c1.5,0.5,1.8,0.9,1.1,1.2c-0.2,0.1-0.4,0.1-0.5,0.2c-0.1,0.1-0.2,0.1-0.3,0.2c-0.2,0.2-0.3,0.5-0.2,0.8c0.1,0.5,0.4,0.8,1,0.8
		l0.8,0.1l0.2,0.2l0.3,0.1l0.3,0.1l0.2,0.2l0.2,0.2l0.3,0.1l0.3,0.1l0.2,0.2l-3.5,0.7c-0.4,0.1-0.7,0.1-1,0.2
		c-0.4,0.1-0.8,0.1-1.1,0.2c-1,0.2-1.9,0.3-2.7,0.3c-0.1,0-0.2,0-0.3,0c-0.3,0-0.5,0-0.7,0l-2.3,0.1l-0.1,0l-0.7,0.5l-0.7,0.5
		l-0.1,0.3l-0.2,0.2l0.5,2.3l0.2-0.2l0.1-0.3l1.6-0.3l0.9,0.2l0.9,0.2l0.2,0.2l0.3,0.1l0.3,0.1l0.2,0.2l0.2,0.2l0.3,0.1l0.3,0.1
		l0.2,0.2l4.9,0.2c3.3,0.1,7,0,11.4-0.5c4.4-0.5,6.7-0.5,7,0c0.2,0.5,2.1,0.4,5.7-0.4l5.4-1.1l0.4,1.1l0.5,1.1l0.3,0.1l0.2,0.2
		l-0.1,0.3l-0.2,0.2l-0.2,0.2l-0.1,0.3l-0.1,0.3l-0.2,0.2l-0.2,0.2l-0.1,0.3l-0.1,0.3l-0.2,0.2l-0.2,0.2l-0.1,0.3l-0.1,0.3l-0.2,0.2
		l-0.2,0.9l-0.2,0.9l-0.2,0.2l-0.1,0.3l-4.2,3.3c-2.8,2.2-4.2,3.4-4.1,3.5l0,0.2l-7.5,3c-5,1.9-8.6,3.8-11,5.6
		c-2.3,1.8-4.8,3.4-7.5,4.8c-2.7,1.4-5.2,2.9-7.5,4.8c-2.3,1.8-4.1,3-5.3,3.7c-1.2,0.7-2.2,1.9-2.9,3.8c-0.7,1.9-1.8,3.6-3.4,5
		s-3.6,2.7-6.1,3.9c-2.5,1.1-4.4,3-5.7,5.5c-1.4,2.6-2.4,4.2-3,4.9c-0.7,0.7-2,1.5-3.9,2.4c-2,0.9-3.2,1.8-3.7,2.6
		c-0.5,0.8-0.9,2.2-1,4.4c-0.1,2.2-17.4,27.3-20.2,29.3c-2.8,2.1-4.9,4.6-6.4,7.6c-1.4,3-2.8,5.8-4.2,8.5c-0.1,0.2-0.3,0.5-0.5,0.8
		c-0.3,0.5-0.7,1.1-1.2,1.7c-2,2.7-5.4,6.2-10,10.7c-1.5-1.7-12.7-22.3-27.2-55.1C112.3,455.6,144.3,427.4,155.6,417.4z"/>
	<path class="st7" d="M460.8,425.2l-0.2-0.1l-0.3-0.1l-0.2-0.2l-0.2-0.2l-0.3-0.1l-0.3-0.1l-0.2-0.2L459,424
		c-0.1-0.1-0.4-0.1-0.8-0.1c0,0,0,0,0,0c-0.1,0-0.3,0-0.5,0c-0.1,0-0.2,0-0.3,0.1c-0.3,0.1-0.6,0.2-1,0.5c-0.3,0.3-0.7,0.6-1.1,1.1
		c-0.2,0.3-0.5,0.5-0.9,0.7c-0.3,0.2-0.8,0.4-1.2,0.6c-0.9,0.3-2.1,0.6-3.6,0.8c-0.4,0-0.7,0.1-1.1,0.1c-0.6,0.1-1.2,0.1-1.8,0.2
		s-1.1,0.2-1.7,0.4c-0.2,0.1-0.4,0.1-0.6,0.2c-0.5,0.1-1,0.3-1.5,0.5c-0.3,0.1-0.6,0.2-0.8,0.3c-0.4,0.2-0.7,0.3-1.1,0.5
		c-0.5,0.3-1,0.5-1.4,0.8c-0.2,0.1-0.3,0.2-0.5,0.3c-0.5,0.3-1.1,0.4-1.8,0.6c-0.3,0.1-0.7,0.1-1,0.2c-0.3,0-0.5,0.1-0.8,0.1
		c-0.4,0-0.8,0-1.1,0c-0.2,0-0.4,0-0.6,0c-1.1,0-1.8-0.1-1.9-0.1c-0.1-0.1-1.1-0.4-2.8-0.9l-2.6-0.7h0l-1.6,0.3l-0.1,0.3l-0.2,0.2
		c0,0-4.2-0.6-4.4-1.9c-0.3-1.3-0.8-2-1.5-2.1c-0.7-0.1-1.1-0.5-1.2-1c-0.1-0.5-0.8-0.7-2.1-0.5c0,0,0,0-0.1,0c-0.3,0-0.7,0-1,0
		c-1,0-2.2-0.2-3.3-0.4c-1.5-0.3-3.7-0.6-6.6-0.8c-2.8-0.2-4.3-0.6-4.4-1.1c0-0.2-0.2-0.3-0.5-0.4c-0.1,0-0.2,0-0.4,0
		c-0.1,0-0.3,0-0.4,0c-0.5,0.1-1.1,0.2-1.9,0.4c-1,0.3-2,0.4-2.9,0.5s-1.8-0.1-2.7-0.3c-1.7-0.5-2.8-1-3.2-1.6
		c-0.4-0.6-1.6-1.2-3.6-2c-2.1-0.8-3.9-1.5-5.6-1.9c-0.9-0.2-1.8-0.4-2.7-0.4c-1,0-2,0-3.1,0.2c-2.2,0.4-3.9,0.8-5.1,1.3
		c-0.5,0.2-1,0.4-1.3,0.4c-0.3,0-0.5-0.1-0.5-0.4c0,0,0-0.1,0-0.1c-0.2-0.4-1.8-0.1-4.6,0.9c-3,1-5.4,1.3-7.2,1
		c-1.8-0.3-3-0.4-3.5-0.2c-0.5,0.1-2,0.2-4.5,0.3c-2.6,0.1-6.1-0.6-10.6-2.2c0,0,0,0,0,0c-4.5-1.7-6.6-2.7-6.3-3
		c0.4-0.3,0.4-0.8,0.2-1.3c-0.3-0.5-1.4-1.2-3.3-2.1c-1.9-1-3.1-2.7-3.7-5.3c-0.5-2.6-1.7-3.6-3.4-2.9c-1.8,0.6-2.7,0.7-2.8,0.2
		s0.3-1.2,1.2-2l1.3-1.3l-0.9-0.2l-0.9-0.2h0h0l-0.8,0.2l-1.1,0.2c-0.1,0-0.3,0.1-0.5,0.1c-0.3,0.1-0.7,0.1-1.1,0.2
		c-1.2,0.2-2.8,0.3-4.7,0.5c-0.4,0-0.7,0-1,0c-0.3,0-0.6,0-0.9,0c-0.4,0-0.8,0-1.1,0c-1-0.1-1.5-0.2-1.6-0.5
		c-0.3-0.5-0.8-0.8-1.5-0.9c-0.7-0.1-1.6-1-2.7-2.7c-1.1-1.6-1.4-2.5-1-2.8c0,0,0,0,0,0c0.1,0,0.1-0.1,0.1-0.1
		c0-0.1-0.1-0.1-0.5-0.1c-0.2,0-0.6,0-1,0c-0.2,0-0.4,0-0.7,0s-0.5,0-0.8,0.1c-0.3,0-0.6,0-0.9,0c-0.6,0-1.1,0-1.7-0.1
		c-1.2-0.1-2.5-0.4-3.9-0.7c-0.7-0.2-1.4-0.4-2.2-0.7c-1.9-0.6-4.1-1-6.6-1c-0.8,0-1.7,0-2.5,0.1c-0.2,0-0.4,0-0.5,0
		c-1,0.1-2,0.2-3.1,0.4c-0.1,0-0.2,0-0.3,0l-7.8,1.4l-0.4-0.1l-0.4-0.2l-1.6,0.3l-0.7,0.5l-0.7,0.5l-1.9,0.8
		c-1.2,0.5-3.4,1.3-6.4,2.3l-4.5,1.6l0-0.2c0-0.2,1.3-1.3,4.1-3.5l4.2-3.3l0.1-0.3l0.2-0.2l0.2-0.9l0.2-0.9l0.2-0.2l0.1-0.3l0.1-0.3
		l0.2-0.2l0.2-0.2l0.1-0.3l0.1-0.3l0.2-0.2l0.2-0.2l0.1-0.3l0.1-0.3l0.2-0.2l0.2-0.2l0.1-0.3l-0.2-0.2l-0.3-0.1l-0.5-1.1l-0.4-1.1
		l-5.4,1.1c-3.6,0.7-5.5,0.9-5.7,0.4c-0.3-0.5-2.6-0.5-7,0c-4.3,0.5-8.1,0.7-11.4,0.5l-4.9-0.2l-0.2-0.2l-0.3-0.1l-0.3-0.1l-0.2-0.2
		l-0.2-0.2l-0.3-0.1l-0.3-0.1l-0.2-0.2l-0.9-0.2l-0.9-0.2l-1.6,0.3l-0.1,0.3l-0.2,0.2l-0.5-2.3l0.2-0.2h0l0.1-0.3l0.7-0.5l0.7-0.5
		l0.1,0l2.3-0.1c0.2,0,0.5,0,0.7,0c0.1,0,0.2,0,0.3,0c0.8-0.1,1.7-0.2,2.7-0.3c0.4-0.1,0.7-0.1,1.1-0.2c0.3-0.1,0.7-0.1,1-0.2
		l3.5-0.7l0,0l-0.2-0.2l-0.3-0.1l-0.3-0.1l-0.2-0.2l-0.2-0.2l-0.3-0.1l-0.3-0.1l-0.2-0.2l-0.8-0.1c-0.5,0-0.9-0.3-1-0.8
		c-0.1-0.3,0-0.5,0.2-0.8c0.1-0.1,0.2-0.1,0.3-0.2c0.1-0.1,0.3-0.2,0.5-0.2l0,0h0c0.7-0.3,0.4-0.7-1.1-1.2c-1.5-0.5-1.8-1-1.1-1.5
		c0,0,0,0,0,0c0.7-0.6,1.3-1.9,1.9-3.9c0.5-2,5.2-4.4,14.2-7.2l13.5-4.1v0h0l0.1-0.3l0.2-0.2l0.2-0.2l0.1-0.3l-0.2-0.2l-0.3-0.1
		l-0.6-1.1l-0.6-1.1l-0.3-0.1l-0.2-0.2l-0.1-0.4l8.1,0.1c5.4,0.1,9.6,0.2,12.5,0.1c2.9-0.1,5.9,0.7,8.9,2.2
		c3,1.5,13.4,5.3,31.2,11.1c17.8,6,28.4,9.9,32.1,11.9c7.1,3.9,15.4,11,15.4,11c4.5,4.2,7.9,7.1,10.2,8.7c2.4,1.5,6.1,3,11.2,4.3
		s10.3,2.4,10.6,2.5l0.4,0.1l1.2-0.1l1.2,0l11.8,0.4c7.9,0.3,15.5,0.3,23,0.1c7.5-0.2,13.6,0.2,18.4,1.1s12.9,1.8,12.9,1.8l0,0h0
		L460.8,425.2z"/>
	<path class="st7" d="M280.6,391.7c-0.8,0-1.7,0-2.5,0.1C279,391.8,279.8,391.7,280.6,391.7z"/>
	<path class="st7" d="M314.5,400.5c-0.3,0.1-0.7,0.1-1.1,0.2C313.8,400.6,314.2,400.5,314.5,400.5z"/>
	<path class="st7" d="M439,430.9c0.2-0.1,0.3-0.2,0.5-0.3c0.4-0.3,0.9-0.6,1.4-0.8c-0.5,0.3-1,0.5-1.4,0.8
		C439.4,430.7,439.2,430.8,439,430.9z"/>
	<path class="st7" d="M454.4,426.2c-0.3,0.2-0.8,0.4-1.2,0.6C453.7,426.7,454.1,426.5,454.4,426.2z"/>
	<path class="st7" d="M455.3,425.5c-0.2,0.3-0.5,0.5-0.9,0.7C454.8,426,455.1,425.8,455.3,425.5c0.4-0.5,0.8-0.8,1.1-1.1
		C456.1,424.7,455.7,425.1,455.3,425.5z"/>
	<path class="st7" d="M307.6,401.1c0.3,0,0.7,0,1,0c1.9-0.1,3.5-0.3,4.7-0.5c-1.2,0.2-2.8,0.3-4.7,0.5
		C308.3,401.1,308,401.1,307.6,401.1z"/>
	<path class="st7" d="M298.9,394.2c0,0-0.1,0.1-0.1,0.1c0,0,0,0,0,0c0,0,0,0,0,0C298.9,394.2,298.9,394.2,298.9,394.2z"/>
	<path class="st7" d="M298.4,394c-0.2,0-0.6,0-1,0C297.9,394,298.2,394,298.4,394z"/>
	<path class="st7" d="M295,394.2c0.3,0,0.6,0,0.9,0c0.3,0,0.6-0.1,0.8-0.1c-0.3,0-0.5,0-0.8,0.1C295.7,394.2,295.4,394.2,295,394.2z
		"/>
	<polygon class="st7" points="316.9,400 316.9,400 316.1,400.1 	"/>
	<path class="st7" d="M414.4,425.3c0.3,0,0.7,0,1,0c0,0,0,0,0.1,0c0,0,0,0-0.1,0C415.1,425.3,414.7,425.3,414.4,425.3z"/>
	<path class="st7" d="M363.4,421.3c-2,0.6-6.7,0.7-9.6,1.3c-2.8,0.6-4.1-1.5-7.1-1.7c-3-0.2-6.8-1.1-11.3-2.7
		c4.5,1.6,8.1,2.3,10.6,2.2c2.5-0.1,4-0.2,4.5-0.3c0.5-0.1,1.7,0,3.5,0.2c1.8,0.3,4.2,0,7.2-1c2.9-1,4.4-1.3,4.6-0.9
		C365.8,418.6,365.3,420.8,363.4,421.3z"/>
	<path class="st7" d="M393.8,423.5c0.9,0,1.9-0.2,2.9-0.5c0.8-0.2,1.4-0.3,1.9-0.4c-0.5,0.1-1.1,0.2-1.9,0.4
		C395.7,423.3,394.8,423.4,393.8,423.5z"/>
	<path class="st7" d="M367.8,418.6c-0.5,0.2-1,0.4-1.3,0.4C366.8,419,367.2,418.9,367.8,418.6c1.1-0.5,2.8-0.9,5.1-1.3
		c1.1-0.1,2.1-0.2,3.1-0.2c-1,0-2,0-3.1,0.2C370.6,417.7,368.9,418.1,367.8,418.6z"/>
	<polygon class="st7" points="424.8,430.6 424.6,430.8 424.8,430.6 424.9,430.4 426.5,430.1 424.9,430.4 	"/>
	<path class="st7" d="M274.5,392.3c-0.1,0-0.2,0-0.3,0l-7.8,1.4h0l7.8-1.4C274.3,392.3,274.4,392.3,274.5,392.3z"/>
	<path class="st7" d="M244.1,363c-9,2.8-13.7,5.2-14.2,7.2c-0.6,2-1.2,3.3-1.9,3.9c0.7-0.6,0.9-2.4,1.3-2.5c0.5-0.1-0.2-1.9-1-2.4
		l-1.1-0.8l8.3-2.9c5.5-1.9,10.6-3.5,15.2-4.7l6.9-1.8v0L244.1,363z"/>
	<path class="st7" d="M229.7,377c0.1-0.1,0.3-0.2,0.5-0.2l0,0C230,376.8,229.8,376.9,229.7,377z"/>
	<path class="st7" d="M228.4,380.9c0.3-0.1,0.7-0.1,1-0.2l3.5-0.7l-3.5,0.7C229,380.8,228.7,380.9,228.4,380.9z"/>
	<path class="st7" d="M221.2,381.6l2.3-0.1c0.2,0,0.5,0,0.7,0c-0.3,0-0.5,0-0.7,0L221.2,381.6z"/>
	<path class="st7" d="M227.2,381.1c-1,0.2-1.9,0.3-2.7,0.3C225.3,381.4,226.2,381.3,227.2,381.1z"/>
	<path class="st7" d="M224.5,381.5c-0.1,0-0.2,0-0.3,0C224.3,381.5,224.4,381.5,224.5,381.5z"/>
	<path class="st8" d="M278.5,464.8l-0.8,0c-0.3,0-0.4-0.1-0.4-0.2c0,0,0,0,0-0.1c0-0.1,0.1-0.3,0.4-0.5c0.6-0.6,0.5-1.3-0.2-2.2
		c-0.7-0.9-1.3-2.2-1.8-3.7l-0.6-2.3l1.1-0.1l0.1,0l1.2,0l0.3-0.6c0-0.1,0.1-0.2,0.2-0.3c0.3-0.3,0.8-0.6,1.6-0.8
		c1-0.4,1.9-0.4,2.8,0c0.9,0.4,1.5,0.5,1.7,0.5c0.1,0,0.1,0,0.2,0c0.2,0,0.4,0,0.6,0.1c0.1,0,0.3,0.1,0.4,0.1l0.9,0.2l2-0.2l2-0.2
		l4.2,1.6c2.7,1.1,4.3,1.8,4.5,2.3c0.1,0.2,0.5,0.5,1.1,0.7c0.2,0.1,0.3,0.1,0.5,0.2c0.6,0.1,1.3,0.3,2.2,0.4c1,0.1,1.9,0.3,2.5,0.5
		c0.3,0.1,0.6,0.2,0.8,0.3s0.4,0.2,0.5,0.3c0.1,0.1,0.1,0.1,0.1,0.2c0.2,0.5,1.5,1,3.9,1.6c0.3,0.1,0.6,0.1,0.9,0.2
		c0.8,0.2,1.6,0.5,2.2,0.7c0.4,0.2,0.8,0.3,1.1,0.5c0.2,0.1,0.3,0.2,0.4,0.3c0.1,0.1,0.3,0.2,0.4,0.3c0.1,0.1,0.2,0.2,0.3,0.2
		c0.3,0.1,0.6,0.2,0.9,0.3c0.2,0,0.4,0,0.6,0c0.2,0,0.4,0,0.7,0c0.5-0.1,1-0.2,1.6-0.3c0.3-0.1,0.6-0.2,0.9-0.3s0.6-0.2,0.9-0.3
		c1.2-0.3,2.1-0.5,2.9-0.6c0.2,0,0.4,0,0.5,0c0.3,0,0.6,0,0.8,0.1c0.9,0.3,1.3,0.6,1.4,1.2c0,0.1,0.1,0.2,0.2,0.3
		c0.1,0.1,0.3,0.1,0.5,0.2c0.3,0.1,0.6,0.1,1,0.2s0.9,0,1.5,0c0.3,0,0.6,0,0.9,0c0.3,0,0.6,0,0.9-0.1c0.6,0,1.1-0.1,1.6-0.1
		c1.2,0,1.9,0,2.3,0.1c0.1,0,0.3,0.1,0.5,0.1c0.2,0,0.4,0,0.6,0c0.5,0,1-0.1,1.7-0.2l1.9-0.4l-0.2-0.2c0,0-0.1,0-0.1-0.1
		c-0.1-0.1-0.1-0.2-0.2-0.4c0-0.1-0.1-0.2-0.1-0.3c0-0.1,0-0.1,0-0.2s0-0.1,0-0.2c0.2-0.4,0.7-0.7,1.6-0.9l1.7-0.6l0.1-0.3
		c0.1-0.1-0.1-0.2-0.6-0.5c-0.1-0.1-0.3-0.2-0.5-0.2c-0.2-0.1-0.4-0.2-0.7-0.3l-1.9-0.8l0-0.8l0.1-0.8l0.2-0.2l0.1-0.3l18.7-3.4
		c8.6-1.6,14.7-2.6,18.5-3.2c1.7-0.3,3-0.4,3.7-0.5c0.3,0,0.7-0.1,1.1-0.1c0.7,0,1.6-0.1,2.6-0.1c0.7,0,1.5,0,2.4,0
		c0.4,0,0.9,0,1.4,0s1,0,1.5,0c1.6,0,3.3,0,5.2,0c2.6,0,5.4,0.1,8.7,0.1c6.4,0.1,11.2,0.2,14.5,0.2c0.6,0,1.2,0,1.7,0
		c0.5,0,0.9,0,1.3,0c0.5,0,0.9,0,1.2,0c0.4,0,0.6,0,0.7,0c0,0,0.1,0,0.1,0c0,0,0.1,0,0.2,0c0.1,0,0.2,0,0.3,0c0.2,0,0.5,0,0.9-0.1
		c0.2,0,0.4-0.1,0.7-0.1c0.3,0,0.7-0.1,1.1-0.2c1.2-0.2,2.7-0.4,4.5-0.7c-1.4,3.3,1,5,1,5c-6.2,19.3,6.8,11.4,6.8,11.4h0
		c1.6-0.2,3-0.4,4.2-0.6c0.6-0.1,1.2-0.2,1.7-0.3c0.5-0.1,1-0.2,1.4-0.2c0.6-0.1,1-0.2,1.4-0.3l2.3-0.5l-0.7,0.4
		c-0.1,0.1-0.2,0.1-0.3,0.2c0,0.1-0.1,0.1,0,0.2c0,0.3,0.2,0.6,0.6,1.1c0.5,0.6,1.2,1,1.9,1.3c0.3,0.1,0.5,0.2,0.8,0.3
		c1.1,0.3,1.2,0.7,0.3,1.3c-0.9,0.6-1.4,1.3-1.3,2.1c0,0.8-0.1,1.3-0.2,1.4l-0.1,0.3l-0.1,0.3l-0.2,0.2l-0.1,0.8l0,0.8l0.8,0
		l0.8,0.1l5.1-0.6c0.4-0.1,0.8-0.1,1.2-0.2c1-0.1,2-0.3,2.8-0.4c1.4-0.2,2.5-0.4,3.4-0.6l2.3-0.5l-0.5,0.7c-0.1,0.2-0.3,0.4-0.4,0.6
		c-0.1,0.1-0.1,0.1-0.1,0.2s-0.1,0.1-0.1,0.1l-0.1,0.2l0,0.1l0,0.1l-0.1,0.2l-0.2,0.2l-0.2,0.2l-0.1,0.3l1.2,0.1l1.2,0.1l0.7,0.4
		c0.4,0.3,0.6,0.8,0.6,1.3l0,0.8l-0.8,0.2l-11.3,2.1c-7.5,1.4-12.7,2.4-15.6,2.9c-2.8,0.6-8.9,2.8-18.1,6.5
		c-9.2,3.8-16.5,6.2-21.9,7.3c-5.4,1.1-27.5-3.7-66.4-14.4l-58.2-16.2l2.3-0.5L278.5,464.8z"/>
	<path class="st8" d="M423.7,450.7c0.2,0,0.5,0,0.9-0.1C424.2,450.6,423.9,450.7,423.7,450.7z"/>
	<path class="st8" d="M436.7,448.5l0.4-0.1l0.3-0.1C437.2,448.4,437,448.5,436.7,448.5z"/>
	<path class="st8" d="M437.2,448.4l0.5-0.1c-0.1,0-0.1,0-0.2,0L437.2,448.4z"/>
	<path class="st8" d="M284.9,454.4c-0.2-0.1-0.5-0.1-0.6-0.1C284.4,454.3,284.6,454.4,284.9,454.4z"/>
	<polygon class="st8" points="275,455.8 276.2,455.7 275,455.8 	"/>
	<path class="st8" d="M423.4,450.7c-0.1,0-0.1,0-0.2,0c0,0,0,0-0.1,0c0,0,0.1,0,0.1,0C423.3,450.7,423.3,450.7,423.4,450.7z"/>
	<path class="st8" d="M305.1,459.9c-0.6-0.2-1.5-0.3-2.5-0.5c-0.9-0.1-1.6-0.3-2.2-0.4c0.6,0.1,1.3,0.3,2.2,0.4
		C303.7,459.6,304.5,459.7,305.1,459.9z"/>
	<path class="st8" d="M305.1,459.9c0.3,0.1,0.6,0.2,0.8,0.3C305.7,460.1,305.4,460,305.1,459.9z"/>
	<path class="st8" d="M298.8,458.2c0.1,0.2,0.5,0.5,1.1,0.7C299.3,458.7,298.9,458.5,298.8,458.2c-0.3-0.5-1.8-1.3-4.5-2.3l-4.2-1.6
		l4.2,1.6C297,457,298.5,457.7,298.8,458.2z"/>
	<polygon class="st8" points="340,457.5 339.9,457.7 339.7,457.9 339.9,457.7 	"/>
	<path class="st8" d="M315.7,464.6c-0.1-0.1-0.2-0.2-0.3-0.2c-0.1-0.1-0.2-0.2-0.4-0.3c0.1,0.1,0.3,0.2,0.4,0.3
		C315.5,464.4,315.6,464.5,315.7,464.6z"/>
	<path class="st8" d="M326.9,464.6c0,0.1,0.1,0.2,0.2,0.3C327,464.8,326.9,464.7,326.9,464.6c-0.1-0.5-0.6-0.9-1.4-1.2
		c-0.2-0.1-0.5-0.1-0.8-0.1c0.3,0,0.6,0,0.8,0.1C326.3,463.7,326.8,464.1,326.9,464.6z"/>
	<path class="st8" d="M327.6,465c0.3,0.1,0.6,0.1,1,0.2C328.2,465.1,327.9,465.1,327.6,465z"/>
	<path class="st8" d="M328.6,465.2c0.4,0,0.9,0,1.5,0C329.6,465.2,329.1,465.2,328.6,465.2z"/>
	<path class="st8" d="M419.9,450.5c0.5,0,0.9,0,1.3,0C420.9,450.6,420.4,450.6,419.9,450.5z"/>
	<path class="st4" d="M561.5,383.3C561.5,383.3,561.5,383.3,561.5,383.3c-0.5,0.1-1,0.2-1.6,0.3c-7,1.5-12.2,3.7-15.8,5.7
		c-0.4,0.2-2.5,1.3-4.7,2.6c-1.6,0.9-3,1.7-4.3,2.7c-0.2,0.2-0.4,0.3-0.6,0.5c0,0,0,0,0,0c-2.5,2.1-6.7,4.7-12.5,7.8
		s-9.3,5.1-10.4,6.2c-1.1,1-1.7,1.9-1.6,2.6c0,0.7-0.1,1.3-0.3,1.8c-0.2,0.6-0.2,1.5-0.2,2.9c0,1.3-0.1,2.6-0.2,3.8
		c-0.2,1.3-1.9,3.3-5,6.1c-3.2,2.8-6,4.5-8.3,4.9c-0.3,0.1-0.6,0.1-0.8,0.1c-0.3,0-0.5,0-0.8,0.1c-0.4,0-0.7,0-1-0.1
		c-0.9-0.2-1.6-0.6-2-1.4c-0.7-1.4-1.6-2.2-2.9-2.5c-0.2-0.1-0.4-0.1-0.6-0.1c-0.2,0-0.3,0-0.5,0c-0.5,0.1-0.7,0.3-0.6,0.8
		c0.2,0.8-0.8,1.4-2.8,2c0,0,1.7-8.9-3.3-15.6c-4.9-6.7-15.4-4.5-15.4-4.5l13-3.5c8.3-1.7,14.1-3.6,17.6-5.8c3.5-2.2,6.1-4,7.8-5.3
		c1.8-1.3,4.2-2.3,7.3-3.1l4.6-1.1l5.8-1.3c3.8-0.9,8.9-3.6,15.1-7.9c6.3-4.4,11.7-9.2,16.4-14.4c4.8-5.1,8.1-8.3,10-9.5
		c1.9-1.2,5-2.1,9.1-2.7s8.3-0.3,8.8-0.2l0.9,0.2c0,0,4.9,1.8,4.5,4.3c-0.2,0.8-0.9,1.4-0.9,1.4l-3,4.4c-1.7,2.6-6.8,11-8.4,13.7
		c0,0-0.1,0-0.1,0C573.2,380.6,569.3,381.8,561.5,383.3z"/>
	<path class="st4" d="M482.9,430.2l-1.7,0C481.9,430.1,482.5,430.2,482.9,430.2z"/>
	<path class="st5" d="M435.7,448.7c0,0,0.1,0,0.1,0c0.2,0,0.5-0.1,0.7-0.1c0.1,0,0.2,0,0.2,0L435.7,448.7z"/>
	<path class="st5" d="M438.1,448.3c0,0,0.1,0,0.1,0c0,0,0,0,0,0L438.1,448.3z"/>
	<path class="st5" d="M459.5,429.8c0,0,0.1,0,0.2,0L459.5,429.8z"/>
	<path class="st5" d="M468.9,477.5l0.4-0.1l-0.3-1.6l-0.8,0l-0.8-0.1l-1.2-0.1l-1.2-0.1l0.1-0.3l0.2-0.2l0.2-0.2l0.1-0.2l0-0.1
		l0-0.1l0.1-0.2c0,0,0.1-0.1,0.1-0.1s0.1-0.1,0.1-0.2c0.1-0.2,0.2-0.4,0.4-0.6l0.5-0.7h0l-2.3,0.5c-0.8,0.2-2,0.4-3.4,0.6
		c-0.8,0.1-1.8,0.3-2.8,0.4c-0.4,0.1-0.8,0.1-1.2,0.2l-5.1,0.6l-0.8-0.1l-0.8,0l0-0.8l0.1-0.8l0.2-0.2l0.1-0.3l0.1-0.3
		c0.1-0.1,0.5-0.4,1.1-0.8c0.6-0.4,0.8-1,0.6-1.7s0-1.3,0.5-1.5c0.5-0.3,0.2-0.5-1-0.8c-0.3-0.1-0.6-0.2-0.8-0.3
		c-0.8-0.3-1.4-0.8-1.9-1.3c-0.4-0.5-0.6-0.8-0.6-1.1c0-0.1,0-0.2,0-0.2c0-0.1,0.1-0.2,0.3-0.2l0.7-0.4l-2.3,0.5
		c-0.4,0.1-0.9,0.2-1.4,0.3c-0.4,0.1-0.9,0.1-1.4,0.2c-0.5,0.1-1.1,0.2-1.7,0.3c-1.2,0.2-2.6,0.4-4.2,0.6l-6.3,0.9l1.5-0.7
		c1-0.5,1.6-1.4,1.9-2.6c0.3-1.2,0-1.8-0.7-1.6c-0.8,0.2-1.4-0.3-1.9-1.4c-0.5-1.1-0.9-3.1-1.2-5.9l-0.4-4.1l3.5-0.9l3.4-0.9
		l-0.1-0.4l0,0c0,0,0,0,0,0l0,0l9.5-1c0.1,0,0.2,0,0.2,0c2.2-0.2,4.3-0.4,6.2-0.7c0.2,0,0.4,0,0.5-0.1c1.2-0.2,2.4-0.3,3.5-0.5
		c0.2,0,0.4-0.1,0.6-0.1c0.7-0.1,1.4-0.2,2-0.3l0.1,0l0.2,0c0.9-0.2,1.7-0.3,2.5-0.5c0.1,0,0.2,0,0.3-0.1l6.6-1.3l-0.2-0.2
		c9.9-0.8,13.6-13.3,13.6-13.3h0c2-0.5,3-1.2,2.8-2c-0.1-0.5,0.1-0.8,0.6-0.8c0.1,0,0.3,0,0.5,0c0.2,0,0.4,0,0.6,0.1
		c1.3,0.3,2.3,1.1,2.9,2.5c0.4,0.7,1,1.2,2,1.4c0.3,0.1,0.6,0.1,1,0.1c0.2,0,0.5,0,0.8-0.1s0.5-0.1,0.8-0.1c2.3-0.5,5.1-2.1,8.3-4.9
		c3.2-2.8,4.9-4.8,5-6.1c0.1-1.2,0.2-2.5,0.2-3.8s0.1-2.3,0.2-2.9c0.2-0.6,0.2-1.2,0.3-1.8c0-0.7,0.5-1.6,1.6-2.6
		c1.1-1,4.6-3.1,10.4-6.2c5.8-3.1,10-5.7,12.5-7.8c0,0,0,0,0,0c0.2-0.2,0.4-0.3,0.6-0.5c1.2-0.9,2.8-1.8,4.3-2.7
		c1.5-0.8,3-1.6,4.7-2.6c0.7-0.4,8.5-4,15.8-5.7c0.5-0.1,1-0.2,1.6-0.3c0,0,0,0,0,0c7.8-1.5,11.2-2.3,11.9-3.2
		c0.1-0.1,0.2-0.4,0.5-0.8c1-0.2,3.7,1.5,6.9,3.5c3.4,2,5.2,3.2,5.6,3.7l0.5,0.7c0,0,0.3,0.4,0.5,1.1c0.2,0.7-0.4,1.4-0.4,1.4
		c-0.5,0.3-1.4,1.1-2.7,2.4l-15.6,16.4c-8,6.9-14.2,12.1-18.6,15.7s-10.1,9.2-17.2,16.8s-11.9,12.9-14.5,15.9s-5.4,5.2-8.3,6.7
		c-2.9,1.6-17.5,6.5-27.1,9.8l-14.3,5l0.1-0.4L468.9,477.5z"/>
	<path class="st5" d="M442.8,465.3c0.6-0.1,1.2-0.2,1.7-0.3C444,465.1,443.4,465.2,442.8,465.3z"/>
	<path class="st5" d="M487.7,427.4c-0.2,0-0.3,0-0.5,0C487.4,427.4,487.5,427.4,487.7,427.4z"/>
	<path class="st5" d="M432.4,449.3c0.1,0,0.1,0,0.2,0c0,0,0,0,0.1,0L432.4,449.3z"/>
	<path class="st5" d="M433.3,449.1C433.4,449.1,433.4,449.1,433.3,449.1c0.3-0.1,0.5-0.1,0.7-0.1L433.3,449.1z"/>
	<path class="st5" d="M433.4,449.1l0.8-0.2l-0.2,0C433.8,449.1,433.6,449.1,433.4,449.1z"/>
	<path class="st5" d="M464.3,444.9L464.3,444.9c0,0,0.3-0.1,0.7-0.2c0.1,0,0.1,0,0.2,0l0.9-0.2c0.2,0,0.3-0.1,0.5-0.1
		c0.3-0.1,0.7-0.2,1.1-0.3c0,0,0.1,0,0.1,0l2-0.5c0.2,0,0.4-0.1,0.5-0.1h0l0.2,0.2l-6.6,1.3c-0.1,0-0.2,0-0.3,0.1
		c0.1,0,0.2,0,0.3-0.1L464.3,444.9z"/>
	<path class="st5" d="M447.8,447.3c0.1,0,0.2,0,0.2,0C447.9,447.2,447.9,447.3,447.8,447.3l-9.5,1l0,0c0,0,0,0,0,0L447.8,447.3z"/>
	<path class="st5" d="M465.5,474.5l0.1-0.2c0,0,0.1-0.1,0.1-0.1c0,0.1-0.1,0.1-0.1,0.1L465.5,474.5z"/>
	<polygon class="st5" points="466.2,473.4 466.7,472.7 466.7,472.7 	"/>
	<polygon class="st5" points="450.2,474.1 450.3,473.2 450.5,473 450.3,473.2 	"/>
	<path class="st5" d="M452.9,468.5c-0.5,0.2-0.7,0.7-0.5,1.5s0,1.4-0.6,1.7c-0.6,0.4-1,0.7-1.1,0.8c0.1-0.1,0.2-0.6,0.2-1.4
		c-0.1-0.8,0.4-1.5,1.3-2.1c1-0.6,0.9-1-0.3-1.3C453.1,468,453.4,468.2,452.9,468.5z"/>
	<polygon class="st5" points="465.2,475 465.4,474.8 465.5,474.7 465.4,474.8 	"/>
	<polygon class="st5" points="464.9,475.5 465,475.2 465.2,475 465,475.2 	"/>
	<path class="st5" d="M451.1,467.4c-0.8-0.3-1.4-0.8-1.9-1.3c-0.4-0.5-0.6-0.8-0.6-1.1c0,0.3,0.2,0.6,0.6,1.1
		C449.7,466.6,450.4,467.1,451.1,467.4z"/>
	<path class="st5" d="M432.4,449.3l0.3-0.1l0.7-0.1l0.7-0.1c0.5-0.1,0.9-0.2,1.3-0.2l0.2,0l0.2,0l1-0.2c0.3-0.1,0.5-0.1,0.8-0.1
		l0.4-0.1c0.1,0,0.1,0,0.2,0l0.1,0l0,0l0,0l0.1,0.4l-3.4,0.9l-3.5,0.9l0.4,4.1c0.3,2.8,0.7,4.8,1.2,5.9c0.5,1.1,1.1,1.5,1.9,1.4
		c0.8-0.2,1,0.4,0.7,1.6c-0.3,1.3-0.9,2.2-1.9,2.6l-1.5,0.7l6.3-0.9c0,0-13,7.9-6.8-11.4c0,0-2.4-1.7-1-5l0.9-0.2
		C432,449.4,432.2,449.4,432.4,449.3z"/>
	<path class="st5" d="M435.4,448.8L435.4,448.8L435.4,448.8C435.4,448.8,435.4,448.8,435.4,448.8z"/>
	<path class="st5" d="M437.5,448.4c0.1,0,0.2,0,0.2,0c0.1,0,0.1,0,0.2,0L437.5,448.4z"/>
	<path class="st5" d="M431.8,449.4l-0.9,0.2L431.8,449.4C431.7,449.4,431.7,449.4,431.8,449.4z"/>
	<path class="st5" d="M437.7,448.3l0.4-0.1c-0.1,0-0.1,0-0.2,0C437.8,448.3,437.8,448.3,437.7,448.3z"/>
	<path class="st5" d="M431.7,449.4l0.7-0.1C432.2,449.4,432,449.4,431.7,449.4C431.7,449.4,431.7,449.4,431.7,449.4z"/>
	<path class="st5" d="M434.2,449l1.2-0.2c0,0-0.1,0-0.1,0L434.2,449z"/>
	<path class="st5" d="M434,449l0.2,0l1.1-0.2C434.9,448.9,434.5,448.9,434,449z"/>
	<path class="st5" d="M468.1,476.2l-0.7-0.4l-1.2-0.1l1.2,0.1l0.8,0.1l0.8,0l0.3,1.6l-0.4,0.1l-0.2,0.4l-0.1,0.4l0-0.8
		C468.7,477,468.5,476.6,468.1,476.2z"/>
	<path class="st5" d="M486.7,428.2c-0.1-0.5,0.1-0.8,0.6-0.8C486.8,427.5,486.6,427.7,486.7,428.2c0.2,0.8-0.8,1.4-2.8,2h0
		C485.9,429.7,486.8,429,486.7,428.2z"/>
	<path class="st5" d="M561.5,383.3C561.5,383.3,561.5,383.3,561.5,383.3C561.5,383.3,561.5,383.3,561.5,383.3
		c7.8-1.5,11.7-2.7,12.2-4c0,0,0.1,0,0.1,0c-0.2,0.4-0.4,0.7-0.5,0.8C572.7,381,569.3,381.8,561.5,383.3z"/>
	<path class="st5" d="M535,394.6c1.3-1,2.7-1.9,4.3-2.7C537.8,392.7,536.2,393.7,535,394.6z"/>
	<path class="st5" d="M504.1,426.3c3.2-2.8,4.9-4.8,5-6.1c0.1-1.2,0.2-2.5,0.2-3.8c0-1.3,0.1-2.3,0.2-2.9c0.2-0.6,0.2-1.2,0.3-1.8
		c0-0.7,0.5-1.6,1.6-2.6c1.1-1,4.6-3.1,10.4-6.2s10-5.7,12.5-7.8c0,0,0,0,0,0c0,0,0,0,0,0c-2.5,2.1-6.7,4.7-12.5,7.8
		c-5.8,3.1-9.3,5.1-10.4,6.2c-1.1,1-1.7,1.9-1.6,2.6c0,0.7-0.1,1.3-0.3,1.8c-0.2,0.6-0.2,1.5-0.2,2.9s-0.1,2.6-0.2,3.8
		C508.9,421.4,507.3,423.5,504.1,426.3c-3.2,2.8-6,4.5-8.3,4.9c-0.3,0.1-0.6,0.1-0.8,0.1c0.3,0,0.5-0.1,0.8-0.1
		C498.1,430.7,500.9,429.1,504.1,426.3z"/>
	<path class="st5" d="M544.1,389.3c3.6-2,8.9-4.2,15.8-5.7C552.6,385.2,544.8,388.9,544.1,389.3z"/>
	<polygon class="st7" points="464.2,417.7 464,417.9 463.9,418 464,417.9 	"/>
	<polygon class="st7" points="470.4,425.7 469.3,426.1 467.8,426.8 469.3,426.1 	"/>
	<polygon class="st7" points="464.8,428.7 464.5,428.3 464.2,428.2 464,428 463.8,427.8 463.6,427.7 463,427 462.5,426.3
		462.2,426.2 462,426 461.8,425.8 461.5,425.7 461.3,425.6 461.1,425.4 460.9,425.2 460.8,425.2 460.8,425.2 460.9,425.2
		461.1,425.4 461.3,425.6 461.5,425.7 461.8,425.8 462,426 462.2,426.2 462.5,426.3 463,427 463.6,427.7 463.8,427.8 464,428
		464.2,428.2 464.5,428.3 464.8,428.7 465,429 465,429 465,429 	"/>
	<path class="st7" d="M462.7,429.3C462.8,429.3,462.8,429.3,462.7,429.3l0.4,0.1L462.7,429.3C462.8,429.3,462.8,429.3,462.7,429.3z"
		/>
	<path class="st7" d="M464.6,429.8c-0.2,0-0.5,0-0.7,0l-0.1,0c-0.2-0.1-0.4-0.2-0.4-0.3l-0.3-0.1l-0.3-0.1c0,0,0,0-0.1,0
		c0,0-0.1,0-0.2,0c-0.1,0-0.3,0-0.4,0c-0.4,0-0.9,0.1-1.5,0.2c-0.3,0.1-0.7,0.1-1.1,0.2l1.3-4.6l0,0l0.2,0.2l0.2,0.2l0.3,0.1
		l0.3,0.1l0.2,0.2l0.2,0.2l0.3,0.1l0.5,0.7l0.5,0.7l0.3,0.1l0.2,0.2l0.2,0.2l0.3,0.1l0.3,0.3l0.2,0.4v0
		C465,429,464.4,429.4,464.6,429.8z"/>
	<path class="st7" d="M464.5,428.3l-0.3-0.1L464,428l-0.2-0.2l-0.3-0.1L463,427l-0.5-0.7l-0.3-0.1L462,426l-0.2-0.2l-0.3-0.1
		l-0.3-0.1l-0.2-0.2l-0.2-0.2l0,0l4.3-15.2l0.9,0.6l0.2,0.2l0.3,0.1l0.3,0.1l0.2,0.2l0.2,0.2l0.3,0.1l0.3,0.1l0.2,0.2l0.9,0.2
		l0.9,0.2l0.8,0.1l0.8,0l0,0.8l-0.1,0.8l-0.2,0.2l-0.1,0.3l-3,1l-3,1l-0.1,0.3l-0.2,0.2l-0.2,0.2l-0.1,0.3l-0.1,0.3l-0.2,0.2
		l-0.1,0.1l-0.1,0.1l-0.1,0.3l0.9,0.2l0.9,0.2l0.2,0.2l0.3,0.1l0.3,0.1l0.2,0.2l2.2,0.8c0.7,0.3,1.4,0.5,1.9,0.6
		c0.3,0.1,0.6,0.1,0.8,0.2s0.5,0.1,0.7,0.1l1.2,0.1l-0.7,0.5l-0.7,0.5l0.9,0.2l0.9,0.2l-1.1,0.5l-1.1,0.4l0.3,1.6l-1.1,0.4l-1.1,0.5
		l-1.5,0.7c-1,0.5-1.7,0.9-2.1,1.4L465,429l-0.2-0.4L464.5,428.3z"/>
	<path class="st7" d="M480.6,414.5c4.9,6.7,3.3,15.6,3.3,15.6l-0.2,0c-0.1,0-0.1,0-0.2,0c-0.1,0-0.3,0-0.5,0c-0.4,0-1,0-1.7,0
		l-0.5,0c-0.4,0-0.7,0-1.1,0l-0.8,0c-0.5,0-1,0-1.5,0l-1.7,0c-0.3,0-0.7,0-1,0l-1.1,0c-0.6,0-1.1,0-1.7,0l-1.7,0c-0.4,0-0.8,0-1.2,0
		l-1,0c-0.6,0-1.2,0-1.7,0l-0.9,0L465,429l0,0l0.6-0.8c0.4-0.5,1.2-0.9,2.1-1.4l1.5-0.7l1.1-0.5l1.1-0.4l-0.3-1.6l1.1-0.4l1.1-0.5
		l-0.9-0.2l-0.9-0.2l0.7-0.5l0.7-0.5l-1.2-0.1c-0.2,0-0.4-0.1-0.7-0.1s-0.5-0.1-0.8-0.2c-0.6-0.2-1.2-0.4-1.9-0.6l-2.2-0.8l-0.2-0.2
		l-0.3-0.1l-0.3-0.1l-0.2-0.2l-0.9-0.2l-0.9-0.2l0.1-0.3l0.1-0.1l0.1-0.1l0.2-0.2l0.1-0.3l0.1-0.3l0.2-0.2l0.2-0.2l0.1-0.3l3-1l3-1
		l0.1-0.3l0.2-0.2l0.1-0.8l0-0.8l-0.8,0l-0.8-0.1l-0.9-0.2l-0.9-0.2l-0.2-0.2l-0.3-0.1l-0.3-0.1l-0.2-0.2l-0.2-0.2l-0.3-0.1
		l-0.3-0.1l-0.2-0.2l-0.2-0.2l-0.3-0.1l-0.5-0.3C465.2,410,475.7,407.8,480.6,414.5z"/>
	<path class="st7" d="M464.6,429.8c-0.1-0.4,0.5-0.8,0.5-0.8l0.2,0.8l-0.5,0C464.7,429.8,464.6,429.8,464.6,429.8z"/>
	<polygon class="st7" points="466.1,419.3 465.9,419.2 465.6,419.1 465.4,418.9 465.6,419.1 465.9,419.2 466.1,419.3 466.3,419.5
		468.5,420.2 466.3,419.5 	"/>
	<polygon class="st7" points="463.9,418 463.8,418.1 463.7,418.4 463.8,418.1 	"/>
	<polygon class="st7" points="466.1,410.6 466.3,410.8 466.6,410.9 466.3,410.8 	"/>
	<polygon class="st7" points="465.9,410.4 466.1,410.6 465.2,410 465.2,410 465.7,410.3 	"/>
	<polygon class="st7" points="466.6,410.9 466.9,411 467.1,411.2 466.9,411 	"/>
	<polygon class="st7" points="471.2,423.7 471.5,425.3 470.4,425.7 471.5,425.3 	"/>
	<path class="st7" d="M473.2,421.3l-1.2-0.1c-0.2,0-0.4-0.1-0.7-0.1c0.2,0.1,0.5,0.1,0.7,0.1L473.2,421.3l-0.7,0.5l-0.7,0.5l0.7-0.5
		L473.2,421.3z"/>
	<polygon class="st7" points="471.3,412.4 471.3,413.2 471.3,414 471.3,413.2 	"/>
	<polygon class="st7" points="469.7,412.3 468.8,412.1 468,411.9 467.8,411.7 468,411.9 468.8,412.1 469.7,412.3 470.5,412.4
		471.3,412.4 470.5,412.4 	"/>
	<polygon class="st7" points="467.1,411.2 467.3,411.4 467.5,411.6 467.3,411.4 	"/>
	<polygon class="st7" points="464.8,416.8 464.6,417 464.4,417.2 464.6,417 	"/>
	<polygon class="st7" points="467.9,415.5 471,414.5 471.1,414.2 471,414.5 467.9,415.5 464.9,416.5 464.8,416.8 464.9,416.5 	"/>
	<path class="st7" d="M462.1,429.3c0.2,0,0.3,0,0.4,0c0.1,0,0.1,0,0.2,0c0,0,0.1,0,0.1,0l0.3,0.1l0.2,0.4l-0.5,0c-0.2,0-0.4,0-0.6,0
		l-1.7,0l-0.5,0l-0.2,0c-0.1,0-0.2,0-0.2,0c0.4-0.1,0.7-0.1,1.1-0.2C461.2,429.4,461.7,429.3,462.1,429.3z"/>
	<path class="st7" d="M462.1,429.3c-0.4,0-0.9,0.1-1.5,0.2C461.2,429.4,461.7,429.3,462.1,429.3z"/>
	<path class="st7" d="M459.5,429.8L459.5,429.8c0.4-0.1,0.7-0.1,1.1-0.2C460.3,429.6,459.9,429.7,459.5,429.8z"/>
	<path class="st7" d="M463.4,429.5c0,0,0.2,0.2,0.4,0.3l-0.5,0l-0.2-0.4L463.4,429.5z"/>
	<path class="st6" d="M481.8,430.6c-2.1,0.3-5,0.3-8.7,0.2l-7.7-0.2l7.7,0.2C476.8,430.9,479.7,430.8,481.8,430.6z"/>
	<path class="st6" d="M461.1,445.5L461.1,445.5c-0.1,0-0.2,0-0.2,0l0,0C460.9,445.6,461,445.6,461.1,445.5z"/>
	<path class="st6" d="M455.7,432.6l1.5,6.3l0.2,0.2l0.2,0.2l0.3,0.1l1.3,1.2c0.2,0.2,0.4,0.4,0.7,0.5c0.8,0.4,1.7,0.6,2.9,0.6h0h0
		c0,0,1.7-0.1,2.6,0.1c1.2,1.5,4.4,1.5,4.4,1.5l0.3,0.1l0.3,0.1c-0.1,0-0.3,0.1-0.5,0.1c-0.6,0.1-1.3,0.3-2,0.5c0,0-0.1,0-0.1,0
		c-0.4,0.1-0.7,0.2-1.1,0.3c-0.2,0-0.3,0.1-0.5,0.1c-0.4,0.1-0.7,0.2-0.9,0.2c-0.1,0-0.1,0-0.2,0l-0.7,0.2l-3.3,0.6
		c-0.1,0-0.2,0-0.2,0l-3.9,0.5l-1.7-14.7l4.3-1.7l-3.6,2L455.7,432.6z"/>
	<path class="st6" d="M464.9,430.5c-0.2-0.1-0.8-0.4-1.2-0.7l0.1,0c0.2,0,0.5,0,0.7,0c0,0,0,0.1,0,0.1c0.4,0.6,0.8,0.6,0.8,0.6h0
		L464.9,430.5z"/>
	<path class="st6" d="M473.1,430.8l-7.7-0.2l-0.1-0.7l0.9,0c0.5,0,1.1,0,1.7,0l1,0c0.4,0,0.8,0,1.2,0l1.7,0c0.6,0,1.1,0,1.7,0l1.1,0
		c0.3,0,0.7,0,1,0l1.7,0c0.5,0,1,0,1.5,0l0.8,0c0.4,0,0.8,0,1.1,0l0.5,0l1.7,0l0.5,0c0.1,0,0.2,0,0.2,0c0.1,0,0.2,0,0.2,0
		c-0.6,0.2-1.3,0.3-2.1,0.4C479.7,430.8,476.8,430.9,473.1,430.8z"/>
	<path class="st6" d="M464.6,429.9C464.6,429.9,464.6,429.9,464.6,429.9c0-0.1,0.1-0.1,0.1-0.1l0.5,0l0.1,0.7
		C465.4,430.6,464.9,430.5,464.6,429.9z"/>
	<path class="st6" d="M460.9,445.6L460.9,445.6c0,0,0.1,0,0.2,0L460.9,445.6z"/>
	<path class="st6" d="M469.7,443.3l-0.2-0.2l-1.2-0.1l-1.2-0.1l-0.2-0.2l-0.3-0.1l-0.3-0.1l-0.2-0.2l-0.2-0.2l-0.3-0.1l-0.3-0.1
		l-0.2-0.2l-2.4,0.1h0h0c-1.2,0-2.2-0.1-2.9-0.6c-0.3-0.1-0.5-0.3-0.7-0.5l-1.3-1.2l-0.3-0.1l-0.2-0.2l-0.2-0.2l-1.5-6.3l0.2-0.9
		l3.6-2l0.2,0l0.2,0c0.1,0,0.3,0,0.5,0c0.4,0,1,0,1.7,0c0.2,0,0.4,0,0.6,0l0.5,0l0.2,0.3l0.3,0.7l1.6-0.3l7.7,0.2
		c3.7,0.1,6.6,0.1,8.7-0.2c0.8-0.1,1.5-0.2,2.1-0.4c0,0-3.7,12.5-13.6,13.3l-0.3-0.1L469.7,443.3z"/>
	<path class="st6" d="M460,429.8l0.5,0C460.3,429.8,460.1,429.8,460,429.8z"/>
	<polygon class="st6" points="455.9,431.7 459.5,429.8 459.5,429.8 	"/>
	<path class="st6" d="M465.2,444.7c0.3-0.1,0.6-0.1,0.9-0.2L465.2,444.7z"/>
	<path class="st6" d="M464.9,430.5l0.4,0.1h0l-1.6,0.3l-0.3-0.7l-0.2-0.3l0.5,0C464.2,430.1,464.7,430.4,464.9,430.5z"/>
	<path class="st6" d="M464.3,444.9L464.3,444.9l0.7-0.2C464.6,444.8,464.3,444.9,464.3,444.9z"/>
	<path class="st6" d="M465.4,441.7c-0.9-0.2-2.6-0.1-2.6-0.1l2.4-0.1L465.4,441.7l0.3,0.1l0.3,0.1l0.2,0.2l0.2,0.2l0.3,0.1l0.3,0.1
		l0.2,0.2l1.2,0.1l1.2,0.1l0.2,0.2C469.7,443.3,466.6,443.2,465.4,441.7z"/>
	<path class="st6" d="M467.8,444.1c0.7-0.2,1.4-0.4,2-0.5L467.8,444.1z"/>
	<polygon class="st6" points="470,443.4 469.7,443.3 470,443.4 470.3,443.5 470.3,443.5 	"/>
	<polygon class="st6" points="457.2,438.9 455.7,432.6 455.9,431.7 455.7,432.6 457.2,438.9 457.4,439.1 457.6,439.3 457.4,439.1
		"/>
	<path class="st6" d="M457.9,439.4l-0.3-0.1L457.9,439.4l1.3,1.2c0.2,0.2,0.4,0.4,0.7,0.5c-0.3-0.1-0.5-0.3-0.7-0.5L457.9,439.4z"/>
	<path class="st6" d="M483.4,430.2l-0.5,0C483.1,430.2,483.3,430.2,483.4,430.2z"/>
	<path class="st6" d="M483.9,430.2c0,0-0.1,0-0.2,0L483.9,430.2z"/>
	<path class="st6" d="M460.5,429.8l1.7,0C461.5,429.8,460.9,429.8,460.5,429.8z"/>
</g>
<g>
	<path class="st1" d="M702.7,88.1c0.3-0.5,0.7-1.1,1.2-1.7C703.4,87.1,703,87.7,702.7,88.1z"/>
	<path class="st4" d="M702.2,88.9c0.1-0.2,0.3-0.5,0.5-0.8C702.5,88.4,702.3,88.7,702.2,88.9z"/>
	<path class="st4" d="M703.9,86.4c3-4.1,8.6-10.7,10-10.7C709.2,80.2,705.9,83.8,703.9,86.4z"/>
	<path class="st1" d="M702.2,88.9c0.1-0.2,0.3-0.5,0.5-0.8C702.5,88.4,702.3,88.7,702.2,88.9z"/>
	<path class="st1" d="M703.9,86.4c3-4.1,8.6-10.7,10-10.7C709.2,80.2,705.9,83.8,703.9,86.4z"/>
	<path class="st1" d="M702.7,88.1c0.3-0.5,0.7-1.1,1.2-1.7C703.4,87.1,703,87.7,702.7,88.1z"/>
	<path class="st1" d="M417.3,139.6l-0.3,0.1c0,0,0.1,0,0.1,0L417.3,139.6z"/>
	<path class="st1" d="M313.4,196.5c-2.2,1.3-4.4,2.3-4.7,2.6C310.4,198.2,312,197.3,313.4,196.5z"/>
	<path class="st1" d="M364.4,160.9c-1.3-0.3-2.3-1.1-2.9-2.5c-0.4-0.7-1-1.2-2-1.4c0.9,0.2,1.6,0.6,2,1.4
		C362.2,159.8,363.2,160.6,364.4,160.9c0.2,0.1,0.4,0.1,0.6,0.1C364.9,161,364.7,160.9,364.4,160.9z"/>
	<path class="st1" d="M420.1,139.1C420.1,139.1,420.2,139.1,420.1,139.1l-0.7,0.1c0,0,0,0,0.1,0L420.1,139.1z"/>
	<path class="st1" d="M416.3,139.8l-0.7,0.1l0.4-0.1C416.1,139.8,416.2,139.8,416.3,139.8z"/>
	<polygon class="st1" points="387.3,113.7 387.3,113.8 387.2,113.9 387.3,113.8 	"/>
	<path class="st1" d="M414.6,140.1L414.6,140.1C414.5,140.1,414.5,140.1,414.6,140.1L414.6,140.1
		C414.6,140.1,414.6,140.1,414.6,140.1z"/>
	<path class="st1" d="M386,115.7l2.3-0.5c0.8-0.2,2-0.4,3.4-0.6c-1.4,0.2-2.5,0.4-3.4,0.6L386,115.7z"/>
	<path class="st1" d="M470.7,138.2c-0.7,0-1.6,0.1-2.6,0.1C469.1,138.2,470,138.2,470.7,138.2z"/>
	<path class="st1" d="M470.7,138.2c0.5,0,0.8,0,1.1-0.1c0.7-0.1,2-0.2,3.7-0.5c-1.7,0.3-3,0.4-3.7,0.5
		C471.5,138.1,471.1,138.1,470.7,138.2z"/>
	<path class="st1" d="M468.1,138.2c-0.7,0-1.5,0-2.4,0C466.6,138.2,467.3,138.2,468.1,138.2z"/>
	<path class="st1" d="M414.1,122.4L414.1,122.4c-1.6,0.2-3,0.4-4.2,0.6C411.1,122.9,412.5,122.7,414.1,122.4z"/>
	<path class="st1" d="M546,187.2c0.4,0,0.8,0,1.1,0C546.8,187.2,546.4,187.2,546,187.2z"/>
	<path class="st1" d="M548.8,187.8c0.3,0.5,0.8,0.8,1.5,0.9c0.7,0.1,1.6,1,2.7,2.7c1.1,1.6,1.4,2.5,1,2.8c0.4-0.2,0.1-1.2-1-2.8
		c-1.1-1.7-2.1-2.5-2.7-2.7C549.5,188.5,549,188.2,548.8,187.8c-0.1-0.3-0.7-0.5-1.6-0.5C548.1,187.3,548.7,187.5,548.8,187.8z"/>
	<path class="st1" d="M448.3,164.3c2.8,0.2,4.3,0.6,4.4,1.1c0,0.2,0.2,0.3,0.5,0.4c-0.3,0-0.5-0.2-0.5-0.4
		C452.7,164.9,451.2,164.5,448.3,164.3c-2.9-0.2-5.1-0.5-6.6-0.8c-1.2-0.3-2.3-0.4-3.3-0.4c1,0,2.2,0.2,3.3,0.4
		C443.2,163.8,445.4,164.1,448.3,164.3z"/>
	<path class="st1" d="M432.6,159.5c0.3,1.3,0.8,2,1.5,2.1c0.7,0.1,1.1,0.5,1.2,1c0.1,0.5,0.8,0.7,2.1,0.5c-1.3,0.1-2,0-2.1-0.5
		c-0.1-0.5-0.5-0.8-1.2-1C433.3,161.5,432.8,160.7,432.6,159.5c-0.3-1.3-4.4-1.9-4.4-1.9l0,0C428.1,157.5,432.3,158.2,432.6,159.5z"
		/>
	<path class="st1" d="M464.8,166.8c0.4,0.6,1.6,1.2,3.6,2c2.1,0.8,3.9,1.5,5.6,1.9c0.9,0.2,1.8,0.4,2.7,0.4c-1,0-1.9-0.2-2.7-0.4
		c-1.7-0.5-3.6-1.1-5.6-1.9C466.4,168.1,465.2,167.4,464.8,166.8c-0.4-0.6-1.4-1.2-3.2-1.6c-0.9-0.2-1.7-0.3-2.7-0.3
		c0.9,0,1.8,0.1,2.7,0.3C463.3,165.7,464.4,166.2,464.8,166.8z"/>
	<path class="st1" d="M423.7,157.6l2.6,0.7h0L423.7,157.6c-1.7-0.5-2.6-0.8-2.8-0.9c-0.1,0-0.8-0.1-1.9-0.1c1.1,0,1.8,0.1,1.9,0.1
		C421.1,156.9,422,157.2,423.7,157.6z"/>
	<path class="st1" d="M486.8,169.8C486.8,169.8,486.8,169.8,486.8,169.8C486.8,169.8,486.8,169.8,486.8,169.8
		c-0.1-0.3-0.2-0.4-0.5-0.4C486.6,169.4,486.7,169.5,486.8,169.8z"/>
	<path class="st1" d="M392.2,163.3l0.3,0.1l0.2,0.2l0.2,0.2l0.3,0.1l0.3,0.1l0.2,0.2l0.2,0.2c0.1,0.1,0.4,0.1,0.8,0.1
		c-0.4,0-0.7,0-0.8-0.1l-0.2-0.2l-0.2-0.2l-0.3-0.1l-0.3-0.1l-0.2-0.2l-0.2-0.2L392.2,163.3l-0.2-0.1v0L392.2,163.3z"/>
	<path class="st1" d="M406.1,160.4c-0.6,0.1-1.2,0.2-1.8,0.2c-0.4,0-0.8,0.1-1.1,0.1c0.4,0,0.7-0.1,1.1-0.1
		C404.9,160.6,405.5,160.5,406.1,160.4z"/>
	<path class="st1" d="M395.4,164.4c-0.1,0-0.2,0.1-0.3,0.1c-0.2,0-0.3,0-0.5,0c0.1,0,0.3,0,0.5,0
		C395.2,164.5,395.3,164.4,395.4,164.4z"/>
	<path class="st1" d="M391.9,142.8c0.6-0.1,1.3-0.2,2-0.3C393.3,142.6,392.6,142.7,391.9,142.8L391.9,142.8z"/>
	<path class="st1" d="M389.2,143.3c0.8-0.2,1.6-0.3,2.5-0.5l0,0C390.8,143,390,143.1,389.2,143.3z"/>
	<path class="st1" d="M572.1,196.6c-2.4,0-4.6-0.3-6.6-1c-0.8-0.3-1.5-0.5-2.2-0.7c0.7,0.2,1.4,0.4,2.2,0.7
		C567.5,196.3,569.7,196.6,572.1,196.6z"/>
	<path class="st1" d="M559.5,194.2c1.2,0.1,2.5,0.4,3.9,0.7C562,194.6,560.7,194.3,559.5,194.2z"/>
	<path class="st1" d="M554.3,194.3c-0.4,0-0.5,0-0.5-0.1C553.8,194.3,554,194.3,554.3,194.3z"/>
	<path class="st1" d="M523.7,173.1c-0.4,0.3-0.4,0.8-0.2,1.3c0.3,0.5,1.4,1.2,3.3,2.1c1.9,1,3.1,2.7,3.7,5.3
		c0.5,2.6,1.7,3.6,3.4,2.9s2.7-0.7,2.8-0.2c0.1,0.5-0.3,1.2-1.2,2l-1.3,1.3l0.9,0.2l0.9,0.2h0l-0.9-0.2l-0.9-0.2l1.3-1.3
		c0.9-0.8,1.3-1.5,1.2-2s-1-0.5-2.8,0.2c-1.8,0.6-2.9-0.3-3.4-2.9c-0.5-2.6-1.8-4.4-3.7-5.3c-2-0.9-3.1-1.7-3.3-2.1
		C523.2,173.9,523.3,173.5,523.7,173.1c0.3-0.3-1.8-1.3-6.3-3c0,0,0,0,0,0c0,0,0,0,0,0C521.9,171.8,524,172.8,523.7,173.1z"/>
	<path class="st1" d="M538.2,187.9c-0.2,0-0.3,0.1-0.5,0.1l-1.1,0.2l1.1-0.2C537.9,188,538.1,187.9,538.2,187.9z"/>
	<path class="st1" d="M513.1,128.8l0,0.8L513.1,128.8l-1.9-0.8c-0.3-0.1-0.5-0.2-0.7-0.3c0.2,0.1,0.4,0.2,0.7,0.3L513.1,128.8z"/>
	<path class="st1" d="M575.1,123.6c0.3,0,0.4,0.1,0.4,0.2C575.5,123.7,575.3,123.6,575.1,123.6z"/>
	<path class="st1" d="M623.6,212.8c-1.5-0.5-1.8-0.9-1.1-1.2h0C621.8,211.9,622.2,212.3,623.6,212.8c1.5,0.5,1.8,1,1.1,1.5
		c0,0,0,0,0,0c0,0,0,0,0,0C625.5,213.9,625.1,213.3,623.6,212.8z"/>
	<polygon class="st1" points="576.5,132.6 576.6,132.6 576.5,132.6 575.3,132.7 575,133.3 575.3,132.7 	"/>
	<polygon class="st1" points="632.4,206.2 633.1,205.6 633.2,205.4 633.2,205.4 633.1,205.6 632.4,206.2 631.7,206.7 631.6,206.7
		631.7,206.7 	"/>
	<path class="st1" d="M575.3,126.6c0.7,0.9,1.3,2.2,1.8,3.7l0.6,2.3l-0.6-2.3C576.6,128.8,576,127.5,575.3,126.6z"/>
	<path class="st1" d="M623.5,210.4c-0.1-0.5-0.4-0.8-1-0.8l-0.8-0.1l-0.2-0.2l-0.3-0.1l-0.3-0.1l-0.2-0.2l-0.2-0.2l-0.3-0.1
		l-0.3-0.1l-0.2-0.2l0,0l0.2,0.2l0.3,0.1l0.3,0.1l0.2,0.2l0.2,0.2l0.3,0.1l0.3,0.1l0.2,0.2l0.8,0.1
		C623.1,209.6,623.4,209.9,623.5,210.4c0.1,0.3,0,0.5-0.2,0.8C623.5,211,623.6,210.7,623.5,210.4z"/>
	<path class="st1" d="M600.1,168.1c-0.4-0.5-0.9-1-1.3-1.5C599.3,167.2,599.8,167.7,600.1,168.1z"/>
	<path class="st1" d="M595.6,183.9c-0.1,0.1-0.3,0.2-0.5,0.2c-0.3,0.1-0.6,0.4-1,0.7c0.4-0.4,0.7-0.6,1-0.7
		C595.3,184,595.5,184,595.6,183.9z"/>
	<path class="st1" d="M594.3,162.1L594.3,162.1c-0.1,0-0.1,0-0.2,0C594.1,162.2,594.2,162.2,594.3,162.1z"/>
	<path class="st1" d="M534.8,123.5c-0.5,0.1-1,0.2-1.6,0.3C533.8,123.7,534.4,123.6,534.8,123.5z"/>
	<path class="st1" d="M531.4,124.4c0.3-0.1,0.6-0.2,0.9-0.3s0.6-0.2,0.9-0.3c-0.3,0.1-0.6,0.2-0.9,0.3S531.7,124.3,531.4,124.4z"/>
	<path class="st1" d="M512.4,124.1c0,0-0.1-0.1-0.1-0.1l-0.2-0.2l0.2,0.2C512.4,124,512.4,124,512.4,124.1z"/>
	<path class="st1" d="M512.7,125.1c0-0.1,0-0.1,0-0.2c0-0.1-0.1-0.2-0.1-0.3c0,0.1,0.1,0.2,0.1,0.3
		C512.7,124.9,512.7,125,512.7,125.1z"/>
	<path class="st1" d="M520.7,123.3c0.3,0,0.6,0,0.9-0.1c0.3,0,0.6,0,0.9,0c-0.3,0-0.6,0-0.9,0C521.3,123.2,521,123.2,520.7,123.3z"
		/>
	<path class="st5" d="M703.9,86.4c-0.5,0.6-0.9,1.2-1.2,1.7c-0.2,0.3-0.4,0.6-0.5,0.8c-1.4,2.7-2.8,5.6-4.2,8.5
		c-1.4,3-3.6,5.5-6.4,7.6c-2.8,2-20.2,27.2-20.2,29.3c-0.1,2.2-0.4,3.6-1,4.4c-0.5,0.8-1.7,1.7-3.7,2.6c-2,0.9-3.3,1.7-3.9,2.4
		c-0.7,0.7-1.7,2.3-3,4.9c-1.4,2.5-3.3,4.4-5.7,5.5c-2.4,1.2-4.5,2.5-6.1,3.9s-2.7,3.1-3.4,5c-0.7,1.9-1.6,3.1-2.9,3.8
		c-1.2,0.6-3,1.9-5.3,3.7c-2.3,1.8-4.8,3.4-7.5,4.8c-2.7,1.4-5.2,2.9-7.5,4.8c-2.3,1.8-6,3.7-11,5.6l-7.5,3l-4.5,1.6
		c-3,1-5.2,1.8-6.4,2.3l-1.9,0.8l-0.7,0.5l-0.7,0.5l-1.6,0.3l-0.4-0.2l-0.4-0.1h0l-0.1-0.4l0.7-0.5l0.7-0.5l0.1-0.3l0.2-0.2l0.2-0.2
		l0.1-0.3l0.1-0.3l0.2-0.2l0.2-0.2l0.1-0.3l0.1-0.3l0.2-0.2l0.2-0.2l0.1-0.3l2.2-2.9c0.7-0.9,1.3-1.6,1.8-2.2
		c0.2-0.2,0.3-0.3,0.5-0.5c0.4-0.4,0.7-0.6,1-0.7c0.2-0.1,0.4-0.1,0.5-0.2c0.4-0.2,0.6-0.6,0.5-0.9c-0.1-0.5,0.1-0.8,0.6-0.9
		c0.5-0.1,0.9-1.3,1.3-3.7c0.3-2.4,1-3.9,2.1-4.5c1.1-0.7,1.7-1.5,1.7-2.6c0-1.1-0.2-1.8-0.6-2.1c0,0,0,0,0,0c0,0-0.1,0-0.1-0.1
		c-0.1,0-0.1-0.1-0.2-0.2c-0.2-0.2-0.5-0.4-0.7-0.7c-0.4-0.4-0.8-0.9-1.3-1.5c-0.5-0.7-0.9-1.3-0.9-1.6c-0.1-0.9-0.3-2-0.5-3.4
		c-0.3-1.4-0.7-2.1-1.2-2c-0.5,0.1-0.8,0.5-1,1.2c-0.1,0.7-0.4,1.2-0.9,1.5h0c-0.1,0-0.1,0-0.2,0c-0.1,0-0.2,0-0.4-0.1
		c-0.4-0.1-0.8-0.6-1.3-1.2c-0.8-1.1-2-4.4-3.4-2.3c-1.4,2.1-0.7,1.4-1,2.6c-0.3,1.1-0.8,1-1.4-0.4c-0.7-1.3-1-2.7-0.9-4.2
		c0.1-1.5-0.2-2.9-0.7-4.1c-0.5-1.2-1.5-2.9-3-5c-1.5-2.1-3.4-4.1-5.8-5.8c-2.4-1.8-4.5-3-6.2-3.4c-1.7-0.5-2.6-0.8-2.8-0.9
		l-0.3-0.1l-0.3-0.1l-0.2-0.2l-1.2-0.1l-1.2-0.1l-0.2-0.2l-0.3-0.1l-0.3-0.1l-0.2-0.2l1.1-0.6l1.1-0.6l-1.2-0.1l-1.2-0.1l-0.1-0.4
		l2-0.2l2-0.2l0.9,0.2c0.1,0,0.3,0.1,0.4,0.1c0.2,0.1,0.5,0.1,0.6,0.1c0.1,0,0.2,0,0.2,0c0.3-0.1,0.8,0.1,1.7,0.5
		c0.9,0.4,1.8,0.4,2.8,0c0.8-0.2,1.3-0.5,1.6-0.8c0.1-0.1,0.2-0.2,0.2-0.3l0.3-0.6l1.2,0l0.1,0l1.1-0.1v0l-0.6-2.3
		c-0.5-1.5-1.1-2.7-1.8-3.7s-0.8-1.7-0.2-2.2c0.2-0.2,0.3-0.4,0.4-0.5c0,0,0-0.1,0-0.1c0-0.1-0.1-0.2-0.4-0.2l-0.8,0l-0.3-1.6
		l2.3-0.5l13.5-2.9c9-2,16.2-4.6,21.6-7.7c22-12.9,58.3-57.6,64.8-57.6c24.3,1.9,37.7,22.4,37.7,22.4
		C712.5,75.8,706.9,82.4,703.9,86.4z"/>
	<path class="st6" d="M589.5,190.3l-0.1,0.3l-0.2,0.2L589,191l-0.1,0.3l-0.1,0.3l-0.2,0.2l-0.2,0.2l-0.1,0.3l-0.1,0.3l-0.2,0.2
		l-0.2,0.2l-0.1,0.3l-0.7,0.5l-0.7,0.5l0.1,0.4l-7.8,1.4c-0.1,0-0.2,0-0.3,0c-1.1,0.2-2.1,0.3-3.1,0.4c-0.2,0-0.4,0-0.5,0
		c-0.9,0.1-1.7,0.1-2.5,0.1c-2.4,0-4.6-0.3-6.6-1c-0.8-0.3-1.5-0.5-2.2-0.7c-1.4-0.4-2.7-0.6-3.9-0.7c-0.6-0.1-1.2-0.1-1.7-0.1
		c-0.3,0-0.6,0-0.9,0c-0.3,0-0.6,0.1-0.8,0.1c-0.3,0-0.5,0-0.7,0c-0.4,0-0.7,0-1,0c-0.4,0-0.5,0-0.5-0.1c0,0,0.1-0.1,0.1-0.1
		c0,0,0,0,0,0c0.4-0.2,0.1-1.2-1-2.8c-1.1-1.7-2.1-2.5-2.7-2.7c-0.7-0.1-1.2-0.4-1.5-0.9c-0.1-0.3-0.7-0.5-1.6-0.5
		c-0.3,0-0.7,0-1.1,0c-0.3,0-0.6,0-0.9,0c-0.3,0-0.7,0-1,0c-1.9,0.1-3.5,0.3-4.7,0.5c-0.4,0.1-0.8,0.1-1.1,0.2
		c-0.2,0-0.3,0.1-0.5,0.1l-1.1,0.2l-0.8,0.2l-0.9-0.2l-0.9-0.2l1.3-1.3c0.9-0.8,1.3-1.5,1.2-2c-0.1-0.5-1-0.5-2.8,0.2
		s-2.9-0.3-3.4-2.9c-0.5-2.6-1.8-4.4-3.7-5.3c-2-0.9-3.1-1.7-3.3-2.1c-0.2-0.5-0.1-0.9,0.2-1.3c0.3-0.3-1.8-1.3-6.3-3c0,0,0,0,0,0
		c-4.5-1.6-8.3-2.5-11.3-2.7c-3-0.2-4.3-2.2-7.1-1.7c-2.8,0.6-7.5,0.7-9.6,1.3c-1.9,0.5-2.4,2.7-2.6,2.8c0,0,0,0,0-0.1
		c-0.1-0.3-0.2-0.4-0.5-0.4c-0.3,0-0.7,0.1-1.3,0.4c-1.1,0.5-2.8,0.9-5.1,1.3c-1.1,0.1-2.1,0.2-3.1,0.2c-1,0-1.9-0.2-2.7-0.4
		c-1.7-0.5-3.6-1.1-5.6-1.9c-2-0.8-3.3-1.4-3.6-2c-0.4-0.6-1.4-1.2-3.2-1.6c-0.9-0.2-1.8-0.3-2.7-0.3c-0.9,0-1.9,0.2-2.9,0.5
		c-0.8,0.2-1.4,0.3-1.9,0.4c-0.2,0-0.3,0-0.4,0c-0.1,0-0.3,0-0.4,0c-0.3,0-0.5-0.2-0.5-0.4c-0.1-0.5-1.6-0.9-4.4-1.1
		c-2.9-0.2-5.1-0.5-6.6-0.8c-1.2-0.3-2.3-0.4-3.3-0.4c-0.3,0-0.7,0-1,0c0,0,0,0-0.1,0c-1.3,0.1-2,0-2.1-0.5c-0.1-0.5-0.5-0.8-1.2-1
		c-0.7-0.1-1.2-0.8-1.5-2.1c-0.3-1.3-4.4-1.9-4.4-1.9l0,0l-0.2,0.2l-0.1,0.3l-1.6,0.3l-2.6-0.7c-1.7-0.5-2.6-0.8-2.8-0.9
		c-0.1,0-0.8-0.1-1.9-0.1c-0.2,0-0.4,0-0.6,0c-0.4,0-0.8,0-1.1,0c-0.3,0-0.5,0-0.8,0.1c-0.3,0-0.7,0.1-1,0.2
		c-0.6,0.1-1.3,0.3-1.8,0.6c-0.2,0.1-0.3,0.2-0.5,0.3c-0.4,0.3-0.9,0.6-1.4,0.8c-0.3,0.2-0.7,0.3-1.1,0.5c-0.3,0.1-0.5,0.2-0.8,0.3
		c-0.5,0.2-1,0.3-1.5,0.5c-0.2,0.1-0.4,0.1-0.6,0.2c-0.5,0.1-1.1,0.3-1.7,0.4c-0.6,0.1-1.2,0.2-1.8,0.2c-0.4,0-0.8,0.1-1.1,0.1
		c-1.4,0.2-2.6,0.4-3.6,0.8c-0.5,0.2-0.9,0.4-1.2,0.6c-0.3,0.2-0.6,0.5-0.9,0.7c-0.4,0.5-0.8,0.8-1.1,1.1c-0.3,0.3-0.7,0.4-1,0.5
		c-0.1,0-0.2,0.1-0.3,0.1c-0.2,0-0.3,0-0.5,0c0,0,0,0,0,0c-0.4,0-0.7,0-0.8-0.1l-0.2-0.2l-0.2-0.2l-0.3-0.1l-0.3-0.1l-0.2-0.2
		l-0.2-0.2l-0.3-0.1l-0.2-0.1l1.3-4.6l4.3-1.7l-1.7-14.7l-3.9,0.5c0.6-0.1,1.3-0.2,2-0.3c0.2,0,0.4-0.1,0.6-0.1
		c1.1-0.2,2.3-0.3,3.5-0.5c0.2,0,0.4,0,0.5-0.1c2-0.2,4-0.5,6.2-0.7c0.1,0,0.2,0,0.2,0l9.5-1c0,0,0,0,0,0l0.1,0c0,0,0.1,0,0.1,0
		l0.4-0.1l0.5-0.1l0.7-0.1c0.2,0,0.4-0.1,0.7-0.1l0.3-0.1l0.1,0l1.2-0.2l0.8-0.2l0.8-0.1c0.1,0,0.1,0,0.2,0l0.7-0.1l0.8-0.1
		c1.9-0.3,3.4-0.6,4.5-0.7c0.4-0.1,0.7-0.1,1.1-0.2c0.2,0,0.5-0.1,0.7-0.1c0.4,0,0.7-0.1,0.9-0.1c0.1,0,0.2,0,0.3,0
		c0.1,0,0.1,0,0.2,0c0,0,0,0,0.1,0c0.1,0,0.3,0,0.7,0c0.3,0,0.7,0,1.2,0c0.4,0,0.8,0,1.3,0c0.5,0,1.1,0,1.7,0
		c3.2,0.1,8.1,0.1,14.5,0.2c3.2,0.1,6.1,0.1,8.7,0.1c1.9,0,3.7,0,5.2,0c0.5,0,1,0,1.5,0s0.9,0,1.4,0c0.9,0,1.7,0,2.4,0
		c1.1,0,1.9,0,2.6-0.1c0.5,0,0.8,0,1.1-0.1c0.7-0.1,2-0.2,3.7-0.5c3.8-0.6,10-1.7,18.5-3.2l18.7-3.4l0.1-0.3l0.2-0.2l0.1-0.8l0-0.8
		l-1.9-0.8c-0.3-0.1-0.5-0.2-0.7-0.3c-0.2-0.1-0.4-0.2-0.5-0.2c-0.5-0.2-0.7-0.4-0.6-0.5l0.1-0.3l1.7-0.6c0.9-0.3,1.4-0.6,1.6-0.9
		c0-0.1,0-0.1,0-0.2s0-0.1,0-0.2c0-0.1-0.1-0.2-0.1-0.3c-0.1-0.2-0.1-0.3-0.2-0.4c0,0-0.1-0.1-0.1-0.1l-0.2-0.2l1.9-0.4
		c0.6-0.1,1.2-0.2,1.7-0.2c0.2,0,0.4,0,0.6,0c0.2,0,0.4,0,0.5,0.1c0.4,0.1,1.1,0.1,2.3,0.1c0.5,0,1,0,1.6-0.1c0.3,0,0.6,0,0.9-0.1
		c0.3,0,0.6,0,0.9,0c0.6,0,1.1,0,1.5,0s0.8,0.1,1,0.2c0.2,0.1,0.4,0.1,0.5,0.2c0.1,0.1,0.2,0.2,0.2,0.3c0.1,0.5,0.6,0.9,1.4,1.2
		c0.2,0.1,0.5,0.1,0.8,0.1c0.2,0,0.3,0,0.5,0c0.7-0.1,1.7-0.3,2.9-0.6c0.3-0.1,0.6-0.2,0.9-0.3s0.6-0.2,0.9-0.3
		c0.6-0.1,1.1-0.2,1.6-0.3c0.2,0,0.5,0,0.7,0c0.2,0,0.4,0,0.6,0c0.4,0,0.7,0.1,0.9,0.3c0.1,0.1,0.2,0.2,0.3,0.2
		c0.1,0.1,0.2,0.2,0.4,0.3c0.1,0.1,0.3,0.2,0.4,0.3c0.3,0.2,0.7,0.4,1.1,0.5c0.6,0.3,1.3,0.5,2.2,0.7c0.3,0.1,0.6,0.1,0.9,0.2
		c2.4,0.6,3.7,1.1,3.9,1.6c0,0.1,0.1,0.1,0.1,0.2c0.1,0.1,0.3,0.2,0.5,0.3c0.2,0.1,0.5,0.2,0.8,0.3c0.6,0.2,1.5,0.3,2.5,0.5
		c0.9,0.1,1.6,0.3,2.2,0.4c0.2,0,0.4,0.1,0.5,0.2c0.6,0.2,1,0.4,1.1,0.7c0.3,0.5,1.8,1.3,4.5,2.3l4.2,1.6l0.1,0.4l1.2,0.1l1.2,0.1
		l-1.1,0.6l-1.1,0.6l0.2,0.2l0.3,0.1l0.3,0.1l0.2,0.2l1.2,0.1l1.2,0.1l0.2,0.2l0.3,0.1l0.3,0.1c0.1,0.1,1.1,0.4,2.8,0.9
		c1.7,0.5,3.8,1.6,6.2,3.4c2.4,1.8,4.3,3.7,5.8,5.8c1.5,2.1,2.6,4.6,3.1,7.4s0.4,4.3-0.5,4.4l-1.4,0.1l-0.7,0.5l-0.7,0.5l0.2,0.2
		l0.3,0.1l0.3,0.1l0.2,0.2l0.2,0.2l0.3,0.1l0.3,0.1l0.2,0.2l0.2,0.2l0.3,0.1l0.1-0.8l0-0.8l0.8,0l0.8,0.1l-0.1,0.3l-0.2,0.2
		l-0.2,0.9l-0.2,0.9l-0.2,0.2l-0.1,0.3l-0.1,0.3l-0.2,0.2l0.3,1.6l0.2-0.2l0.1-0.3l0.7-0.5l0.7-0.5l1.7-1.4c1.2-0.9,1.6-1.6,1.2-2.2
		c-0.4-0.6-0.3-1,0.2-1.1l0.8-0.2l0.2,0.2l0.3,0.1l0.3,0.1c0.1,0.1,0.6,0.7,1.3,1.8c0.5,0.7,0.9,1.1,1.3,1.2c0.1,0,0.2,0.1,0.4,0.1
		c0.1,0,0.1,0,0.2,0c0.5-0.3,1.6,0.8,3.5,3.1c0.4,0.5,0.7,0.9,1.1,1.3c0.4,0.5,0.9,1.1,1.3,1.5c0.3,0.3,0.5,0.6,0.7,0.7
		c0.1,0.1,0.2,0.1,0.2,0.2c0,0,0.1,0.1,0.1,0.1c0,0,0,0,0,0c0.4,0.3,0.6,1.1,0.6,2.1c0,1.1-0.6,2-1.7,2.6c-1.1,0.6-1.8,2.1-2.1,4.5
		c-0.3,2.3-0.8,3.5-1.3,3.7c-0.5,0.1-0.7,0.4-0.6,0.9c0.1,0.4-0.1,0.7-0.5,0.9c-0.1,0.1-0.3,0.2-0.5,0.2c-0.3,0.1-0.6,0.4-1,0.7
		c-0.2,0.1-0.3,0.3-0.5,0.5c-0.5,0.5-1.1,1.3-1.8,2.2L589.5,190.3z"/>
	<path class="st6" d="M388.4,143.5l0.5-0.1c0.1,0,0.2,0,0.3-0.1c0.8-0.2,1.6-0.3,2.5-0.5L388.4,143.5z"/>
	<path class="st6" d="M586.3,194.2l0.7-0.5l0.7-0.5l0.1-0.3l0.2-0.2l0.2-0.2l0.1-0.3l0.1-0.3l0.2-0.2l0.2-0.2l0.1-0.3l0.1-0.3
		l0.2-0.2l0.2-0.2l0.1-0.3l2.2-2.9c0.7-0.9,1.3-1.6,1.8-2.2c-0.5,0.5-1.1,1.3-1.8,2.2l-2.2,2.9l-0.1,0.3l-0.2,0.2L589,191l-0.1,0.3
		l-0.1,0.3l-0.2,0.2l-0.2,0.2l-0.1,0.3l-0.1,0.3l-0.2,0.2l-0.2,0.2l-0.1,0.3l-0.7,0.5L586.3,194.2l0.1,0.4h0h0L586.3,194.2z"/>
	<path class="st6" d="M592.4,160.9c-0.8-1.1-1.2-1.7-1.3-1.8l-0.3-0.1l-0.3-0.1l-0.2-0.2l-0.8,0.2c-0.5,0.1-0.6,0.5-0.2,1.1
		c0.4,0.6,0,1.3-1.2,2.2l-1.7,1.4l-0.7,0.5l-0.7,0.5l-0.1,0.3l-0.2,0.2l-0.3-1.6l0.2-0.2l0.1-0.3l0.1-0.3l0.2-0.2l0.2-0.9l0.2-0.9
		l0.2-0.2l0.1-0.3l-0.8-0.1l-0.8,0l0,0.8l-0.1,0.8l-0.3-0.1l-0.2-0.2l-0.2-0.2l-0.3-0.1l-0.3-0.1l-0.2-0.2l-0.2-0.2l-0.3-0.1
		l-0.3-0.1l-0.2-0.2l0.7-0.5l0.7-0.5l1.4-0.1c0.9-0.1,1.1-1.5,0.5-4.4s-1.6-5.3-3.1-7.4c1.5,2.1,2.5,3.8,3,5
		c0.5,1.2,0.8,2.6,0.7,4.1c-0.1,1.5,0.2,2.9,0.9,4.2c0.7,1.4,1.1,1.5,1.4,0.4c0.3-1.1-0.4-0.5,1-2.6
		C590.4,156.5,591.6,159.8,592.4,160.9c0.5,0.7,0.9,1.1,1.3,1.2C593.3,162,592.9,161.6,592.4,160.9z"/>
	<path class="st6" d="M594.3,162.1c0.5-0.3,0.8-0.8,0.9-1.5c0.1-0.7,0.5-1.1,1-1.2c0.5-0.1,0.9,0.6,1.2,2c0.3,1.4,0.5,2.5,0.5,3.4
		c0,0.4,0.4,1,0.9,1.6c-0.3-0.4-0.7-0.8-1.1-1.3C595.9,162.9,594.8,161.9,594.3,162.1z"/>
	<path class="st6" d="M596.1,182.9c-0.1-0.5,0.1-0.8,0.6-0.9c0.5-0.1,0.9-1.3,1.3-3.7c0.3-2.4,1-3.9,2.1-4.5
		c1.1-0.7,1.7-1.5,1.7-2.6c0-1.1-0.2-1.8-0.6-2.1c0,0,0,0,0,0c0,0,0,0,0,0c0.4,0.3,0.6,1.1,0.6,2.1c0,1.1-0.6,2-1.7,2.6
		c-1.1,0.6-1.8,2.1-2.1,4.5c-0.3,2.3-0.8,3.5-1.3,3.7C596.2,182.1,596,182.4,596.1,182.9c0.1,0.4-0.1,0.7-0.5,0.9
		C596,183.6,596.2,183.3,596.1,182.9z"/>
	<path class="st6" d="M600.1,168.1c0.3,0.3,0.5,0.6,0.7,0.7C600.7,168.7,600.4,168.4,600.1,168.1z"/>
	<path class="st6" d="M601.1,169c-0.1,0-0.1-0.1-0.2-0.2C600.9,168.9,601,169,601.1,169z"/>
	<path class="st4" d="M697.2,170.9c-11.3,10-19.8,17.4-25.7,22.2c-5.9,4.8-13.5,10.3-22.7,16.5l-25.2,15.1
		c-7.1,3.4-13.4,5.8-18.7,7.1l-8.1,1.8l-0.1-0.4l-0.2-0.2l-0.3-0.1l-0.6-1.1l-0.6-1.1l-0.3-0.1l-0.2-0.2l0.1-0.3l0.2-0.2l0.2-0.2
		l0.1-0.3l6.9-1.8c4.6-1.2,9.7-2.8,15.2-4.7l8.3-2.9l-1.1-0.8c-0.8-0.5-1.4-2.3-1-2.4c0.5-0.1,0.6-2,1.3-2.5c0,0,0,0,0,0
		c0.7-0.5,0.3-1-1.1-1.5c-1.5-0.5-1.8-0.9-1.1-1.2c0.2-0.1,0.4-0.1,0.5-0.2c0.1-0.1,0.2-0.1,0.3-0.2c0.2-0.2,0.3-0.5,0.2-0.8
		c-0.1-0.5-0.4-0.8-1-0.8l-0.8-0.1l-0.2-0.2l-0.3-0.1l-0.3-0.1l-0.2-0.2l-0.2-0.2l-0.3-0.1l-0.3-0.1l-0.2-0.2l3.5-0.7
		c0.4-0.1,0.7-0.1,1-0.2c0.4-0.1,0.8-0.1,1.1-0.2c1-0.2,1.9-0.3,2.7-0.3c0.1,0,0.2,0,0.3,0c0.3,0,0.5,0,0.7,0l2.3-0.1l0.1,0l0.7-0.5
		l0.7-0.5l0.1-0.3l0.2-0.2l-0.5-2.3l-0.2,0.2l-0.1,0.3l-1.6,0.3l-0.9-0.2l-0.9-0.2l-0.2-0.2l-0.3-0.1l-0.3-0.1l-0.2-0.2l-0.2-0.2
		l-0.3-0.1l-0.3-0.1l-0.2-0.2l-4.9-0.2c-3.3-0.1-7,0-11.4,0.5c-4.4,0.5-6.7,0.5-7,0c-0.2-0.5-2.1-0.4-5.7,0.4l-5.4,1.1l-0.4-1.1
		l-0.5-1.1l-0.3-0.1l-0.2-0.2l0.1-0.3l0.2-0.2l0.2-0.2l0.1-0.3l0.1-0.3l0.2-0.2l0.2-0.2l0.1-0.3l0.1-0.3l0.2-0.2l0.2-0.2l0.1-0.3
		l0.1-0.3l0.2-0.2l0.2-0.9l0.2-0.9l0.2-0.2l0.1-0.3l4.2-3.3c2.8-2.2,4.2-3.4,4.1-3.5l0-0.2l7.5-3c5-1.9,8.6-3.8,11-5.6
		c2.3-1.8,4.8-3.4,7.5-4.8c2.7-1.4,5.2-2.9,7.5-4.8c2.3-1.8,4.1-3,5.3-3.7c1.2-0.7,2.2-1.9,2.9-3.8c0.7-1.9,1.8-3.6,3.4-5
		s3.6-2.7,6.1-3.9c2.5-1.1,4.4-3,5.7-5.5c1.4-2.6,2.4-4.2,3-4.9c0.7-0.7,2-1.5,3.9-2.4c2-0.9,3.2-1.8,3.7-2.6c0.5-0.8,0.9-2.2,1-4.4
		c0.1-2.2,17.4-27.3,20.2-29.3c2.8-2.1,4.9-4.6,6.4-7.6c1.4-3,2.8-5.8,4.2-8.5c0.1-0.2,0.3-0.5,0.5-0.8c0.3-0.5,0.7-1.1,1.2-1.7
		c2-2.7,5.4-6.2,10-10.7c1.5,1.7,12.7,22.3,27.2,55.1C740.5,132.8,708.5,160.9,697.2,170.9z"/>
	<path class="st7" d="M391.9,163.2l0.2,0.1l0.3,0.1l0.2,0.2l0.2,0.2l0.3,0.1l0.3,0.1l0.2,0.2l0.2,0.2c0.1,0.1,0.4,0.1,0.8,0.1
		c0,0,0,0,0,0c0.1,0,0.3,0,0.5,0c0.1,0,0.2,0,0.3-0.1c0.3-0.1,0.6-0.2,1-0.5c0.3-0.3,0.7-0.6,1.1-1.1c0.2-0.3,0.5-0.5,0.9-0.7
		c0.3-0.2,0.8-0.4,1.2-0.6c0.9-0.3,2.1-0.6,3.6-0.8c0.4,0,0.7-0.1,1.1-0.1c0.6-0.1,1.2-0.1,1.8-0.2s1.1-0.2,1.7-0.4
		c0.2-0.1,0.4-0.1,0.6-0.2c0.5-0.1,1-0.3,1.5-0.5c0.3-0.1,0.6-0.2,0.8-0.3c0.4-0.2,0.7-0.3,1.1-0.5c0.5-0.3,1-0.5,1.4-0.8
		c0.2-0.1,0.3-0.2,0.5-0.3c0.5-0.3,1.1-0.4,1.8-0.6c0.3-0.1,0.7-0.1,1-0.2c0.3,0,0.5-0.1,0.8-0.1c0.4,0,0.8,0,1.1,0
		c0.2,0,0.4,0,0.6,0c1.1,0,1.8,0.1,1.9,0.1c0.1,0.1,1.1,0.4,2.8,0.9l2.6,0.7h0l1.6-0.3l0.1-0.3l0.2-0.2c0,0,4.2,0.6,4.4,1.9
		c0.3,1.3,0.8,2,1.5,2.1c0.7,0.1,1.1,0.5,1.2,1c0.1,0.5,0.8,0.7,2.1,0.5c0,0,0,0,0.1,0c0.3,0,0.7,0,1,0c1,0,2.2,0.2,3.3,0.4
		c1.5,0.3,3.7,0.6,6.6,0.8c2.8,0.2,4.3,0.6,4.4,1.1c0,0.2,0.2,0.3,0.5,0.4c0.1,0,0.2,0,0.4,0c0.1,0,0.3,0,0.4,0
		c0.5-0.1,1.1-0.2,1.9-0.4c1-0.3,2-0.4,2.9-0.5s1.8,0.1,2.7,0.3c1.7,0.5,2.8,1,3.2,1.6c0.4,0.6,1.6,1.2,3.6,2
		c2.1,0.8,3.9,1.5,5.6,1.9c0.9,0.2,1.8,0.4,2.7,0.4c1,0,2,0,3.1-0.2c2.2-0.4,3.9-0.8,5.1-1.3c0.5-0.2,1-0.4,1.3-0.4
		c0.3,0,0.5,0.1,0.5,0.4c0,0,0,0.1,0,0.1c0.2,0.4,1.8,0.1,4.6-0.9c3-1,5.4-1.3,7.2-1c1.8,0.3,3,0.4,3.5,0.2c0.5-0.1,2-0.2,4.5-0.3
		c2.6-0.1,6.1,0.6,10.6,2.2c0,0,0,0,0,0c4.5,1.7,6.6,2.7,6.3,3c-0.4,0.3-0.4,0.8-0.2,1.3c0.3,0.5,1.4,1.2,3.3,2.1
		c1.9,1,3.1,2.7,3.7,5.3c0.5,2.6,1.7,3.6,3.4,2.9c1.8-0.6,2.7-0.7,2.8-0.2s-0.3,1.2-1.2,2l-1.3,1.3l0.9,0.2l0.9,0.2h0h0l0.8-0.2
		l1.1-0.2c0.1,0,0.3-0.1,0.5-0.1c0.3-0.1,0.7-0.1,1.1-0.2c1.2-0.2,2.8-0.3,4.7-0.5c0.4,0,0.7,0,1,0c0.3,0,0.6,0,0.9,0
		c0.4,0,0.8,0,1.1,0c1,0.1,1.5,0.2,1.6,0.5c0.3,0.5,0.8,0.8,1.5,0.9c0.7,0.1,1.6,1,2.7,2.7c1.1,1.6,1.4,2.5,1,2.8c0,0,0,0,0,0
		c-0.1,0-0.1,0.1-0.1,0.1c0,0.1,0.1,0.1,0.5,0.1c0.2,0,0.6,0,1,0c0.2,0,0.4,0,0.7,0s0.5,0,0.8-0.1c0.3,0,0.6,0,0.9,0
		c0.6,0,1.1,0,1.7,0.1c1.2,0.1,2.5,0.4,3.9,0.7c0.7,0.2,1.4,0.4,2.2,0.7c1.9,0.6,4.1,1,6.6,1c0.8,0,1.7,0,2.5-0.1c0.2,0,0.4,0,0.5,0
		c1-0.1,2-0.2,3.1-0.4c0.1,0,0.2,0,0.3,0l7.8-1.4l0.4,0.1l0.4,0.2l1.6-0.3l0.7-0.5l0.7-0.5l1.9-0.8c1.2-0.5,3.4-1.3,6.4-2.3l4.5-1.6
		l0,0.2c0,0.2-1.3,1.3-4.1,3.5l-4.2,3.3l-0.1,0.3l-0.2,0.2l-0.2,0.9l-0.2,0.9l-0.2,0.2l-0.1,0.3l-0.1,0.3l-0.2,0.2l-0.2,0.2
		l-0.1,0.3l-0.1,0.3l-0.2,0.2l-0.2,0.2l-0.1,0.3l-0.1,0.3l-0.2,0.2l-0.2,0.2l-0.1,0.3l0.2,0.2l0.3,0.1l0.5,1.1l0.4,1.1l5.4-1.1
		c3.6-0.7,5.5-0.9,5.7-0.4c0.3,0.5,2.6,0.5,7,0c4.3-0.5,8.1-0.7,11.4-0.5l4.9,0.2l0.2,0.2l0.3,0.1l0.3,0.1l0.2,0.2l0.2,0.2l0.3,0.1
		l0.3,0.1l0.2,0.2l0.9,0.2l0.9,0.2l1.6-0.3l0.1-0.3l0.2-0.2l0.5,2.3l-0.2,0.2h0l-0.1,0.3l-0.7,0.5l-0.7,0.5l-0.1,0l-2.3,0.1
		c-0.2,0-0.5,0-0.7,0c-0.1,0-0.2,0-0.3,0c-0.8,0.1-1.7,0.2-2.7,0.3c-0.4,0.1-0.7,0.1-1.1,0.2c-0.3,0.1-0.7,0.1-1,0.2l-3.5,0.7l0,0
		l0.2,0.2l0.3,0.1l0.3,0.1l0.2,0.2l0.2,0.2l0.3,0.1l0.3,0.1l0.2,0.2l0.8,0.1c0.5,0,0.9,0.3,1,0.8c0.1,0.3,0,0.5-0.2,0.8
		c-0.1,0.1-0.2,0.1-0.3,0.2c-0.1,0.1-0.3,0.2-0.5,0.2l0,0h0c-0.7,0.3-0.4,0.7,1.1,1.2c1.5,0.5,1.8,1,1.1,1.5c0,0,0,0,0,0
		c-0.7,0.6-1.3,1.9-1.9,3.9c-0.5,2-5.2,4.4-14.2,7.2l-13.5,4.1v0h0l-0.1,0.3l-0.2,0.2l-0.2,0.2l-0.1,0.3l0.2,0.2l0.3,0.1l0.6,1.1
		l0.6,1.1l0.3,0.1l0.2,0.2l0.1,0.4l-8.1-0.1c-5.4-0.1-9.6-0.2-12.5-0.1c-2.9,0.1-5.9-0.7-8.9-2.2c-3-1.5-13.4-5.3-31.2-11.1
		c-17.8-6-28.4-9.9-32.1-11.9c-7.1-3.9-15.4-11-15.4-11c-4.5-4.2-7.9-7.1-10.2-8.7c-2.4-1.5-6.1-3-11.2-4.3s-10.3-2.4-10.6-2.5
		l-0.4-0.1l-1.2,0.1l-1.2,0l-11.8-0.4c-7.9-0.3-15.5-0.3-23-0.1c-7.5,0.2-13.6-0.2-18.4-1.1s-12.9-1.8-12.9-1.8l0,0h0L391.9,163.2z"
		/>
	<path class="st7" d="M572.1,196.6c0.8,0,1.7,0,2.5-0.1C573.8,196.6,573,196.6,572.1,196.6z"/>
	<path class="st7" d="M538.2,187.9c0.3-0.1,0.7-0.1,1.1-0.2C539,187.8,538.6,187.9,538.2,187.9z"/>
	<path class="st7" d="M413.7,157.5c-0.2,0.1-0.3,0.2-0.5,0.3c-0.4,0.3-0.9,0.6-1.4,0.8c0.5-0.3,1-0.5,1.4-0.8
		C413.4,157.7,413.6,157.6,413.7,157.5z"/>
	<path class="st7" d="M398.3,162.1c0.3-0.2,0.8-0.4,1.2-0.6C399.1,161.7,398.7,161.9,398.3,162.1z"/>
	<path class="st7" d="M397.5,162.8c0.2-0.3,0.5-0.5,0.9-0.7C398,162.3,397.7,162.6,397.5,162.8c-0.4,0.5-0.8,0.8-1.1,1.1
		C396.7,163.7,397.1,163.3,397.5,162.8z"/>
	<path class="st7" d="M545.1,187.2c-0.3,0-0.7,0-1,0c-1.9,0.1-3.5,0.3-4.7,0.5c1.2-0.2,2.8-0.3,4.7-0.5
		C544.4,187.2,544.8,187.2,545.1,187.2z"/>
	<path class="st7" d="M553.9,194.2c0,0,0.1-0.1,0.1-0.1c0,0,0,0,0,0c0,0,0,0,0,0C553.9,194.2,553.9,194.2,553.9,194.2z"/>
	<path class="st7" d="M554.3,194.3c0.2,0,0.6,0,1,0C554.9,194.3,554.6,194.3,554.3,194.3z"/>
	<path class="st7" d="M557.7,194.1c-0.3,0-0.6,0-0.9,0c-0.3,0-0.6,0.1-0.8,0.1c0.3,0,0.5,0,0.8-0.1
		C557.1,194.2,557.4,194.2,557.7,194.1z"/>
	<polygon class="st7" points="535.8,188.4 535.8,188.4 536.6,188.2 	"/>
	<path class="st7" d="M438.4,163c-0.3,0-0.7,0-1,0c0,0,0,0-0.1,0c0,0,0,0,0.1,0C437.7,163,438,163,438.4,163z"/>
	<path class="st7" d="M489.4,167.1c2-0.6,6.7-0.7,9.6-1.3c2.8-0.6,4.1,1.5,7.1,1.7c3,0.2,6.8,1.1,11.3,2.7
		c-4.5-1.6-8.1-2.3-10.6-2.2c-2.5,0.1-4,0.2-4.5,0.3c-0.5,0.1-1.7,0-3.5-0.2c-1.8-0.3-4.2,0-7.2,1c-2.9,1-4.4,1.3-4.6,0.9
		C487,169.8,487.5,167.5,489.4,167.1z"/>
	<path class="st7" d="M458.9,164.9c-0.9,0-1.9,0.2-2.9,0.5c-0.8,0.2-1.4,0.3-1.9,0.4c0.5-0.1,1.1-0.2,1.9-0.4
		C457,165.1,458,164.9,458.9,164.9z"/>
	<path class="st7" d="M485,169.7c0.5-0.2,1-0.4,1.3-0.4C486,169.4,485.5,169.5,485,169.7c-1.1,0.5-2.8,0.9-5.1,1.3
		c-1.1,0.1-2.1,0.2-3.1,0.2c1,0,2,0,3.1-0.2C482.2,170.6,483.9,170.2,485,169.7z"/>
	<polygon class="st7" points="427.9,157.7 428.1,157.5 427.9,157.7 427.8,158 426.3,158.3 427.8,158 	"/>
	<path class="st7" d="M578.3,196.1c0.1,0,0.2,0,0.3,0l7.8-1.4h0l-7.8,1.4C578.5,196.1,578.4,196.1,578.3,196.1z"/>
	<path class="st7" d="M608.7,225.4c9-2.8,13.7-5.2,14.2-7.2c0.6-2,1.2-3.3,1.9-3.9c-0.7,0.6-0.9,2.4-1.3,2.5c-0.5,0.1,0.2,1.9,1,2.4
		l1.1,0.8l-8.3,2.9c-5.5,1.9-10.6,3.5-15.2,4.7l-6.9,1.8v0L608.7,225.4z"/>
	<path class="st7" d="M623.1,211.4c-0.1,0.1-0.3,0.2-0.5,0.2l0,0C622.8,211.5,622.9,211.5,623.1,211.4z"/>
	<path class="st7" d="M624.4,207.4c-0.3,0.1-0.7,0.1-1,0.2l-3.5,0.7l3.5-0.7C623.7,207.6,624.1,207.5,624.4,207.4z"/>
	<path class="st7" d="M631.6,206.7l-2.3,0.1c-0.2,0-0.5,0-0.7,0c0.3,0,0.5,0,0.7,0L631.6,206.7z"/>
	<path class="st7" d="M625.5,207.2c1-0.2,1.9-0.3,2.7-0.3C627.4,207,626.5,207.1,625.5,207.2z"/>
	<path class="st7" d="M628.3,206.9c0.1,0,0.2,0,0.3,0C628.4,206.9,628.4,206.9,628.3,206.9z"/>
	<path class="st8" d="M574.3,123.6l0.8,0c0.3,0,0.4,0.1,0.4,0.2c0,0,0,0,0,0.1c0,0.1-0.1,0.3-0.4,0.5c-0.6,0.6-0.5,1.3,0.2,2.2
		c0.7,0.9,1.3,2.2,1.8,3.7l0.6,2.3l-1.1,0.1l-0.1,0l-1.2,0l-0.3,0.6c0,0.1-0.1,0.2-0.2,0.3c-0.3,0.3-0.8,0.6-1.6,0.8
		c-1,0.4-1.9,0.4-2.8,0c-0.9-0.4-1.5-0.5-1.7-0.5c-0.1,0-0.1,0-0.2,0c-0.2,0-0.4,0-0.6-0.1c-0.1,0-0.3-0.1-0.4-0.1l-0.9-0.2l-2,0.2
		l-2,0.2l-4.2-1.6c-2.7-1.1-4.3-1.8-4.5-2.3c-0.1-0.2-0.5-0.5-1.1-0.7c-0.2-0.1-0.3-0.1-0.5-0.2c-0.6-0.1-1.3-0.3-2.2-0.4
		c-1-0.1-1.9-0.3-2.5-0.5c-0.3-0.1-0.6-0.2-0.8-0.3s-0.4-0.2-0.5-0.3c-0.1-0.1-0.1-0.1-0.1-0.2c-0.2-0.5-1.5-1-3.9-1.6
		c-0.3-0.1-0.6-0.1-0.9-0.2c-0.8-0.2-1.6-0.5-2.2-0.7c-0.4-0.2-0.8-0.3-1.1-0.5c-0.2-0.1-0.3-0.2-0.4-0.3c-0.1-0.1-0.3-0.2-0.4-0.3
		c-0.1-0.1-0.2-0.2-0.3-0.2c-0.3-0.1-0.6-0.2-0.9-0.3c-0.2,0-0.4,0-0.6,0c-0.2,0-0.4,0-0.7,0c-0.5,0.1-1,0.2-1.6,0.3
		c-0.3,0.1-0.6,0.2-0.9,0.3s-0.6,0.2-0.9,0.3c-1.2,0.3-2.1,0.5-2.9,0.6c-0.2,0-0.4,0-0.5,0c-0.3,0-0.6,0-0.8-0.1
		c-0.9-0.3-1.3-0.6-1.4-1.2c0-0.1-0.1-0.2-0.2-0.3c-0.1-0.1-0.3-0.1-0.5-0.2c-0.3-0.1-0.6-0.1-1-0.2s-0.9,0-1.5,0
		c-0.3,0-0.6,0-0.9,0c-0.3,0-0.6,0-0.9,0.1c-0.6,0-1.1,0.1-1.6,0.1c-1.2,0-1.9,0-2.3-0.1c-0.1,0-0.3-0.1-0.5-0.1c-0.2,0-0.4,0-0.6,0
		c-0.5,0-1,0.1-1.7,0.2l-1.9,0.4l0.2,0.2c0,0,0.1,0,0.1,0.1c0.1,0.1,0.1,0.2,0.2,0.4c0,0.1,0.1,0.2,0.1,0.3c0,0.1,0,0.1,0,0.2
		s0,0.1,0,0.2c-0.2,0.4-0.7,0.7-1.6,0.9l-1.7,0.6l-0.1,0.3c-0.1,0.1,0.1,0.2,0.6,0.5c0.1,0.1,0.3,0.2,0.5,0.2
		c0.2,0.1,0.4,0.2,0.7,0.3l1.9,0.8l0,0.8l-0.1,0.8l-0.2,0.2l-0.1,0.3l-18.7,3.4c-8.6,1.6-14.7,2.6-18.5,3.2c-1.7,0.3-3,0.4-3.7,0.5
		c-0.3,0-0.7,0.1-1.1,0.1c-0.7,0-1.6,0.1-2.6,0.1c-0.7,0-1.5,0-2.4,0c-0.4,0-0.9,0-1.4,0s-1,0-1.5,0c-1.6,0-3.3,0-5.2,0
		c-2.6,0-5.4-0.1-8.7-0.1c-6.4-0.1-11.2-0.2-14.5-0.2c-0.6,0-1.2,0-1.7,0c-0.5,0-0.9,0-1.3,0c-0.5,0-0.9,0-1.2,0c-0.4,0-0.6,0-0.7,0
		c0,0-0.1,0-0.1,0c0,0-0.1,0-0.2,0c-0.1,0-0.2,0-0.3,0c-0.2,0-0.5,0-0.9,0.1c-0.2,0-0.4,0.1-0.7,0.1c-0.3,0-0.7,0.1-1.1,0.2
		c-1.2,0.2-2.7,0.4-4.5,0.7c1.4-3.3-1-5-1-5c6.2-19.3-6.8-11.4-6.8-11.4h0c-1.6,0.2-3,0.4-4.2,0.6c-0.6,0.1-1.2,0.2-1.7,0.3
		c-0.5,0.1-1,0.2-1.4,0.2c-0.6,0.1-1,0.2-1.4,0.3l-2.3,0.5l0.7-0.4c0.1-0.1,0.2-0.1,0.3-0.2c0-0.1,0.1-0.1,0-0.2
		c0-0.3-0.2-0.6-0.6-1.1c-0.5-0.6-1.2-1-1.9-1.3c-0.3-0.1-0.5-0.2-0.8-0.3c-1.1-0.3-1.2-0.7-0.3-1.3c0.9-0.6,1.4-1.3,1.3-2.1
		c0-0.8,0.1-1.3,0.2-1.4l0.1-0.3l0.1-0.3l0.2-0.2l0.1-0.8l0-0.8l-0.8,0l-0.8-0.1l-5.1,0.6c-0.4,0.1-0.8,0.1-1.2,0.2
		c-1,0.1-2,0.3-2.8,0.4c-1.4,0.2-2.5,0.4-3.4,0.6l-2.3,0.5l0.5-0.7c0.1-0.2,0.3-0.4,0.4-0.6c0.1-0.1,0.1-0.1,0.1-0.2
		s0.1-0.1,0.1-0.1l0.1-0.2l0-0.1l0-0.1l0.1-0.2l0.2-0.2l0.2-0.2l0.1-0.3l-1.2-0.1l-1.2-0.1l-0.7-0.4c-0.4-0.3-0.6-0.8-0.6-1.3l0-0.8
		l0.8-0.2l11.3-2.1c7.5-1.4,12.7-2.4,15.6-2.9c2.8-0.6,8.9-2.8,18.1-6.5c9.2-3.8,16.5-6.2,21.9-7.3c5.4-1.1,27.5,3.7,66.4,14.4
		l58.2,16.2l-2.3,0.5L574.3,123.6z"/>
	<path class="st8" d="M429.1,137.7c-0.2,0-0.5,0-0.9,0.1C428.5,137.7,428.8,137.7,429.1,137.7z"/>
	<path class="st8" d="M416.1,139.8l-0.4,0.1l-0.3,0.1C415.5,139.9,415.8,139.9,416.1,139.8z"/>
	<path class="st8" d="M415.6,139.9l-0.5,0.1c0.1,0,0.1,0,0.2,0L415.6,139.9z"/>
	<path class="st8" d="M567.9,133.9c0.2,0.1,0.5,0.1,0.6,0.1C568.3,134,568.1,134,567.9,133.9z"/>
	<polygon class="st8" points="577.7,132.6 576.6,132.6 577.7,132.6 	"/>
	<path class="st8" d="M429.3,137.7c0.1,0,0.1,0,0.2,0c0,0,0,0,0.1,0c0,0-0.1,0-0.1,0C429.5,137.7,429.4,137.7,429.3,137.7z"/>
	<path class="st8" d="M547.6,128.5c0.6,0.2,1.5,0.3,2.5,0.5c0.9,0.1,1.6,0.3,2.2,0.4c-0.6-0.1-1.3-0.3-2.2-0.4
		C549.1,128.8,548.3,128.6,547.6,128.5z"/>
	<path class="st8" d="M547.6,128.5c-0.3-0.1-0.6-0.2-0.8-0.3C547,128.3,547.3,128.4,547.6,128.5z"/>
	<path class="st8" d="M554,130.2c-0.1-0.2-0.5-0.5-1.1-0.7C553.5,129.7,553.9,129.9,554,130.2c0.3,0.5,1.8,1.3,4.5,2.3l4.2,1.6
		l-4.2-1.6C555.7,131.4,554.2,130.6,554,130.2z"/>
	<polygon class="st8" points="512.8,130.9 512.9,130.7 513.1,130.5 512.9,130.7 	"/>
	<path class="st8" d="M537,123.8c0.1,0.1,0.2,0.2,0.3,0.2c0.1,0.1,0.2,0.2,0.4,0.3c-0.1-0.1-0.3-0.2-0.4-0.3
		C537.3,123.9,537.1,123.9,537,123.8z"/>
	<path class="st8" d="M525.8,123.8c0-0.1-0.1-0.2-0.2-0.3C525.8,123.6,525.8,123.7,525.8,123.8c0.1,0.5,0.6,0.9,1.4,1.2
		c0.2,0.1,0.5,0.1,0.8,0.1c-0.3,0-0.6,0-0.8-0.1C526.4,124.7,525.9,124.3,525.8,123.8z"/>
	<path class="st8" d="M525.2,123.4c-0.3-0.1-0.6-0.1-1-0.2C524.6,123.2,524.9,123.3,525.2,123.4z"/>
	<path class="st8" d="M524.1,123.2c-0.4,0-0.9,0-1.5,0C523.2,123.2,523.7,123.2,524.1,123.2z"/>
	<path class="st8" d="M432.8,137.8c-0.5,0-0.9,0-1.3,0C431.9,137.8,432.3,137.8,432.8,137.8z"/>
	<path class="st4" d="M291.3,205.1C291.3,205.1,291.3,205.1,291.3,205.1c0.5-0.1,1-0.2,1.6-0.3c7-1.5,12.2-3.7,15.8-5.7
		c0.4-0.2,2.5-1.3,4.7-2.6c1.6-0.9,3-1.7,4.3-2.7c0.2-0.2,0.4-0.3,0.6-0.5c0,0,0,0,0,0c2.5-2.1,6.7-4.7,12.5-7.8s9.3-5.1,10.4-6.2
		c1.1-1,1.7-1.9,1.6-2.6c0-0.7,0.1-1.3,0.3-1.8c0.2-0.6,0.2-1.5,0.2-2.9c0-1.3,0.1-2.6,0.2-3.8c0.2-1.3,1.9-3.3,5-6.1
		c3.2-2.8,6-4.5,8.3-4.9c0.3-0.1,0.6-0.1,0.8-0.1c0.3,0,0.5,0,0.8-0.1c0.4,0,0.7,0,1,0.1c0.9,0.2,1.6,0.6,2,1.4
		c0.7,1.4,1.6,2.2,2.9,2.5c0.2,0.1,0.4,0.1,0.6,0.1c0.2,0,0.3,0,0.5,0c0.5-0.1,0.7-0.3,0.6-0.8c-0.2-0.8,0.8-1.4,2.8-2
		c0,0-1.7,8.9,3.3,15.6c4.9,6.7,15.4,4.5,15.4,4.5l-13,3.5c-8.3,1.7-14.1,3.6-17.6,5.8c-3.5,2.2-6.1,4-7.8,5.3
		c-1.8,1.3-4.2,2.3-7.3,3.1l-4.6,1.1l-5.8,1.3c-3.8,0.9-8.9,3.6-15.1,7.9c-6.3,4.4-11.7,9.2-16.4,14.4c-4.8,5.1-8.1,8.3-10,9.5
		c-1.9,1.2-5,2.1-9.1,2.7s-8.3,0.3-8.8,0.2l-0.9-0.2c0,0-4.9-1.8-4.5-4.3c0.2-0.8,0.9-1.4,0.9-1.4l3-4.4c1.7-2.6,6.8-11,8.4-13.7
		c0,0,0.1,0,0.1,0C279.6,207.8,283.5,206.6,291.3,205.1z"/>
	<path class="st4" d="M369.9,158.2l1.7,0C370.9,158.2,370.3,158.2,369.9,158.2z"/>
	<path class="st5" d="M417.1,139.7c0,0-0.1,0-0.1,0c-0.2,0-0.5,0.1-0.7,0.1c-0.1,0-0.2,0-0.2,0L417.1,139.7z"/>
	<path class="st5" d="M414.7,140.1c0,0-0.1,0-0.1,0c0,0,0,0,0,0L414.7,140.1z"/>
	<path class="st5" d="M393.2,158.6c0,0-0.1,0-0.2,0L393.2,158.6z"/>
	<path class="st5" d="M383.9,110.9l-0.4,0.1l0.3,1.6l0.8,0l0.8,0.1l1.2,0.1l1.2,0.1l-0.1,0.3l-0.2,0.2l-0.2,0.2l-0.1,0.2l0,0.1
		l0,0.1l-0.1,0.2c0,0-0.1,0.1-0.1,0.1s-0.1,0.1-0.1,0.2c-0.1,0.2-0.2,0.4-0.4,0.6l-0.5,0.7h0l2.3-0.5c0.8-0.2,2-0.4,3.4-0.6
		c0.8-0.1,1.8-0.3,2.8-0.4c0.4-0.1,0.8-0.1,1.2-0.2l5.1-0.6l0.8,0.1l0.8,0l0,0.8l-0.1,0.8l-0.2,0.2l-0.1,0.3l-0.1,0.3
		c-0.1,0.1-0.5,0.4-1.1,0.8c-0.6,0.4-0.8,1-0.6,1.7s0,1.3-0.5,1.5c-0.5,0.3-0.2,0.5,1,0.8c0.3,0.1,0.6,0.2,0.8,0.3
		c0.8,0.3,1.4,0.8,1.9,1.3c0.4,0.5,0.6,0.8,0.6,1.1c0,0.1,0,0.2,0,0.2c0,0.1-0.1,0.2-0.3,0.2l-0.7,0.4l2.3-0.5
		c0.4-0.1,0.9-0.2,1.4-0.3c0.4-0.1,0.9-0.1,1.4-0.2c0.5-0.1,1.1-0.2,1.7-0.3c1.2-0.2,2.6-0.4,4.2-0.6l6.3-0.9l-1.5,0.7
		c-1,0.5-1.6,1.4-1.9,2.6c-0.3,1.2,0,1.8,0.7,1.6c0.8-0.2,1.4,0.3,1.9,1.4c0.5,1.1,0.9,3.1,1.2,5.9l0.4,4.1l-3.5,0.9l-3.4,0.9
		l0.1,0.4l0,0c0,0,0,0,0,0l0,0l-9.5,1c-0.1,0-0.2,0-0.2,0c-2.2,0.2-4.3,0.4-6.2,0.7c-0.2,0-0.4,0-0.5,0.1c-1.2,0.2-2.4,0.3-3.5,0.5
		c-0.2,0-0.4,0.1-0.6,0.1c-0.7,0.1-1.4,0.2-2,0.3l-0.1,0l-0.2,0c-0.9,0.2-1.7,0.3-2.5,0.5c-0.1,0-0.2,0-0.3,0.1l-6.6,1.3l0.2,0.2
		c-9.9,0.8-13.6,13.3-13.6,13.3h0c-2,0.5-3,1.2-2.8,2c0.1,0.5-0.1,0.8-0.6,0.8c-0.1,0-0.3,0-0.5,0c-0.2,0-0.4,0-0.6-0.1
		c-1.3-0.3-2.3-1.1-2.9-2.5c-0.4-0.7-1-1.2-2-1.4c-0.3-0.1-0.6-0.1-1-0.1c-0.2,0-0.5,0-0.8,0.1s-0.5,0.1-0.8,0.1
		c-2.3,0.5-5.1,2.1-8.3,4.9c-3.2,2.8-4.9,4.8-5,6.1c-0.1,1.2-0.2,2.5-0.2,3.8s-0.1,2.3-0.2,2.9c-0.2,0.6-0.2,1.2-0.3,1.8
		c0,0.7-0.5,1.6-1.6,2.6c-1.1,1-4.6,3.1-10.4,6.2c-5.8,3.1-10,5.7-12.5,7.8c0,0,0,0,0,0c-0.2,0.2-0.4,0.3-0.6,0.5
		c-1.2,0.9-2.8,1.8-4.3,2.7c-1.5,0.8-3,1.6-4.7,2.6c-0.7,0.4-8.5,4-15.8,5.7c-0.5,0.1-1,0.2-1.6,0.3c0,0,0,0,0,0
		c-7.8,1.5-11.2,2.3-11.9,3.2c-0.1,0.1-0.2,0.4-0.5,0.8c-1,0.2-3.7-1.5-6.9-3.5c-3.4-2-5.2-3.2-5.6-3.7l-0.5-0.7
		c0,0-0.3-0.4-0.5-1.1c-0.2-0.7,0.4-1.4,0.4-1.4c0.5-0.3,1.4-1.1,2.7-2.4l15.6-16.4c8-6.9,14.2-12.1,18.6-15.7s10.1-9.2,17.2-16.8
		s11.9-12.9,14.5-15.9s5.4-5.2,8.3-6.7c2.9-1.6,17.5-6.5,27.1-9.8l14.3-5l-0.1,0.4L383.9,110.9z"/>
	<path class="st5" d="M409.9,123c-0.6,0.1-1.2,0.2-1.7,0.3C408.8,123.2,409.3,123.1,409.9,123z"/>
	<path class="st5" d="M365,161c0.2,0,0.3,0,0.5,0C365.4,161,365.2,161,365,161z"/>
	<path class="st5" d="M420.4,139.1c-0.1,0-0.1,0-0.2,0c0,0,0,0-0.1,0L420.4,139.1z"/>
	<path class="st5" d="M419.4,139.2C419.4,139.2,419.4,139.2,419.4,139.2c-0.3,0.1-0.5,0.1-0.7,0.1L419.4,139.2z"/>
	<path class="st5" d="M419.4,139.2l-0.8,0.2l0.2,0C419,139.3,419.2,139.3,419.4,139.2z"/>
	<path class="st5" d="M388.4,143.5L388.4,143.5c0,0-0.3,0.1-0.7,0.2c-0.1,0-0.1,0-0.2,0l-0.9,0.2c-0.2,0-0.3,0.1-0.5,0.1
		c-0.3,0.1-0.7,0.2-1.1,0.3c0,0-0.1,0-0.1,0l-2,0.5c-0.2,0-0.4,0.1-0.5,0.1h0l-0.2-0.2l6.6-1.3c0.1,0,0.2,0,0.3-0.1
		c-0.1,0-0.2,0-0.3,0.1L388.4,143.5z"/>
	<path class="st5" d="M405,141.1c-0.1,0-0.2,0-0.2,0C404.8,141.1,404.9,141.1,405,141.1l9.5-1l0,0c0,0,0,0,0,0L405,141.1z"/>
	<path class="st5" d="M387.2,113.9l-0.1,0.2c0,0-0.1,0.1-0.1,0.1c0-0.1,0.1-0.1,0.1-0.1L387.2,113.9z"/>
	<polygon class="st5" points="386.6,115 386,115.7 386,115.7 	"/>
	<polygon class="st5" points="402.6,114.3 402.5,115.1 402.3,115.3 402.5,115.1 	"/>
	<path class="st5" d="M399.8,119.9c0.5-0.2,0.7-0.7,0.5-1.5s0-1.4,0.6-1.7c0.6-0.4,1-0.7,1.1-0.8c-0.1,0.1-0.2,0.6-0.2,1.4
		c0.1,0.8-0.4,1.5-1.3,2.1c-1,0.6-0.9,1,0.3,1.3C399.7,120.4,399.3,120.1,399.8,119.9z"/>
	<polygon class="st5" points="387.6,113.3 387.4,113.5 387.3,113.7 387.4,113.5 	"/>
	<polygon class="st5" points="387.9,112.9 387.8,113.1 387.6,113.3 387.8,113.1 	"/>
	<path class="st5" d="M401.6,121c0.8,0.3,1.4,0.8,1.9,1.3c0.4,0.5,0.6,0.8,0.6,1.1c0-0.3-0.2-0.6-0.6-1.1
		C403,121.8,402.4,121.3,401.6,121z"/>
	<path class="st5" d="M420.4,139.1l-0.3,0.1l-0.7,0.1l-0.7,0.1c-0.5,0.1-0.9,0.2-1.3,0.2l-0.2,0l-0.2,0l-1,0.2
		c-0.3,0.1-0.5,0.1-0.8,0.1l-0.4,0.1c-0.1,0-0.1,0-0.2,0l-0.1,0l0,0l0,0l-0.1-0.4l3.4-0.9l3.5-0.9l-0.4-4.1
		c-0.3-2.8-0.7-4.8-1.2-5.9c-0.5-1.1-1.1-1.5-1.9-1.4c-0.8,0.2-1-0.4-0.7-1.6c0.3-1.3,0.9-2.2,1.9-2.6l1.5-0.7l-6.3,0.9
		c0,0,13-7.9,6.8,11.4c0,0,2.4,1.7,1,5l-0.9,0.2C420.8,139,420.6,139,420.4,139.1z"/>
	<path class="st5" d="M417.3,139.6L417.3,139.6L417.3,139.6C417.4,139.6,417.4,139.6,417.3,139.6z"/>
	<path class="st5" d="M415.3,140c-0.1,0-0.2,0-0.2,0c-0.1,0-0.1,0-0.2,0L415.3,140z"/>
	<path class="st5" d="M421,138.9l0.9-0.2L421,138.9C421,138.9,421,138.9,421,138.9z"/>
	<path class="st5" d="M415.1,140l-0.4,0.1c0.1,0,0.1,0,0.2,0C414.9,140,415,140,415.1,140z"/>
	<path class="st5" d="M421.1,138.9l-0.7,0.1C420.6,139,420.8,139,421.1,138.9C421,138.9,421,138.9,421.1,138.9z"/>
	<path class="st5" d="M418.6,139.4l-1.2,0.2c0,0,0.1,0,0.1,0L418.6,139.4z"/>
	<path class="st5" d="M418.8,139.4l-0.2,0l-1.1,0.2C417.8,139.5,418.3,139.4,418.8,139.4z"/>
	<path class="st5" d="M384.7,112.1l0.7,0.4l1.2,0.1l-1.2-0.1l-0.8-0.1l-0.8,0l-0.3-1.6l0.4-0.1l0.2-0.4l0.1-0.4l0,0.8
		C384,111.4,384.2,111.8,384.7,112.1z"/>
	<path class="st5" d="M366.1,160.1c0.1,0.5-0.1,0.8-0.6,0.8C366,160.9,366.2,160.6,366.1,160.1c-0.2-0.8,0.8-1.4,2.8-2h0
		C366.9,158.7,365.9,159.4,366.1,160.1z"/>
	<path class="st5" d="M291.3,205.1C291.3,205.1,291.3,205.1,291.3,205.1C291.3,205.1,291.3,205.1,291.3,205.1
		c-7.8,1.5-11.7,2.7-12.2,4c0,0-0.1,0-0.1,0c0.2-0.4,0.4-0.7,0.5-0.8C280,207.4,283.5,206.6,291.3,205.1z"/>
	<path class="st5" d="M317.7,193.8c-1.3,1-2.7,1.9-4.3,2.7C315,195.7,316.6,194.7,317.7,193.8z"/>
	<path class="st5" d="M348.7,162.1c-3.2,2.8-4.9,4.8-5,6.1c-0.1,1.2-0.2,2.5-0.2,3.8c0,1.3-0.1,2.3-0.2,2.9
		c-0.2,0.6-0.2,1.2-0.3,1.8c0,0.7-0.5,1.6-1.6,2.6c-1.1,1-4.6,3.1-10.4,6.2s-10,5.7-12.5,7.8c0,0,0,0,0,0c0,0,0,0,0,0
		c2.5-2.1,6.7-4.7,12.5-7.8c5.8-3.1,9.3-5.1,10.4-6.2c1.1-1,1.7-1.9,1.6-2.6c0-0.7,0.1-1.3,0.3-1.8c0.2-0.6,0.2-1.5,0.2-2.9
		s0.1-2.6,0.2-3.8C343.8,166.9,345.5,164.9,348.7,162.1c3.2-2.8,6-4.5,8.3-4.9c0.3-0.1,0.6-0.1,0.8-0.1c-0.3,0-0.5,0.1-0.8,0.1
		C354.7,157.6,351.9,159.3,348.7,162.1z"/>
	<path class="st5" d="M308.7,199.1c-3.6,2-8.9,4.2-15.8,5.7C300.2,203.1,308,199.5,308.7,199.1z"/>
	<polygon class="st7" points="388.6,170.6 388.8,170.4 388.9,170.3 388.8,170.4 	"/>
	<polygon class="st7" points="382.3,162.7 383.5,162.2 384.9,161.5 383.5,162.2 	"/>
	<polygon class="st7" points="388,159.7 388.3,160 388.5,160.1 388.7,160.3 388.9,160.5 389.2,160.7 389.7,161.4 390.3,162
		390.6,162.2 390.8,162.4 391,162.6 391.2,162.7 391.5,162.8 391.7,163 391.9,163.2 391.9,163.2 391.9,163.2 391.9,163.2 391.7,163
		391.5,162.8 391.2,162.7 391,162.6 390.8,162.4 390.6,162.2 390.3,162 389.7,161.4 389.2,160.7 388.9,160.5 388.7,160.3
		388.5,160.1 388.3,160 388,159.7 387.7,159.3 387.7,159.3 387.7,159.3 	"/>
	<path class="st7" d="M390,159.1C390,159.1,389.9,159.1,390,159.1l-0.4-0.1L390,159.1C389.9,159.1,390,159.1,390,159.1z"/>
	<path class="st7" d="M388.2,158.5c0.2,0,0.5,0,0.7,0l0.1,0c0.2,0.1,0.4,0.2,0.4,0.3l0.3,0.1l0.3,0.1c0,0,0,0,0.1,0c0,0,0.1,0,0.2,0
		c0.1,0,0.3,0,0.4,0c0.4,0,0.9-0.1,1.5-0.2c0.3-0.1,0.7-0.1,1.1-0.2l-1.3,4.6l0,0l-0.2-0.2l-0.2-0.2l-0.3-0.1l-0.3-0.1l-0.2-0.2
		l-0.2-0.2l-0.3-0.1l-0.5-0.7l-0.5-0.7l-0.3-0.1l-0.2-0.2l-0.2-0.2l-0.3-0.1l-0.3-0.3l-0.2-0.4v0C387.7,159.3,388.3,159,388.2,158.5
		z"/>
	<path class="st7" d="M388.3,160l0.3,0.1l0.2,0.2l0.2,0.2l0.3,0.1l0.5,0.7l0.5,0.7l0.3,0.1l0.2,0.2l0.2,0.2l0.3,0.1l0.3,0.1l0.2,0.2
		l0.2,0.2l0,0l-4.3,15.2l-0.9-0.6l-0.2-0.2l-0.3-0.1l-0.3-0.1l-0.2-0.2l-0.2-0.2l-0.3-0.1l-0.3-0.1l-0.2-0.2l-0.9-0.2l-0.9-0.2
		l-0.8-0.1l-0.8,0l0-0.8l0.1-0.8l0.2-0.2l0.1-0.3l3-1l3-1l0.1-0.3l0.2-0.2l0.2-0.2l0.1-0.3l0.1-0.3l0.2-0.2l0.1-0.1l0.1-0.1l0.1-0.3
		l-0.9-0.2l-0.9-0.2l-0.2-0.2l-0.3-0.1l-0.3-0.1l-0.2-0.2l-2.2-0.8c-0.7-0.3-1.4-0.5-1.9-0.6c-0.3-0.1-0.6-0.1-0.8-0.2
		s-0.5-0.1-0.7-0.1l-1.2-0.1l0.7-0.5l0.7-0.5l-0.9-0.2l-0.9-0.2l1.1-0.5l1.1-0.4l-0.3-1.6l1.1-0.4l1.1-0.5l1.5-0.7
		c1-0.5,1.7-0.9,2.1-1.4l0.6-0.8l0.2,0.4L388.3,160z"/>
	<path class="st7" d="M372.2,173.8c-4.9-6.7-3.3-15.6-3.3-15.6l0.2,0c0.1,0,0.1,0,0.2,0c0.1,0,0.3,0,0.5,0c0.4,0,1,0,1.7,0l0.5,0
		c0.4,0,0.7,0,1.1,0l0.8,0c0.5,0,1,0,1.5,0l1.7,0c0.3,0,0.7,0,1,0l1.1,0c0.6,0,1.1,0,1.7,0l1.7,0c0.4,0,0.8,0,1.2,0l1,0
		c0.6,0,1.2,0,1.7,0l0.9,0l0.2,0.8l0,0l-0.6,0.8c-0.4,0.5-1.2,0.9-2.1,1.4l-1.5,0.7l-1.1,0.5l-1.1,0.4l0.3,1.6l-1.1,0.4l-1.1,0.5
		l0.9,0.2l0.9,0.2l-0.7,0.5l-0.7,0.5l1.2,0.1c0.2,0,0.4,0.1,0.7,0.1s0.5,0.1,0.8,0.2c0.6,0.2,1.2,0.4,1.9,0.6l2.2,0.8l0.2,0.2
		l0.3,0.1l0.3,0.1l0.2,0.2l0.9,0.2l0.9,0.2l-0.1,0.3l-0.1,0.1l-0.1,0.1l-0.2,0.2l-0.1,0.3l-0.1,0.3l-0.2,0.2l-0.2,0.2l-0.1,0.3l-3,1
		l-3,1l-0.1,0.3l-0.2,0.2l-0.1,0.8l0,0.8l0.8,0l0.8,0.1l0.9,0.2l0.9,0.2l0.2,0.2l0.3,0.1l0.3,0.1l0.2,0.2l0.2,0.2l0.3,0.1l0.3,0.1
		l0.2,0.2l0.2,0.2l0.3,0.1l0.5,0.3C387.6,178.4,377.1,180.5,372.2,173.8z"/>
	<path class="st7" d="M388.2,158.5c0.1,0.4-0.5,0.8-0.5,0.8l-0.2-0.8l0.5,0C388.1,158.5,388.2,158.5,388.2,158.5z"/>
	<polygon class="st7" points="386.6,169.1 386.9,169.2 387.2,169.3 387.4,169.5 387.2,169.3 386.9,169.2 386.6,169.1 386.4,168.9
		384.3,168.1 386.4,168.9 	"/>
	<polygon class="st7" points="388.9,170.3 389,170.2 389.1,170 389,170.2 	"/>
	<polygon class="st7" points="386.6,177.7 386.4,177.5 386.2,177.4 386.4,177.5 	"/>
	<polygon class="st7" points="386.8,177.9 386.6,177.7 387.6,178.4 387.6,178.4 387.1,178 	"/>
	<polygon class="st7" points="386.2,177.4 385.9,177.3 385.7,177.1 385.9,177.3 	"/>
	<polygon class="st7" points="381.5,164.6 381.2,163.1 382.3,162.7 381.2,163.1 	"/>
	<path class="st7" d="M379.6,167.1l1.2,0.1c0.2,0,0.4,0.1,0.7,0.1c-0.2-0.1-0.5-0.1-0.7-0.1L379.6,167.1l0.7-0.5l0.7-0.5l-0.7,0.5
		L379.6,167.1z"/>
	<polygon class="st7" points="381.4,176 381.4,175.2 381.5,174.3 381.4,175.2 	"/>
	<polygon class="st7" points="383.1,176 383.9,176.3 384.8,176.5 385,176.7 384.8,176.5 383.9,176.3 383.1,176 382.2,176 381.4,176
		382.2,176 	"/>
	<polygon class="st7" points="385.7,177.1 385.5,176.9 385.2,176.8 385.5,176.9 	"/>
	<polygon class="st7" points="388,171.6 388.2,171.4 388.4,171.2 388.2,171.4 	"/>
	<polygon class="st7" points="384.8,172.9 381.8,173.9 381.7,174.1 381.8,173.9 384.8,172.9 387.9,171.8 388,171.6 387.9,171.8 	"/>
	<path class="st7" d="M390.7,159.1c-0.2,0-0.3,0-0.4,0c-0.1,0-0.1,0-0.2,0c0,0-0.1,0-0.1,0l-0.3-0.1l-0.2-0.4l0.5,0
		c0.2,0,0.4,0,0.6,0l1.7,0l0.5,0l0.2,0c0.1,0,0.2,0,0.2,0c-0.4,0.1-0.7,0.1-1.1,0.2C391.5,158.9,391,159,390.7,159.1z"/>
	<path class="st7" d="M390.7,159.1c0.4,0,0.9-0.1,1.5-0.2C391.5,158.9,391,159,390.7,159.1z"/>
	<path class="st7" d="M393.2,158.6L393.2,158.6c-0.4,0.1-0.7,0.1-1.1,0.2C392.5,158.8,392.8,158.7,393.2,158.6z"/>
	<path class="st7" d="M389.4,158.8c0,0-0.2-0.2-0.4-0.3l0.5,0l0.2,0.4L389.4,158.8z"/>
	<path class="st6" d="M371,157.8c2.1-0.3,5-0.3,8.7-0.2l7.7,0.2l-7.7-0.2C376,157.5,373.1,157.5,371,157.8z"/>
	<path class="st6" d="M391.7,142.8L391.7,142.8c0.1,0,0.2,0,0.2,0l0,0C391.9,142.8,391.8,142.8,391.7,142.8z"/>
	<path class="st6" d="M397.1,155.8l-1.5-6.3l-0.2-0.2l-0.2-0.2l-0.3-0.1l-1.3-1.2c-0.2-0.2-0.4-0.4-0.7-0.5
		c-0.8-0.4-1.7-0.6-2.9-0.6h0h0c0,0-1.7,0.1-2.6-0.1c-1.2-1.5-4.4-1.5-4.4-1.5l-0.3-0.1l-0.3-0.1c0.1,0,0.3-0.1,0.5-0.1
		c0.6-0.1,1.3-0.3,2-0.5c0,0,0.1,0,0.1,0c0.4-0.1,0.7-0.2,1.1-0.3c0.2,0,0.3-0.1,0.5-0.1c0.4-0.1,0.7-0.2,0.9-0.2c0.1,0,0.1,0,0.2,0
		l0.7-0.2l3.3-0.6c0.1,0,0.2,0,0.2,0l3.9-0.5l1.7,14.7l-4.3,1.7l3.6-2L397.1,155.8z"/>
	<path class="st6" d="M387.8,157.9c0.2,0.1,0.8,0.4,1.2,0.7l-0.1,0c-0.2,0-0.5,0-0.7,0c0,0,0-0.1,0-0.1c-0.4-0.6-0.8-0.6-0.8-0.6h0
		L387.8,157.9z"/>
	<path class="st6" d="M379.7,157.6l7.7,0.2l0.1,0.7l-0.9,0c-0.5,0-1.1,0-1.7,0l-1,0c-0.4,0-0.8,0-1.2,0l-1.7,0c-0.6,0-1.1,0-1.7,0
		l-1.1,0c-0.3,0-0.7,0-1,0l-1.7,0c-0.5,0-1,0-1.5,0l-0.8,0c-0.4,0-0.8,0-1.1,0l-0.5,0l-1.7,0l-0.5,0c-0.1,0-0.2,0-0.2,0
		c-0.1,0-0.2,0-0.2,0c0.6-0.2,1.3-0.3,2.1-0.4C373.1,157.5,376,157.5,379.7,157.6z"/>
	<path class="st6" d="M388.2,158.4C388.2,158.5,388.2,158.5,388.2,158.4c0,0.1-0.1,0.1-0.1,0.1l-0.5,0l-0.1-0.7
		C387.4,157.8,387.8,157.9,388.2,158.4z"/>
	<path class="st6" d="M391.9,142.8L391.9,142.8c0,0-0.1,0-0.2,0L391.9,142.8z"/>
	<path class="st6" d="M383,145.1l0.2,0.2l1.2,0.1l1.2,0.1l0.2,0.2l0.3,0.1l0.3,0.1l0.2,0.2l0.2,0.2l0.3,0.1l0.3,0.1l0.2,0.2l2.4-0.1
		h0h0c1.2,0,2.2,0.1,2.9,0.6c0.3,0.1,0.5,0.3,0.7,0.5l1.3,1.2l0.3,0.1l0.2,0.2l0.2,0.2l1.5,6.3l-0.2,0.9l-3.6,2l-0.2,0l-0.2,0
		c-0.1,0-0.3,0-0.5,0c-0.4,0-1,0-1.7,0c-0.2,0-0.4,0-0.6,0l-0.5,0l-0.2-0.3l-0.3-0.7l-1.6,0.3l-7.7-0.2c-3.7-0.1-6.6-0.1-8.7,0.2
		c-0.8,0.1-1.5,0.2-2.1,0.4c0,0,3.7-12.5,13.6-13.3l0.3,0.1L383,145.1z"/>
	<path class="st6" d="M392.8,158.6l-0.5,0C392.5,158.6,392.7,158.6,392.8,158.6z"/>
	<polygon class="st6" points="396.9,156.7 393.2,158.6 393.2,158.6 	"/>
	<path class="st6" d="M387.6,143.7c-0.3,0.1-0.6,0.1-0.9,0.2L387.6,143.7z"/>
	<path class="st6" d="M387.8,157.9l-0.4-0.1h0l1.6-0.3l0.3,0.7l0.2,0.3l-0.5,0C388.6,158.3,388,157.9,387.8,157.9z"/>
	<path class="st6" d="M388.4,143.5L388.4,143.5l-0.7,0.2C388.2,143.5,388.4,143.5,388.4,143.5z"/>
	<path class="st6" d="M387.4,146.7c0.9,0.2,2.6,0.1,2.6,0.1l-2.4,0.1L387.4,146.7l-0.3-0.1l-0.3-0.1l-0.2-0.2l-0.2-0.2l-0.3-0.1
		l-0.3-0.1l-0.2-0.2l-1.2-0.1l-1.2-0.1l-0.2-0.2C383,145.1,386.1,145.2,387.4,146.7z"/>
	<path class="st6" d="M385,144.3c-0.7,0.2-1.4,0.4-2,0.5L385,144.3z"/>
	<polygon class="st6" points="382.8,145 383,145.1 382.8,145 382.5,144.9 382.5,144.9 	"/>
	<polygon class="st6" points="395.6,149.5 397.1,155.8 396.9,156.7 397.1,155.8 395.6,149.5 395.4,149.3 395.2,149.1 395.4,149.3
		"/>
	<path class="st6" d="M394.9,149l0.3,0.1L394.9,149l-1.3-1.2c-0.2-0.2-0.4-0.4-0.7-0.5c0.3,0.1,0.5,0.3,0.7,0.5L394.9,149z"/>
	<path class="st6" d="M369.3,158.2l0.5,0C369.6,158.2,369.5,158.2,369.3,158.2z"/>
	<path class="st6" d="M368.9,158.2c0,0,0.1,0,0.2,0L368.9,158.2z"/>
	<path class="st6" d="M392.3,158.6l-1.7,0C391.3,158.6,391.8,158.6,392.3,158.6z"/>
</g>
</svg>
