<?xml version="1.0" encoding="utf-8"?>
<!-- Remastered by steve empty soul -->
<svg version="1.1" id="Cohecean_Logo" xmlns="http://www.w3.org/2000/svg" xmlns:xlink="http://www.w3.org/1999/xlink" x="0px" y="0px"
	 viewBox="0 0 841.9 595.3" style="" xml:space="preserve">
<style type="text/css">
	.coheceanLogo-component0{fill:#49A2DA;}
	.coheceanLogo-component1{fill:#3577BC;}
	.coheceanLogo-component2{fill:#4284C5;}
	.coheceanLogo-component3{fill:#7CCEF3;}
	.coheceanLogo-component4{fill:#5EB3E6;}
	.coheceanLogo-component5{fill:#4B8AC7;}
	.coheceanLogo-component6{fill:#4B8AC8;}
	.coheceanLogo-component7{fill:none;}
	.coheceanLogo-component8{fill:#432919;}
	.coheceanLogo-component9{fill:#B27F4A;}
	.coheceanLogo-component10{fill:none;stroke:#B27F4A;stroke-width:3;stroke-miterlimit:10;}
</style>
<g>
	<path class="coheceanLogo-component0" d="M242.55,480.47c-7.46,1.74-14.99,3.15-22.4,5.14c-10.68,2.87-20.14,7.92-28.65,14.96
		c-10.3,8.53-19.84,17.85-29.26,27.3c-6.77,6.79-13.53,13.59-20.32,20.37c-2.88,2.88-5.97,5.55-9.05,8.21
		c-2.67,2.3-5.45,3.02-9.03,2.42c-11.05-1.84-20.59-6.65-29.04-13.84c-4.22-3.59-8.01-7.56-11.01-12.24
		c7.54-6.52,13.63-14.1,17.36-23.44c1.21-3.01,2.87-5.84,5.31-7.89c5.48-4.59,9.37-10.44,13.46-16.14
		c3.82-5.32,7.47-10.76,10.85-16.38c0.95-1.59,1.74-3.21,1.95-5.1c0.36-3.28,1.98-5.72,5.13-6.92c3.91-1.49,6.41-4.34,8.11-8.04
		c1.65-3.58,4.49-5.98,7.95-7.66c4.86-2.35,8.69-5.62,10.57-10.87c0.43-1.21,1.28-2.19,2.34-2.98c9.11-6.77,19.02-12.31,28.57-18.4
		c5.4-3.44,11.69-5.11,17.54-7.67c5.29-1.97,10.85-3.23,15.8-6.09c1.29-0.74,2.69-0.99,4.11-0.29c0.18,0.18,0.32,0.49,0.15,0.62
		c-3.25,2.38-4.74,6.19-7.4,9.05c-1.14,1.22-2.29,2.42-3.51,3.57c-1.55,1.46-2.71,3.32-3,5.58c-0.34,2.68-1.22,5.04-3.47,6.86
		c-1.51,1.23-1.43,2.86,0,4.44c2.15,2.37,3.85,4.88,4,8.21c0.03,0.61,0.07,1.41,0.71,1.7c0.83,0.37,1.01-0.55,1.4-0.98
		c0.95-1.06,1.92-0.98,2.94-0.15c0.44,0.36,0.77,0.81,1.09,1.27c1.97,2.8,2.29,2.78,3.77-0.28c0.28-0.58,0.49-1.28,1.24-1.29
		c0.74-0.01,1.01,0.7,1.32,1.25c0.62,1.05,1.07,2.18,1,3.41c-0.34,5.58,2.54,9.73,5.93,13.7c4.7,5.49,10.68,8.76,17.68,10.33
		c2.16,0.48,2.27,1.06,0.84,2.75c0.56-0.16,1.3-0.54,1.43,0.79c-1.29,1.33-2.93,1.04-4.49,0.91c-1.35-0.11-2.69-0.38-3.98-0.78
		c-2.89-0.91-4.83,0.98-6.97,2.25c-0.63,0.38-0.43,1.13-0.27,1.76c0.25,1.02,0.56,2.08,1.24,2.82c1.64,1.8,1.03,4.24,1.94,6.24
		c0.38,0.84-0.5,1.19-1.26,1.31C244.28,480.39,243.39,480.08,242.55,480.47z"/>
	<path class="coheceanLogo-component0" d="M590.36,80.03c2.56-0.17,5.01-0.94,7.5-1.47c7.33-1.57,14.66-3.11,21.8-5.44c8.64-2.81,16.2-7.43,23.2-13.12
		c9.93-8.07,19.06-17,28.09-26.05c6.77-6.78,13.51-13.6,20.29-20.37c3.84-3.84,7.78-7.58,12.13-10.84c1.81-1.36,3.64-1.83,6-1.53
		c12.59,1.62,23.19,7.25,32.43,15.69c3.36,3.07,6.52,6.34,8.89,10.28c-3.45,3.2-6.43,6.84-9.44,10.44
		c-1.91,2.29-3.54,4.73-4.85,7.39c-1.31,2.65-2.58,5.33-3.98,7.93c-1.6,2.97-3.52,5.71-6.3,7.75c-1.95,1.44-3.4,3.38-4.84,5.29
		c-6.28,8.38-12.3,16.94-17.73,25.91c-0.98,1.62-1.62,3.3-1.74,5.17c-0.17,2.55-1.42,4.34-3.65,5.52c-0.78,0.41-1.54,0.85-2.34,1.21
		c-2.91,1.28-5,3.34-6.33,6.24c-1.9,4.15-4.93,7.16-9.07,9.17c-4.49,2.18-8.22,5.2-9.98,10.16c-0.57,1.61-1.76,2.8-3.19,3.79
		c-5.91,4.09-12.03,7.87-17.99,11.85c-8.6,5.75-17.76,10.07-27.34,13.69c-5.27,2.24-11.01,3.25-15.98,6.28
		c-1.19,0.73-2.56,0.86-3.89,0.2c-0.19-0.17-0.33-0.49-0.17-0.61c3.19-2.42,4.85-6.1,7.31-9.11c1.66-2.04,4.17-3.24,5.32-5.76
		c0.43-0.95,0.93-1.85,1.1-2.89c0.46-2.72,1.24-5.22,3.45-7.18c1.39-1.23,1.39-3.43-0.01-4.75c-2.35-2.21-3.56-4.84-3.86-7.99
		c-0.06-0.62-0.14-1.4-0.89-1.56c-0.65-0.14-0.88,0.57-1.22,0.99c-1.11,1.35-2.18,1.03-3.22-0.08c-0.16-0.17-0.29-0.38-0.42-0.58
		c-2.2-3.07-2.21-3.08-4.31,0.15c-0.76,1.17-1.51,1.02-2.24,0.03c-0.68-0.92-1.1-1.98-1.07-3.13c0.19-7.91-4.36-13.26-9.8-18.1
		c-3.54-3.15-7.73-5.19-12.31-6.14c-2.55-0.53-3.9-1.49-3.66-4.17c2.72-1.26,5.42-0.66,8.13,0.04c2.05,0.53,6.2-0.78,7.35-2.31
		c0.32-0.43,0.24-0.9,0.12-1.37c-0.26-1-0.49-2.12-1.16-2.84c-1.68-1.82-1.22-4.28-2.1-6.35C587.71,79.96,589.4,80.15,590.36,80.03z
		"/>
	<path class="coheceanLogo-component1" d="M622.03,158.22c0.48-0.6,1.19-0.75,1.86-1c4.99-1.9,9.94-3.88,14.72-6.28c1.79-0.9,3.5-1.9,5.07-3.14
		c2.76-2.18,5.76-4,8.9-5.55c3.59-1.78,6.8-4.14,9.94-6.57c1.33-1.03,2.71-1.97,4.13-2.83c1.65-1,2.85-2.36,3.45-4.14
		c1.58-4.64,5.03-7.57,9.18-9.58c4.68-2.26,8.08-5.53,10.15-10.26c1.03-2.35,2.83-3.99,5.13-5.13c1.43-0.71,2.87-1.37,4.22-2.25
		c1.55-1,2.28-2.4,2.4-4.16c0.13-2.02,0.72-3.81,1.78-5.6c5.38-9.05,11.52-17.57,17.74-26.03c1.73-2.36,3.7-4.53,6.1-6.35
		c2.3-1.74,3.82-4.24,5.17-6.8c2.16-4.09,3.77-8.49,6.47-12.26c2.12-2.97,4.59-5.69,6.94-8.49c1.27-1.52,2.48-3.11,4.22-4.16
		c0.33-0.2,0.73-0.31,1.09-0.46c1.09,0.99,1.67,2.32,2.37,3.57c8.4,15,15.71,30.53,22.93,46.12c1.88,4.06,3.62,8.18,5.55,12.21
		c0.66,1.38,0.53,2.3-0.57,3.32c-3.05,2.83-5.96,5.79-9.04,8.59c-20.17,18.33-40.61,36.36-61.16,54.27
		c-15.47,13.49-32.09,25.35-49.89,35.56c-3.19,1.83-6.33,3.74-9.46,5.67c-10.03,6.2-20.89,10.27-32.43,12.57
		c-1.01,0.2-1.99,0.62-3.06,0.55c-1.66,0.47-2.21-0.75-2.83-1.85c-0.15-0.3-0.29-0.6-0.4-0.92c-0.07-0.21-0.11-0.43-0.11-0.66
		c0.02-0.11,0.04-0.22,0.05-0.33c0.04-0.1,0.09-0.21,0.14-0.31c0.19-0.29,0.45-0.52,0.74-0.7c0.4-0.25,0.83-0.45,1.29-0.59
		c9.29-2.39,18.49-5.07,27.48-8.43c0.74-0.23,1.49-0.42,2.23-0.65c0.29-0.1,0.58-0.18,0.86-0.28c0.27-0.09,0.54-0.16,0.82-0.23
		c0.25-0.08,0.49-0.16,0.73-0.25c0.13-0.06,0.25-0.14,0.35-0.25c0.01-0.16-0.04-0.3-0.17-0.41c-0.69-0.61-1.36-1.21-1.5-2.18
		c-0.03-0.21-0.03-0.43-0.01-0.64c0.03-0.21,0.08-0.42,0.15-0.63c0.11-0.3,0.25-0.6,0.38-0.9c0.38-1.23,1.65-2.57-0.49-3.44
		c-0.28-0.15-0.54-0.33-0.78-0.54c-0.6-0.57-0.3-1.05,0.15-1.52c0.17-0.19,0.32-0.38,0.4-0.63c0.03-0.23,0.01-0.45-0.09-0.67
		c-0.13-0.2-0.32-0.32-0.56-0.38c-0.18-0.02-0.35-0.05-0.52-0.08c-0.19-0.03-0.38-0.07-0.56-0.13c-0.2-0.07-0.38-0.17-0.56-0.28
		c-0.29-0.19-0.51-0.43-0.64-0.76c-0.04-1.12,0.85-1.16,1.58-1.35c1.59-0.41,3.22-0.59,4.83-0.87c0.23-0.03,0.47-0.04,0.7-0.05
		c0.34-0.02,0.68-0.04,1.02-0.09c0.33-0.07,0.66-0.15,0.98-0.23c1.08-0.22,2.18-0.12,3.26-0.18c0.19-0.03,0.38-0.06,0.57-0.1
		c0.08-0.03,0.17-0.06,0.26-0.09c0.15-0.08,0.31-0.16,0.45-0.25c0.2-0.15,0.39-0.31,0.57-0.48c0.15-0.19,0.26-0.4,0.3-0.65
		c-0.01-0.17-0.01-0.34-0.04-0.51c-0.07-0.25-0.16-0.5-0.27-0.73c-0.14-0.21-0.33-0.35-0.59-0.38c-0.35,0.03-0.67,0.16-1,0.25
		c-0.27,0.06-0.54,0.07-0.81,0.01c-0.34-0.09-0.67-0.22-1.01-0.32c-0.17-0.04-0.33-0.1-0.49-0.17c-0.23-0.1-0.46-0.22-0.68-0.33
		c-0.15-0.07-0.29-0.15-0.43-0.23c-0.14-0.09-0.26-0.19-0.38-0.29c0,0.01-0.18-0.15-0.19-0.14c-0.2-0.13-0.41-0.21-0.65-0.25
		c-0.25-0.02-0.5-0.03-0.75-0.04c-0.18-0.01-0.36-0.03-0.53-0.07c-0.18-0.04-0.36-0.09-0.53-0.14c-0.37-0.1-0.74-0.14-1.12-0.15
		c-0.61,0-1.21,0-1.81,0.05c-0.41,0.04-0.82,0.13-1.21,0.24c-0.52,0.12-1.04,0.14-1.56,0.04c-0.49-0.12-0.98-0.15-1.47-0.01
		c-0.51,0.1-1.02,0.1-1.52-0.02c-0.39-0.1-0.77-0.21-1.16-0.27c-0.39-0.04-0.78-0.05-1.16-0.04c-0.39,0.03-0.77,0.11-1.14,0.23
		c-0.1,0.03-0.19,0.06-0.29,0.09c-0.2,0.06-0.4,0.09-0.61,0.11c-0.62,0.05-1.25,0.05-1.87,0.05c-0.31,0.01-0.62,0.01-0.94,0.03
		c-0.21,0.04-0.42,0.07-0.63,0.11c-0.32,0.09-0.64,0.18-0.97,0.25c-0.81,0.16-1.64,0.15-2.46,0.17c-0.49,0-0.97,0-1.46,0.01
		c-0.74,0-1.48,0-2.22-0.02c-0.36-0.01-0.72-0.05-1.08-0.11c-1-0.25-2.02-0.42-3.06-0.38c-0.32,0.01-0.64,0.02-0.96,0.05
		c-0.6,0.09-1.19,0.27-1.8,0.31c-0.19,0.02-0.38,0.03-0.57,0.03c-0.18,0.02-0.36,0.02-0.55,0.04c-0.26,0.05-0.52,0.12-0.77,0.2
		c-0.25,0.08-0.51,0.13-0.78,0.16c-0.17,0.02-0.35,0.03-0.52,0.04c-0.17,0.03-0.34,0.05-0.51,0.08c-0.26,0.08-0.51,0.17-0.76,0.26
		c-0.27,0.09-0.54,0.15-0.82,0.21c-0.19,0.06-0.38,0.1-0.58,0.15c-0.83,0.2-1.65,0.33-2.14-0.63c-0.13-0.27-0.25-0.55-0.36-0.83
		c-0.09-0.18-0.17-0.36-0.25-0.55c-0.13-0.28-0.23-0.56-0.28-0.86c-0.05-0.88,0.42-1.55,0.87-2.23c0.16-0.25,0.32-0.5,0.47-0.75
		c0.33-0.6,0.61-1.21,0.91-1.82c0.17-0.34,0.36-0.67,0.54-1c0.09-0.17,0.2-0.32,0.32-0.47c0.11-0.15,0.24-0.3,0.37-0.44
		c0.06-0.07,0.13-0.14,0.2-0.21c0.13-0.15,0.27-0.28,0.41-0.42c0.35-0.34,0.73-0.64,1.14-0.91c0.15-0.12,0.31-0.23,0.47-0.34
		c0.07-0.06,0.15-0.12,0.22-0.18c0.14-0.13,0.28-0.25,0.42-0.38c0.42-0.38,0.86-0.74,1.33-1.05c0.15-0.11,0.3-0.22,0.45-0.33
		c0.07-0.06,0.14-0.12,0.21-0.18c0.13-0.13,0.28-0.25,0.42-0.38c0.42-0.38,0.86-0.75,1.34-1.06c0.15-0.12,0.31-0.23,0.47-0.35
		c0.07-0.07,0.15-0.13,0.22-0.19c0.14-0.14,0.29-0.28,0.45-0.41C620.93,158.82,621.54,158.61,622.03,158.22z"/>
	<path class="coheceanLogo-component1" d="M212.82,401.86c-3.25,1.73-6.75,2.84-10.13,4.26c-4.64,1.95-9.17,4.08-13.11,7.27
		c-1.81,1.47-3.79,2.67-5.85,3.7c-4.15,2.08-8.01,4.59-11.63,7.48c-1.3,1.04-2.69,2.02-4.16,2.79c-1.52,0.8-2.52,1.99-3.06,3.51
		c-1.74,4.89-5.16,8.18-9.72,10.35c-4.18,1.99-7.43,4.79-9.33,9.13c-1.35,3.09-3.61,5.4-6.84,6.65c-0.22,0.09-0.42,0.23-0.65,0.32
		c-3.36,1.28-5.01,3.8-5.13,7.31c-0.05,1.45-0.75,2.61-1.43,3.75c-3.72,6.22-7.77,12.22-11.98,18.13c-2.49,3.5-5.05,6.95-7.7,10.33
		c-0.7,0.89-1.4,1.78-2.29,2.43c-4.04,2.97-6.7,6.89-8.61,11.5c-2.21,5.32-5.28,10.14-9.12,14.5c-1.95,2.22-3.95,4.37-6.03,6.47
		c-0.64,0.64-1.28,1.21-2.28,1.07c-1.56-1.94-2.64-4.17-3.82-6.34c-9.79-18.13-18.45-36.81-26.91-55.59
		c-0.58-1.29-0.22-2.04,0.64-2.91c4.61-4.66,9.46-9.06,14.32-13.45c17.45-15.72,35.06-31.25,52.71-46.74
		c11.97-10.5,24.42-20.37,37.8-28.99c7.98-5.15,16.31-9.75,24.37-14.78c11-6.86,22.98-10.99,35.63-13.43
		c0.31-0.06,0.63-0.04,0.95-0.06c1.8,0.31,2.3,1.82,2.73,3.21c0.37,1.2-0.65,1.67-1.6,1.98c-1.9,0.63-3.88,0.94-5.78,1.54
		c-6,1.47-11.78,3.64-17.67,5.46c-2.56,0.88-5.11,1.83-7.7,2.64c-1.07,0.33-1.82,0.7-0.85,1.95c1.04,1.34,0.58,2.72-0.11,4.04
		c-0.57,1.1-0.83,2.11,0.58,2.8c0.21,0.1,0.54,0.29,0.53,0.45c-0.11,2.03,1.15,3.19,2.39,4.57c0.76,0.85-0.67,1.19-1.35,1.34
		c-3.12,0.68-6.28,1.14-9.46,1.41c-0.97,0.08-1.92,0.18-2.6,0.98c-0.32,0.38-0.5,0.82-0.38,1.33c0.15,0.6,0.66,0.67,1.14,0.62
		c1.59-0.14,2.94,0.52,4.33,1.16c1.47,0.68,3.06,0.83,4.67,0.86c5.27,0.1,10.52-0.11,15.75-0.86c1.74-0.25,3.56-0.36,5.25-0.02
		c4.14,0.82,8.09-0.03,12.06-0.94c1.17-0.27,2.4-0.67,3.22,0.67c0.84,1.37,0.95,2.66,0.23,4.27
		C222.38,395.52,217.59,398.66,212.82,401.86z"/>
	<path class="coheceanLogo-component2" d="M212.82,401.86c0.82-1.56,2.4-2.3,3.66-3.37c1.15-0.98,2.45-1.77,3.59-2.75c1.07-0.92,2.17-1.83,2.58-3.35
		c0.29-1.06,0.91-2.02,1.71-2.85c0.58-0.59,0.77-1.26,0.43-2.17c-0.87-2.31-0.81-2.3-3.2-1.78c-2.86,0.63-5.69,1.44-8.67,1.43
		c-1.23,0-2.33-0.5-3.53-0.53c-3.83-0.09-7.6,0.54-11.39,0.8c-4.43,0.3-8.91,0.6-13.35-0.27c-0.73-0.14-1.41-0.35-1.98-0.78
		c-1.18-0.89-2.47-1.05-3.82-0.65c-1.1,0.33-1.45-0.11-1.52-1.12c-0.13-1.9,1.04-3.16,3.27-3.23c3.81-0.12,7.49-0.99,11.29-1.6
		c-0.28-0.91-0.9-1.1-1.63-1.32c-1.86-0.55-1.93-0.79-0.87-2.46c0.36-0.56,0.17-0.9-0.29-1.16c-0.73-0.41-1.9-0.29-2.05-1.37
		c-0.13-0.89,0.58-1.62,0.96-2.4c1.15-2.41,1.13-2.57-1.01-4.38c-0.17-0.14-0.26-0.38-0.56-0.85c3.59-1.25,7.08-2.45,10.57-3.66
		c1.61,0.65,2.89-0.45,4.24-0.92c4.47-1.54,9.1-2.62,13.5-4.37c1.43-0.89,3.14-0.87,4.68-1.41c0.59-0.21,1.21-0.34,1.81-0.52
		c0.71-0.22,0.83-0.76,0.46-1.29c-0.72-1.03-1.27-2.18-2.2-3.05c0.57-0.43,1.23-0.29,1.85-0.26c7.51,0.35,15.02,0.32,22.53,0.28
		c2.76-0.01,5.45,0.41,7.94,1.54c10.56,4.8,21.63,8.21,32.58,11.95c11.33,3.87,22.67,7.7,33.92,11.79
		c7.84,2.85,14.81,7.06,21.38,12.09c4.2,3.21,8.13,6.73,11.97,10.33c4.81,4.5,10.51,7.19,16.78,8.82c4.48,1.16,8.99,2.19,13.49,3.27
		c0.46,0.11,0.95,0.15,1.42,0.17c15.33,0.44,30.67,0.88,46.01,0.5c7.87-0.19,15.61,0.81,23.33,2.15c2.83,0.49,5.69,0.78,8.54,1.15
		c0.8,0.1,1.56-0.01,2.36-0.22c0.99-0.26,1.94-0.77,3.02-0.68c2.31-0.06,4.59-0.09,6.85,0.61c5.07,1.57,8.18,5.04,10.04,9.86
		c1.23,3.18,1.57,6.52,1.83,9.86c0.11,1.37,0,2.9-1.19,3.99c-2.34,0.66-4.72,0.17-7.08,0.34c-6.06-0.09-12.14,0.16-18.2-0.38
		c-3.01-0.27-3.31-0.57-2.79-3.48c0.15-0.88,0.44-1.78-0.51-2.37c-0.96-0.6-2.18-0.74-2.94,0c-3.45,3.33-7.9,3.52-12.23,4.16
		c-2.31,0.34-4.54,1.04-6.54,2.24c-3.76,2.26-7.71,2.31-11.79,1.22c-2.23-0.59-4.38-1.13-6.81-0.73c-2.35,0.39-4.54-0.48-5.88-2.81
		c-1.19-2.07-3.02-2.91-5.49-3.22c-5.83-0.74-11.79-0.75-17.43-2.74c-1.04-0.37-2.05-0.13-3.07,0.06
		c-4.34,0.82-8.11,0.01-12.02-2.43c-7.17-4.48-15.4-6.37-22.97-1.92c-4.92,2.89-9.93,2.95-15,3.89c-0.96,0.18-1.94,0.23-2.84-0.16
		c-3.79-1.63-7.88-1.98-11.86-2.83c-4.08-0.87-7.99-2.27-11.77-4.02c-0.79-0.37-1.84-0.67-2.1-1.5c-0.72-2.35-2.67-3.22-4.54-4.3
		c-2.28-1.32-3.33-3.58-4.12-5.98c-1.04-3.18-1.22-3.29-4.6-2.9c-1.99,0.23-2.67-0.67-1.9-2.54c0.18-0.44,0.56-0.78,0.59-1.33
		c-0.48-0.69-1.16-0.32-1.72-0.2c-2.9,0.66-5.87,0.84-8.8,0.97c-4.69,0.21-8.04-2.34-10.24-6.28c-0.83-1.49-1.59-2.09-3.33-1.83
		c-2.65,0.41-5.33-0.1-7.79-0.98c-6.66-2.4-13.32-2.01-20.09-0.69c-1.73,0.34-3.52,1.27-5.33,0.21c-1.97-0.2-3.7,0.24-5.39,1.4
		c-1.28,0.88-2.87,1.36-4.36,1.9c-2.69,0.99-5.46,1.73-8.1,2.85C214.41,401.63,213.66,401.97,212.82,401.86z"/>
	<path class="coheceanLogo-component2" d="M624.91,173.57c0.8,0,1.6,0,2.4,0c0.48,0.36,0.96,0.35,1.44,0c0.96,0,1.92,0,2.87-0.01
		c0.15-0.17,0.34-0.29,0.48-0.47c0.16,0,0.32,0,0.48,0c0.32,0.3,0.64,0.3,0.96,0c0.8,0,1.6,0,2.4,0c0.16,0.37,0.32,0.36,0.48,0
		c0.26-0.28,0.71-0.18,0.96-0.48c0.48,0,0.96,0,1.44,0c0.25,0.31,0.71,0.18,0.96,0.47c0.64,0,1.27,0,1.91,0
		c0.32-0.27,0.64-0.27,0.96,0c0.64,0,1.27,0,1.91,0c0.26-0.29,0.71-0.17,0.96-0.47c0.8,0,1.6,0,2.4,0c0.25,0.3,0.71,0.18,0.96,0.48
		c0.16,0,0.32,0,0.48,0c0.16,0.18,0.32,0.17,0.48,0c0.32,0,0.64,0,0.96,0c0.14,0.17,0.32,0.32,0.48,0.48v0
		c0.15,0.17,0.33,0.31,0.49,0.48c0.16,0,0.32,0,0.47,0c0.14,0.18,0.33,0.31,0.49,0.47c0.16,0,0.32,0,0.47,0
		c0.25,0.31,0.71,0.19,0.96,0.48c0.32,0,0.63,0,0.95,0c0.26-0.29,0.72-0.17,0.96-0.48c1.17-0.54,0.93,0.34,0.96,0.95
		c0.29,0.26,0.17,0.72,0.48,0.96c0,0.16,0,0.32,0,0.48c-0.18,0.14-0.31,0.33-0.48,0.48c-0.16,0.16-0.32,0.32-0.48,0.48
		c-0.15,0.17-0.33,0.31-0.48,0.48v0c-0.16,0.16-0.33,0.3-0.48,0.48c-1.44,0-2.88,0-4.32,0c-0.15,0.17-0.34,0.3-0.48,0.48
		c-0.32,0-0.64,0-0.96,0c-0.16-0.17-0.32-0.18-0.48,0c-1.98,0.33-3.96,0.65-5.94,1c-0.62,0.11-0.79,0.43-0.3,0.93
		c0.14,0.17,0.32,0.32,0.48,0.48l0,0c0.32,0.29,0.64,0.31,0.96,0c0.16,0,0.32,0,0.48,0c0.14,0.18,0.33,0.3,0.48,0.47
		c0.56,0.35,0.46,0.91,0.47,1.44c-0.17,0.15-0.33,0.31-0.48,0.48c-0.29,0.25-1.06,0.27-0.48,0.96c0.14,0.18,0.33,0.31,0.48,0.48
		c0.65,0.01,1.19,0.33,1.72,0.66c0.53,0.33,0.77,0.82,0.3,1.35c-0.59,0.67-0.6,1.59-1.06,2.31c-0.18,0.14-0.31,0.33-0.47,0.49
		c0,0.16,0,0.31-0.01,0.47c-0.13,0.11-0.17,0.21-0.13,0.32c0.04,0.11,0.08,0.16,0.13,0.16c0.13,1.21,1.02,1.81,1.92,2.4
		c0.27,0.32,0.27,0.63,0,0.95c-0.32,0-0.64,0-0.95,0.01c-0.15,0.17-0.34,0.29-0.48,0.47c-0.32,0-0.64,0-0.95,0.01
		c-0.15,0.17-0.35,0.29-0.49,0.47c-0.82,0.05-1.53,0.63-2.39,0.48c-2.54-0.58-4.36,1.26-6.49,2c-7.18,2.52-14.54,4.47-21.82,6.64
		c-0.21,0.38-0.56,0.46-0.96,0.47c-0.16,0.16-0.33,0.31-0.48,0.48l0,0c-0.12,0.1-0.16,0.21-0.12,0.32c0.04,0.11,0.08,0.16,0.12,0.16
		c0,0.16,0.01,0.32,0.01,0.48c0.17,0.15,0.3,0.34,0.48,0.48c0.55,1.12,1.03,2.32,2.53,2.46c-0.7,0.56-1.53,0.39-2.31,0.37
		c-4.08-0.07-8.15-0.04-12.23-0.24c-3.51-0.17-7.03-0.1-10.55-0.06c-2.84,0.03-5.6-0.4-8.17-1.59c-8.28-3.85-16.95-6.63-25.56-9.57
		c-12.62-4.3-25.24-8.6-37.84-12.97c-10.2-3.54-19.27-8.86-27.46-15.79c-2.81-2.37-5.59-4.78-8.26-7.31
		c-4.64-4.39-10.06-7.27-16.18-8.95c-4.62-1.27-9.28-2.35-13.95-3.43c-2.22-0.51-4.45-0.24-6.67-0.33
		c-13.58-0.54-27.17-0.89-40.76-0.51c-8.36,0.23-16.58-0.79-24.78-2.21c-2.75-0.48-5.53-0.78-8.31-1.11
		c-1.47-0.18-2.73,0.86-4.2,0.8c-1.81-0.17-3.6,0.35-5.45-0.06c-7.25-1.6-12.07-6.83-13.33-14.72c-0.32-2.03-0.72-4.07-0.58-6.16
		c0.08-1.12,0.11-2.23,0.94-3.12c0.21-0.17,0.44-0.3,0.7-0.38c7.18-0.27,14.36-0.46,21.53,0.12c1.52,0.12,3.03,0.11,4.54,0.21
		c1.65,0.1,2.32,0.88,1.85,2.52c-0.09,0.31-0.16,0.62-0.23,0.93c-0.24,0.99-0.28,1.92,0.72,2.55c1.01,0.63,2.13,0.6,2.88-0.22
		c2.74-3,6.44-3.27,10.07-3.8c3.27-0.47,6.34-1.47,9.26-3.07c3.56-1.95,7.41-1.69,11.21-0.76c2.25,0.55,4.37,1.16,6.8,0.71
		c1.97-0.37,3.97,0.42,5.24,2.25c1.63,2.35,3.67,3.42,6.67,3.88c5.74,0.86,11.66,0.68,17.21,2.72c0.95,0.35,1.89-0.01,2.83-0.19
		c3.99-0.74,7.53-0.21,11.13,2.13c7.35,4.77,15.34,6.15,23.74,2.66c0.22-0.09,0.47-0.15,0.64-0.32c4.78-4.5,10.93-3.04,16.57-3.82
		c8.1,2.65,16.86,2.98,24.57,7c0.86,0.45,1.81,0.83,2.11,1.83c0.54,1.78,1.88,2.74,3.41,3.48c2.39,1.17,3.77,3.1,4.53,5.59
		c1.16,3.76,1.18,3.75,5.05,3.74c0.72,0,1.51-0.04,1.95,0.65c0.48,0.75-0.08,1.35-0.48,1.94c-0.26,0.38-0.72,0.66-0.63,1.27
		c0.8,0.6,1.66,0.19,2.49,0.08c2.69-0.37,5.38-0.59,8.1-0.76c4.96-0.31,8.27,2.05,10.53,6.08c0.94,1.68,1.97,2.15,3.81,2.01
		c2.3-0.18,4.68-0.08,6.87,0.73c6.95,2.59,13.95,2.1,21.02,0.71c1.59-0.31,3.22-1.12,4.88-0.2c1.97,0.21,3.73-0.19,5.38-1.42
		c1.13-0.85,2.54-1.31,3.9-1.76c2.87-0.95,5.77-1.8,8.56-2.98c0.72-0.3,1.47-0.64,2.3-0.55c-0.3,0.66-0.79,1.13-1.43,1.45
		c-0.15,0.17-0.33,0.31-0.48,0.48v0c-0.16,0.16-0.33,0.3-0.48,0.48c-0.48,0.32-0.96,0.64-1.44,0.96c-0.15,0.17-0.33,0.31-0.48,0.48
		v0c-0.16,0.16-0.33,0.3-0.48,0.48c-0.48,0.32-0.96,0.64-1.44,0.96c-0.15,0.17-0.33,0.31-0.48,0.48v0c-0.16,0.16-0.33,0.3-0.48,0.48
		c-0.48,0.32-0.96,0.64-1.44,0.96c-0.15,0.17-0.33,0.31-0.48,0.48v0c-0.16,0.16-0.32,0.32-0.48,0.48v0c-0.3,0.25-0.19,0.7-0.48,0.96
		c-0.04,0.91-0.63,1.6-0.96,2.39c-0.18,0.14-0.31,0.33-0.48,0.48c-0.32,0.8-0.92,1.48-0.96,2.39c0.1,0.08,0.15,0.19,0.13,0.32
		c0,0,0.07,0.17,0.07,0.17s0.13-0.12,0.13-0.12c0,0,0.14,0.12,0.14,0.12c0,0.16,0,0.32,0,0.48c0.17,0.15,0.3,0.34,0.48,0.48
		c0.29,1.54,1.17,0.77,1.92,0.49c0.16,0.17,0.32,0.17,0.48,0c0.32,0,0.64,0,0.96,0c0.15-0.17,0.34-0.3,0.48-0.47
		c0.16,0,0.32,0,0.48,0c0.16,0.17,0.32,0.18,0.48,0c0.32,0,0.64,0,0.96,0c0.15-0.17,0.34-0.3,0.48-0.47c0.16,0,0.32,0,0.48,0
		c0.16,0.18,0.32,0.17,0.48,0c0.7,0.07,1.32-0.16,1.92-0.48c0.32,0.3,0.64,0.3,0.96,0c1.14,0.03,2.31-0.19,3.36,0.48
		C624.27,173.87,624.59,173.87,624.91,173.57z"/>
	<path class="coheceanLogo-component0" d="M476.59,437.27c2.56-0.01,5.13-0.03,7.69-0.04c0.56-0.68,1.31-1.17,1.9-1.82c1.89-2.1,3.92-2.09,5.84,0.01
		c2.72,2.97,5.01,3.47,8.56,1.56c3.9-2.11,7.22-4.99,10.17-8.28c1.98-2.21,2.21-5.04,2.06-7.69c-0.3-5.43,2.14-8.8,6.74-11.32
		c7-3.85,14.35-7.14,20.7-12.03c6.27-4.83,13.2-8.4,20.42-11.45c5.25-2.22,10.85-3.28,16.4-4.45c3.59-0.76,7.27-1.25,10.39-3.43
		c0.27-0.19,0.6-0.18,0.91-0.02c4.22,2.09,8.22,4.55,12.2,7.05c1.02,0.64,2,1.34,2.69,2.35c0.86,1.25,0.78,2.47-0.3,3.42
		c-4.85,4.31-9.19,9.13-13.54,13.9c-5.79,6.34-12.29,11.87-18.83,17.37c-6.97,5.86-14.14,11.5-20.51,18.04
		c-8.7,8.93-17.12,18.12-25.42,27.43c-4.12,4.62-8.81,8.23-14.69,10.39c-11.54,4.24-23.19,8.17-34.81,12.2
		c-2.86,0.99-5.68,2.12-8.62,2.87c-0.92-0.97-1.69-2.09-3.18-2.36c-0.84-0.15-1.44-0.72-1.28-1.72c0.24-1.44-0.7-1.13-1.47-0.98
		c-4.15,0.78-8.37,1.13-12.55,1.72c-3.27,0.46-3.98-0.35-3.15-3.45c0.04-0.15,0.05-0.33,0.14-0.46c2.11-3.36,0.22-5.47-2.26-7.47
		c-0.68-0.55-1.32-0.49-2-0.35c-4.12,0.85-8.33,1.11-12.33,2.73c-4.17,1.69-7.06-0.49-7.21-4.96c-0.09-2.67,0.43-5.24,1.13-7.77
		c0.36-1.29,0.39-2.45-0.3-3.67c-0.83-1.49-0.92-3.04,0.2-4.48c2.06-1.21,4.42-1.24,6.68-1.62c8.64-1.45,17.43-1.69,26.07-3.17
		c5.03-0.86,10.05-1.78,14.98-3.1c6.28-1.68,9.68-6.37,12.27-11.86c0.6-1.28,0.23-1.98-1.27-1.95c-0.88,0.02-1.76,0.07-2.63-0.05
		C477.68,438.24,476.71,438.44,476.59,437.27z"/>
	<path class="coheceanLogo-component0" d="M350.99,122.7c-0.17,0.02-0.34,0.04-0.5,0.05c-0.83,0.85-1.95,1.37-2.53,2.51c-0.41,0.81-1.25,0.92-2.08,0.88
		c-1.27-0.05-2.28-0.65-3.16-1.52c-3.3-3.25-5.59-3.51-9.62-1.03c-3.14,1.94-5.92,4.33-8.51,6.96c-1.85,1.88-2.98,4.09-2.69,6.67
		c0.78,6.97-2.46,11.19-8.52,14.17c-8.16,4.02-15.9,8.79-23.38,14.03c-8.63,6.05-18.3,10.07-28.73,12.1
		c-5.22,1.01-10.53,1.77-15.19,4.63c-0.11-0.4-0.34-0.67-0.75-0.85c-4.17-1.87-7.96-4.39-11.79-6.83c-0.6-0.38-1.19-0.82-1.68-1.33
		c-1.63-1.72-1.55-2.87,0.22-4.4c2.18-1.88,4.07-4.05,6.05-6.14c4.45-4.69,8.87-9.42,13.43-14c3.78-3.79,8.04-7.05,12.13-10.5
		c7.98-6.75,16.18-13.26,23.38-20.9c7.99-8.49,15.91-17.04,23.68-25.73c3.62-4.06,7.83-7.21,12.97-9.16
		c11.04-4.2,22.26-7.89,33.4-11.79c3.39-1.19,6.8-2.31,10.19-3.46c0.63-0.39,1.09-0.05,1.42,0.42c0.68,0.97,1.62,1.49,2.72,1.83
		c0.52,0.16,1.27,0.37,1.17,1.01c-0.34,2.23,1.09,1.57,2.18,1.4c4.02-0.63,8.05-1.21,12.1-1.56c2.93-0.25,3.61,0.61,2.9,3.42
		c-0.08,0.31-0.07-0.08-0.05,0.23c0.1,1.73-1.98,3.17-1.31,4.55c0.59,1.23,2.69,1.54,3.48,3.08c0.42,0.82,1.23,0.58,1.93,0.42
		c3.95-0.88,8.01-1.03,11.87-2.59c4.73-1.92,7.8,0.53,7.77,5.65c-0.01,2.1-0.53,4.11-1.05,6.11c-0.42,1.59-0.58,3.08,0.19,4.64
		c0.54,1.1,0.49,2.33,0.13,3.51c-0.71,1.75-2.39,1.71-3.83,1.97c-6.29,1.09-12.63,1.79-18.99,2.29c-8.55,0.67-16.95,2.23-25.22,4.36
		c-6.51,1.67-10.09,6.65-12.63,12.51C351.74,121.13,351.65,122.04,350.99,122.7z"/>
	<path class="coheceanLogo-component3" d="M422.49,460.38c-0.45,1.83-0.65,3.6,0.92,5.07c0.71,0.66,0.16,1.35-0.02,1.99c-0.87,2.99-1.56,5.98-1.43,9.13
		c0.14,3.43,2.24,5.08,5.56,4.26c0.23-0.06,0.46-0.13,0.67-0.24c4.52-2.2,9.54-2.12,14.32-3.16c0.27-0.06,0.66-0.35,0.72,0.19
		c0.23,1.99,1.78,2.65,3.3,3.34c1.55,0.7,1.62,0.84,0.45,2.1c-0.63,0.67-1.14,1.33-1.03,2.3c0.11,1.02-0.56,1.8-0.82,2.71
		c-0.29,1.02,0.06,1.46,1.15,1.54c1.68,0.12,3.33-0.32,4.96-0.55c3.68-0.52,7.42-0.71,11.03-1.72c0.39-0.11,0.79-0.11,1.2,0.15
		c-0.01,0.19,0.05,0.46-0.04,0.63c-1.08,1.96-1.09,1.97,1.12,2.52c1.48,0.37,2.06,1.37,2.08,2.8c-3.03,1.03-6.22,1.33-9.34,1.94
		c-7.74,1.51-15.54,2.74-23.23,4.47c-6.94,1.57-13.44,4.54-20.02,7.21c-7.25,2.94-14.58,5.64-22.09,7.86
		c-4.42,1.31-8.79,1.08-13.25,0.37c-16.24-2.6-32.13-6.75-47.99-10.97c-18.03-4.8-35.98-9.89-53.96-14.87
		c-10.07-2.79-20.12-5.61-30.19-8.42c-1.31-0.37-2.63-0.65-4-0.57c0.77-0.8,1.85-0.24,2.73-0.6c0.88-0.36,1.13-1.13,0.3-1.53
		c-1.1-0.53-0.97-0.92-0.41-1.75c0.6-0.9-0.11-1.66-0.58-2.38c-1.01-1.54-1.76-3.17-2.23-4.97c-0.29-1.11-0.11-1.76,0.96-1.96
		c0.92-0.17,1.5-0.68,2.18-1.25c1.19-0.98,2.65-1.33,4.24-0.95c1.16,0.28,2.37,0.35,3.5,0.7c1.92,0.6,3.76,0.39,5.63-0.14
		c0.73-0.61,1.51-0.37,2.26-0.09c2.98,1.12,6.09,1.98,8.7,3.92c0.51,0.38,1.07,0.81,1.69,0.87c4.8,0.42,8.8,3.24,13.37,4.35
		c0.93,0.23,1.9,0.47,2.67,1.04c2.23,1.65,4.56,1.57,7.05,0.72c2.95-1,5.88-1.53,8.66,0.6c0.62,0.48,1.53,0.36,2.33,0.37
		c1.2,0.01,2.4,0.01,3.59,0c1.84-0.01,3.67,0,5.51-0.04c2.32-0.06,2.11-2.96,4-3.21c0.01-0.74-0.39-0.9-0.72-1.09
		c-1.14-0.67-1.79-1.61-1.49-2.97c0.29-1.33,1.39-1.61,2.53-1.82c14.99-2.76,29.95-5.72,45.04-7.92c2.62-0.38,5.26-0.18,7.89-0.19
		c6.63-0.03,13.26-0.14,19.88,0.03c5.97,0.15,11.94,0.36,17.92,0.44c3.36,0.05,6.7,0.04,10.01-0.67
		C420.7,459.78,421.69,459.58,422.49,460.38z"/>
	<path class="coheceanLogo-component3" d="M412.38,99.23c0.06-1.68,0.22-3.37-1.09-4.74c-0.4-0.42-0.1-0.89,0.01-1.35c0.48-2.01,0.97-4.01,1.37-6.04
		c0.34-1.73,0.4-3.48-0.22-5.18c-0.73-2.02-2.36-2.93-4.48-2.56c-1.34,0.23-2.64,0.53-3.84,1.21c-1.93,1.1-4.17,0.96-6.26,1.31
		c-1.24,0.21-2.53,0.35-3.75,0.64c-1.51,0.35-2.71,0.73-3.1-1.38c-0.13-0.67-0.97-1.02-1.63-1.32c-0.86-0.39-1.72-0.77-2.51-1.12
		c-0.25-0.72,0.25-0.99,0.58-1.27c0.96-0.82,1.61-1.73,1.48-3.09c-0.04-0.44,0.22-0.91,0.39-1.36c0.63-1.7,0.18-2.48-1.53-2.33
		c-2.68,0.25-5.36,0.63-8.02,1.02c-2.43,0.35-4.85,0.79-7.28,1.16c-0.38,0.06-0.8,0.09-1.14-0.32c-0.16-0.9,1.1-1.35,0.8-2.44
		c-1.87-0.2-3.57-0.86-4.39-2.86c-0.04-0.09-0.29-0.1-0.44-0.14c2.84-1.09,5.88-1.25,8.83-1.88c8.73-1.86,17.6-3,26.26-5.21
		c5.97-1.53,11.59-4.06,17.3-6.35c8.15-3.27,16.31-6.5,24.86-8.62c3.25-0.81,6.54-0.73,9.76-0.25c17.85,2.68,35.27,7.33,52.66,12.04
		c20.79,5.63,41.53,11.4,62.29,17.12c6.84,1.89,13.68,3.81,20.51,5.72c0.21,0.06,0.39,0.25,0.59,0.39
		c-0.18,0.14-0.35,0.34-0.55,0.42c-1.38,0.55-1.49,0.87-0.52,1.82c0.28,0.28,1.11,0.22,0.57,0.92c-0.91,1.19-0.18,2.06,0.46,3
		c1.09,1.59,1.7,3.38,2.2,5.24c0.27,1.02,0.13,1.59-1,1.54c-0.89-0.03-1.4,0.42-2.02,0.99c-1.21,1.1-2.77,1.89-4.38,1.31
		c-3-1.08-6.01-1.18-9.1-0.8c-0.9,0.72-1.84,0.31-2.73,0.03c-2.83-0.89-5.59-1.95-8.11-3.53c-0.68-0.43-1.36-1.01-2.13-1.05
		c-4.6-0.26-8.34-3.1-12.66-4.19c-1.16-0.29-2.37-0.59-3.35-1.28c-2.2-1.53-4.45-1.42-6.86-0.65c-2.93,0.94-5.86,1.69-8.62-0.66
		c-0.86-0.73-2.15-0.46-3.27-0.47c-1.84-0.01-3.7,0.2-5.51-0.05c-2.96-0.4-4.74,1.11-6.32,3.25c-0.41,0.55-0.28,0.86,0.19,1.15
		c1.16,0.71,2.13,1.54,1.68,3.07c-0.47,1.6-1.95,1.78-3.26,2.02c-9.83,1.81-19.65,3.62-29.48,5.43c-7.32,1.35-14.66,2.34-22.09,2.83
		c-3.3,0.22-6.53-0.45-9.81-0.44c-7.75,0.01-15.51,0.05-23.26-0.02c-5.42-0.05-10.84-0.82-16.23,0.43
		C413.6,100.47,412,101.15,412.38,99.23z"/>
	<path class="coheceanLogo-component1" d="M246.09,182.15c1.51-1.92,3.68-2.69,5.92-3.28c4.91-1.3,9.95-2.03,14.86-3.34c6.44-1.72,12.36-4.59,18.21-7.72
		c4.1-2.19,7.63-5.18,11.48-7.71c3.2-2.1,6.53-3.96,9.9-5.78c3.29-1.78,6.54-3.63,9.83-5.42c3.51-1.9,4.99-4.89,4.99-8.81
		c0-1.9-0.21-3.79,0.27-5.71c0.3-1.22,0.79-2.28,1.57-3.16c3.04-3.4,6.46-6.38,10.44-8.65c1.32-0.75,2.73-1.22,4.29-1.34
		c2.09-0.16,3.68,0.29,4.78,2.31c0.75,1.38,2.11,2.16,3.8,2.04c0.49-0.03,1.05-0.09,1.11-0.67c0.17-1.87,1.68-1.85,2.96-2.19
		c-0.61,2.35-0.52,4.67-0.16,7.08c0.3,1.98,0.72,3.89,1.33,5.79c0.8,2.48,2.14,4.58,3.98,6.43c2.81,2.82,6.27,3.93,10.11,4.2
		c1,0.07,2.09-0.39,2.97,0.45c-5.15,1.69-10.4,3.06-15.71,4.13c-8.86,1.79-16.82,5.43-23.89,11.02c-2.89,2.28-6.18,3.61-9.69,4.5
		c-3.09,0.78-6.18,1.58-9.31,2.19c-5.09,1-9.68,3.16-14.06,5.84c-8.97,5.49-17.1,12.02-24.32,19.67c-2.63,2.79-5.34,5.5-7.99,8.26
		c-3.86,4.03-8.63,5.88-13.97,6.66c-3.25,0.48-6.51,0.69-9.79,0.54c-2.68-0.12-4.95-1.2-6.85-3.02c-1.25-1.19-1.39-2.16-0.49-3.39
		c4.87-6.64,8.85-13.85,13.29-20.76C245.99,182.28,246.04,182.22,246.09,182.15z"/>
	<path class="coheceanLogo-component1" d="M588.49,378.38c-2.8,2.54-6.39,3.07-9.88,3.81c-6.54,1.38-13.14,2.56-19.26,5.34
		c-6.38,2.9-12.69,5.94-18.18,10.44c-2.46,2.02-5.25,3.61-8.03,5.16c-4.66,2.59-9.34,5.16-14.02,7.74
		c-0.07,0.04-0.14,0.07-0.21,0.11c-3.76,1.94-5.69,4.95-5.29,9.25c0.19,2.02-0.49,3.94-0.56,5.93c-0.04,1.22-0.96,2.21-1.74,3.08
		c-3,3.33-6.39,6.22-10.32,8.41c-1.26,0.7-2.62,1.07-4.09,1.18c-2.2,0.16-3.92-0.33-4.91-2.5c-0.46-1.01-1.4-1.58-2.44-1.77
		c-0.98-0.18-2.01-0.39-2.5,1.06c-0.38,1.12-1.51,1.57-2.68,1.72c0-0.48-0.04-0.96,0.01-1.43c0.63-5.78-0.55-11.12-3.7-16.03
		c-1.97-3.07-4.95-4.63-8.32-5.5c-1.44-0.37-2.93-0.72-4.47-0.54c-0.48,0.06-0.96-0.03-1.28-0.46c4.71-1.53,9.49-2.81,14.34-3.78
		c9.01-1.8,17.22-5.3,24.43-11.03c3.14-2.5,6.75-3.91,10.59-4.84c2.64-0.64,5.26-1.37,7.92-1.86c5.68-1.04,10.77-3.45,15.61-6.48
		c8.72-5.46,16.65-11.87,23.68-19.37c3.06-3.26,6.15-6.5,9.45-9.53c2.23-2.05,4.76-3.46,7.69-4.2c4.52-1.15,9.1-1.7,13.76-1.61
		c2.65,0.05,5.01,0.93,7.05,2.62c1.49,1.24,1.96,2.59,0.54,4.51c-4.52,6.11-8.24,12.74-12.25,19.18
		C589.1,377.45,588.79,377.92,588.49,378.38z"/>
	<path class="coheceanLogo-component4" d="M422.49,460.38c-1.62-0.22-3.15,0.37-4.72,0.59c-4.53,0.63-9.05,0.45-13.57,0.09
		c-0.57-0.05-1.08,0.02-1.63,0.1c-1.9,0.26-3.81,0.4-5.69-0.11c-0.79-0.22-1.58-0.17-2.38-0.17c-9.42-0.01-18.85-0.03-28.27,0.01
		c-2.79,0.01-5.5,0.7-8.25,1.11c-3.76,0.56-7.49,1.32-11.26,1.81c-2.75,0.36-5.44,1.09-8.17,1.6c-6.62,1.23-13.25,2.44-19.89,3.6
		c-0.86,0.15-1.58,0.29-1.71,1.29c-0.12,0.95,0.11,1.69,1.08,2.16c0.83,0.41,1.89,0.4,2.5,1.2c-0.01,0.7-0.56,0.83-0.97,0.95
		c-1.2,0.36-2.21,0.71-2.25,2.31c-0.02,0.94-1.05,1.17-1.84,1.17c-3.91,0.05-7.83,0.03-11.74,0.03c-0.49,0-1.01-0.05-1.31-0.46
		c-1.47-2.06-3.43-1.52-5.42-1.13c-1.79,0.36-3.5,1.04-5.31,1.35c-0.87,0.15-1.62,0.16-2.26-0.32c-2.3-1.73-5.07-2.24-7.7-3.1
		c-1.28-0.42-2.5-0.86-3.64-1.68c-1.5-1.07-3.45-1.13-5.25-1.32c-1.26-0.13-2.43-0.51-3.29-1.28c-1.73-1.57-3.87-2.22-5.94-2.98
		c-1.55-0.56-3.02-1.48-4.74-1.55c-0.49-0.73-1.35-0.28-1.96-0.57c-0.11-0.58,0.3-0.7,0.63-0.9c0.27-0.17,0.61-0.33,0.55-0.7
		c-0.07-0.46-0.48-0.58-0.88-0.65c-4.98-0.94-9.69-2.6-13.67-5.81c-4.32-3.49-8.03-7.53-10.21-12.75c-0.68-1.63-1-3.36-0.83-5.14
		c0.19-2.03-0.51-3.72-1.7-5.28c-0.75,0.26-0.64,0.89-0.75,1.42c-0.15,0.72-0.49,1.34-0.96,1.9c-1.14,1.34-1.66,1.33-2.82-0.03
		c-0.73-0.85-0.97-2.01-1.83-2.79c-1.23-1.12-1.71-1.07-2.5,0.39c-0.19,0.35-0.33,0.73-0.58,1.02c-0.63,0.72-1.17,0.66-1.72-0.14
		c-0.77-1.1-0.89-2.49-0.91-3.66c-0.04-2.53-1.65-4.05-2.98-5.8c-0.24-0.32-0.57-0.56-0.83-0.86c-1.65-1.92-1.48-4.13,0.64-5.55
		c1.54-1.04,2.34-2.45,2.51-4.13c0.26-2.65,1.35-4.94,2.6-7.21c0.11-0.2,0.26-0.43,0.45-0.54c3.67-2.11,5.62-5.74,7.93-9.04
		c1.07-1.52,2.21-2.88,3.93-3.65c2.27-0.36,4.56-0.66,6.82-1.1c6.03-1.18,11.96-1.34,17.9,0.68c3.21,1.09,6.58,1.93,10.07,0.95
		c0.81-0.23,1.42-0.03,1.72,1.07c0.74,2.64,2.51,4.39,4.92,5.82c2.2,1.3,4.2,1.67,6.73,1.36c2.91-0.36,5.84-0.59,8.74-1.1
		c0.59-0.1,1.27-0.2,1.94,0.37c-0.06,1.01-1.15,1.39-1.57,2.19c-0.28,0.54-0.86,1.06-0.34,1.73c0.44,0.57,1,0.27,1.53,0.08
		c0.3-0.11,0.61-0.18,0.92-0.27c2.08-0.59,3.17-0.07,3.94,1.91c0.2,0.52,0.32,1.06,0.47,1.6c0.79,2.9,2.25,5.23,5.17,6.48
		c1.51,0.65,3.22,1.22,3.07,3.46c-0.04,0.63,0.71,0.81,1.19,1.05c3.86,1.95,7.93,3.33,12.12,4.34c2.08,0.5,4.18,0.93,6.34,1.07
		c1.08,0.07,2.22,0.4,3.2,0.89c2.38,1.2,4.86,1.57,7.38,0.89c2.26-0.61,4.59-0.3,6.87-0.8c1.86-0.41,3.59-0.7,4.6-2.53
		c0.14-0.26,0.41-0.57,0.66-0.63c3.3-0.75,6.55-1.81,9.94-2.16c1.77-0.18,3.51,0.27,5.17,0.73c2.76,0.77,5.43,1.85,8.12,2.84
		c0.51,0.19,1.02,0.5,1.41,0.88c3,2.97,6.67,3.04,10.5,2.51c0.55-0.08,1.12-0.13,1.63-0.32c1.22-0.47,2.21-0.31,3.33,0.47
		c1.1,0.76,2.54,0.96,3.89,0.98c3.28,0.03,6.49,0.59,9.67,1.29c0.8,0.17,1.58,0.17,2.38,0.18c3.14,0.03,3.13,0.03,5.57,1.91
		c0.48,0.37,0.71,0.84,0.95,1.35c0.92,1.98,3.46,3.55,5.41,2.81c2.28-0.87,4.27-0.19,6.25,0.5c2.73,0.94,5.46,0.85,8.22,0.57
		c0.93-0.09,1.82-0.48,2.66-1c3.24-2.01,6.8-3.03,10.61-3.3c2.06-0.15,4.07-0.68,6.03-1.38c0.97-0.34,1.61-1.06,2.21-1.78
		c1.11-1.31,2.5-1.34,3.93-0.98c1.75,0.44,2.12,1.22,1.64,2.97c-0.25,0.91-0.48,1.83-0.76,2.92c6.91,1,13.74,0.61,20.54,0.72
		c0.56,0.64,1.32,0.44,2.02,0.45c1.28,0.02,2.56-0.04,3.83,0.02c1.24,0.05,1.48,0.37,1.07,1.44c-1.85,4.88-4.73,8.98-9.08,11.99
		c-1.42,0.98-3.04,1.44-4.65,1.81c-5.09,1.19-10.2,2.29-15.4,3.05c-5.49,0.81-11,1.38-16.53,1.9
		C432.76,458.53,427.61,459.35,422.49,460.38z"/>
	<path class="coheceanLogo-component4" d="M412.38,99.23c0.08,0.42,0.18,0.71,0.76,0.62c1.88-0.29,3.8-0.41,5.66-0.78c2.15-0.43,4.25-0.47,6.39,0.01
		c0.77,0.17,1.59,0.14,2.38,0.14c7.27,0.01,14.55,0.12,21.82-0.03c4.24-0.09,8.44,0.75,12.65,0.45c5.61-0.39,11.25-0.51,16.81-1.65
		c6.76-1.39,13.6-2.37,20.39-3.59c5.39-0.96,10.77-1.97,16.13-3.07c0.96-0.2,2.37,0.02,2.56-1.62c0.19-1.58-1.09-1.74-2.01-2.27
		c-0.55-0.32-1.19-0.47-1.62-1.01c0.12-0.86,0.97-0.68,1.47-0.97c0.91-0.52,1.98-0.84,1.58-2.25c-0.15-0.52,0.14-0.72,0.61-0.75
		c1.27-0.07,2.46-0.56,3.77-0.52c2.79,0.09,5.59,0.04,8.39,0.03c1.08-0.01,2.01,0.19,2.76,1.11c0.82,1,1.88,1.19,3.21,0.95
		c1.73-0.31,3.41-0.77,5.1-1.22c1.96-0.52,3.81-0.79,5.6,0.77c1.26,1.1,3.06,1.27,4.67,1.75c1.74,0.51,3.5,0.89,4.98,2.14
		c1.17,0.99,2.79,1.11,4.3,1.21c1.72,0.11,3.21,0.68,4.67,1.61c3.25,2.07,6.8,3.43,10.59,4.19c0.34,0.67,1.24,0.22,1.63,0.83
		c0.07,0.74-1.04,0.75-0.96,1.44c0.02,0.36,0.22,0.48,0.47,0.52c5.83,0.94,11.03,3.32,15.58,7.06c2.86,2.35,5,5.31,7.04,8.37
		c1.94,2.9,2.63,6.08,2.6,9.49c-0.01,0.71-0.1,1.46,0.32,2.1c0.45,0.68,0.4,1.98,1.47,1.91c0.86-0.06,0.45-1.22,0.78-1.83
		c0.08-0.14,0.14-0.29,0.21-0.43c1.15-2.36,2.23-2.45,3.69-0.3c0.45,0.66,0.8,1.38,1.24,2.04c1.01,1.5,1.94,1.47,2.79-0.1
		c0.15-0.28,0.18-0.63,0.37-0.87c0.62-0.77,1.62-0.6,2.09,0.28c0.58,1.09,0.73,2.35,0.77,3.47c0.1,2.41,1.33,4.07,2.99,5.46
		c1.42,1.19,1.67,2.62,1.48,4.27c-0.09,0.81-0.36,1.66-1.08,2.05c-2.17,1.18-2.79,3.32-3.03,5.41c-0.26,2.28-1.47,4.08-2.29,6.07
		c-0.11,0.27-0.39,0.52-0.65,0.67c-3.61,2.06-5.51,5.64-7.77,8.85c-1.09,1.54-2.2,2.85-3.86,3.69c-3.28,0.59-6.54,1.42-9.85,1.71
		c-4.35,0.39-8.77,0.85-13.04-0.66c-2.88-1.02-5.83-1.61-8.86-1.75c-1.02-0.05-2.05,0.15-3.07,0.21c-0.85,0.06-1.34-0.13-1.73-1.13
		c-0.97-2.45-2.49-4.41-4.92-5.86c-1.59-0.94-3.04-1.14-4.7-1.18c-3.2-0.07-6.35,0.22-9.49,0.88c-1.15,0.24-2.35,0.27-3.71-0.11
		c0.34-1.34,1.5-1.89,2.18-2.8c0.19-0.25,0.44-0.5,0.35-0.84c-0.14-0.5-0.6-0.43-0.98-0.46c-0.73-0.06-1.4,0.22-2.1,0.37
		c-1.61,0.36-2.59-0.11-3.3-1.62c-0.44-0.93-0.75-1.93-1.02-2.93c-0.62-2.26-1.78-4.04-4.01-5.03c-0.94-0.42-1.8-1.03-2.67-1.59
		c-0.54-0.35-1.09-0.84-1.01-1.53c0.16-1.39-0.82-1.78-1.78-2.19c-5.87-2.53-11.89-4.53-18.31-5.17c-1.17-0.12-2.39-0.34-3.43-0.95
		c-2.16-1.26-4.42-1.06-6.74-0.71c-2.12,0.31-4.25,0.53-6.39,0.72c-2.11,0.19-4.15,0.43-5.26,2.62c-0.18,0.36-0.5,0.65-0.93,0.68
		c-2.4,0.17-4.6,1.21-6.96,1.63c-3,0.53-5.84,0.4-8.71-0.52c-2.66-0.86-5.29-1.77-7.81-3c-0.5-0.24-1.06-0.46-1.44-0.84
		c-2.97-2.97-6.56-2.8-10.27-2.12c-0.63,0.11-1.24,0.28-1.86,0.45c-0.56,0.15-1.18,0.28-1.61-0.1c-1.85-1.64-4.23-1.38-6.37-1.57
		c-3.25-0.3-6.46-0.83-9.67-1.33c-0.31-0.05-0.62-0.14-0.94-0.17c-1.59-0.13-3.67-0.86-5.02-1.58c-0.89-0.48-1.52-1.07-1.93-2
		c-0.72-1.62-3.63-3.21-5.13-2.45c-1.93,0.98-3.57,0.35-5.27-0.23c-2.46-0.85-4.96-1.12-7.54-0.96c-1.85,0.12-3.58,0.48-5.19,1.55
		c-2.43,1.61-5.24,2.32-8.09,2.74c-1.41,0.21-2.83,0.43-4.24,0.61c-2.2,0.29-4.33,0.93-5.86,2.85c-0.87,1.09-2.09,1.72-3.61,1.04
		c-1.85-0.83-2.2-1.48-1.69-3.44c0.22-0.84,0.5-1.66,0.72-2.36c-0.27-0.62-0.7-0.57-1.09-0.59c-6.13-0.27-12.26-0.64-18.41-0.5
		c-2.72,0.06-5.43-0.01-8.15-0.02c-0.13-1.41,0.43-2.66,0.99-3.89c1.59-3.46,3.87-6.42,6.79-8.84c1.85-1.53,4.07-2.59,6.44-3
		c3.45-0.6,6.79-1.64,10.23-2.22c4.9-0.83,9.86-1.3,14.78-1.94c4.76-0.62,9.59-0.55,14.32-1.7c1.92-0.47,4.02-0.67,6.05-0.87
		C411.43,100.15,411.85,99.67,412.38,99.23z"/>
	<path class="coheceanLogo-component5" d="M614.36,204.76c2.56-1.3,5.37-1.93,8.08-2.75c6.56-1.99,13.18-3.77,19.25-7.07c0.13-0.07,0.3-0.08,0.49-0.13
		c0.36,0.53-0.36,0.58-0.39,0.85c-0.12,0.83,0.59,0.29,0.89,0.46c-3.45,1.6-7.04,2.82-10.68,3.91c-5.16,1.54-10.36,2.94-15.53,4.44
		C615.76,204.66,615.07,204.75,614.36,204.76z"/>
	<path class="coheceanLogo-component2" d="M636.42,173.09c0.1,0.4,0.58,0.77,0.16,1.22c-0.23,0.24-0.57,0.24-0.8,0c-0.42-0.45,0.06-0.82,0.16-1.22
		C636.1,173.09,636.26,173.09,636.42,173.09z"/>
	<path class="coheceanLogo-component2" d="M628.75,173.58c-0.48,0.61-0.96,0.61-1.44,0C627.79,173.57,628.27,173.58,628.75,173.58z"/>
	<path class="coheceanLogo-component2" d="M656.09,174.53c-0.21,0.39-0.57,0.47-0.96,0.48C655.34,174.63,655.7,174.54,656.09,174.53z"/>
	<path class="coheceanLogo-component2" d="M657.53,176.45c-0.39-0.21-0.47-0.57-0.48-0.96C657.44,175.7,657.52,176.05,657.53,176.45z"/>
	<path class="coheceanLogo-component2" d="M624.91,173.57c-0.32,0.49-0.64,0.48-0.96,0C624.27,173.57,624.59,173.57,624.91,173.57z"/>
	<path class="coheceanLogo-component2" d="M611.96,167.34c0.01-0.4,0.09-0.75,0.48-0.96C612.43,166.77,612.34,167.13,611.96,167.34z"/>
	<path class="coheceanLogo-component2" d="M647.94,194.67c0-0.32,0-0.63,0-0.95C648.42,194.03,648.43,194.35,647.94,194.67z"/>
	<path class="coheceanLogo-component2" d="M637.38,172.61c-0.21,0.38-0.56,0.47-0.96,0.48C636.63,172.71,636.99,172.62,637.38,172.61z"/>
	<path class="coheceanLogo-component2" d="M633.54,173.1c-0.32,0.48-0.64,0.48-0.96,0C632.91,173.1,633.22,173.1,633.54,173.1z"/>
	<path class="coheceanLogo-component2" d="M644.58,181.73c-0.32,0.49-0.64,0.48-0.96,0C643.94,181.72,644.26,181.73,644.58,181.73z"/>
	<path class="coheceanLogo-component2" d="M654.18,175.01c-0.4-0.01-0.76-0.09-0.96-0.48C653.61,174.54,653.97,174.62,654.18,175.01z"/>
	<path class="coheceanLogo-component2" d="M620.59,173.09c-0.32,0.49-0.64,0.49-0.96,0C619.95,173.09,620.27,173.09,620.59,173.09z"/>
	<path class="coheceanLogo-component2" d="M648.9,173.09c-0.39-0.01-0.75-0.09-0.96-0.48C648.33,172.62,648.69,172.71,648.9,173.09z"/>
	<path class="coheceanLogo-component2" d="M645.54,172.62c-0.21,0.38-0.57,0.47-0.96,0.47C644.78,172.71,645.14,172.62,645.54,172.62z"/>
	<path class="coheceanLogo-component2" d="M642.66,173.09c-0.32,0-0.64,0-0.96,0C642.02,172.6,642.34,172.6,642.66,173.09z"/>
	<path class="coheceanLogo-component2" d="M639.79,173.09c-0.4-0.01-0.75-0.09-0.96-0.47C639.22,172.62,639.58,172.71,639.79,173.09z"/>
	<path class="coheceanLogo-component2" d="M651.29,173.57c-0.16-0.16-0.32-0.32-0.48-0.48C650.98,173.25,651.14,173.41,651.29,173.57z"/>
	<path class="coheceanLogo-component2" d="M610.52,174.05c-0.16-0.16-0.32-0.32-0.48-0.48C610.2,173.73,610.36,173.89,610.52,174.05z"/>
	<path class="coheceanLogo-component2" d="M616.75,173.58c-0.16,0.16-0.32,0.32-0.48,0.47C616.43,173.89,616.59,173.73,616.75,173.58z"/>
	<path class="coheceanLogo-component2" d="M617.71,173.57c-0.16,0.27-0.32,0.28-0.48,0C617.4,173.57,617.55,173.57,617.71,173.57z"/>
	<path class="coheceanLogo-component2" d="M651.78,174.05c-0.16-0.16-0.32-0.32-0.49-0.48C651.46,173.73,651.62,173.89,651.78,174.05z"/>
	<path class="coheceanLogo-component2" d="M614.35,174.06c-0.16,0.16-0.32,0.32-0.48,0.47C614.03,174.37,614.19,174.21,614.35,174.06z"/>
	<path class="coheceanLogo-component2" d="M615.32,174.05c-0.16,0.27-0.32,0.28-0.48,0C615,174.05,615.16,174.05,615.32,174.05z"/>
	<path class="coheceanLogo-component2" d="M652.74,174.53c-0.16-0.16-0.32-0.32-0.49-0.48C652.42,174.21,652.58,174.37,652.74,174.53z"/>
	<path class="coheceanLogo-component2" d="M612.92,174.53c-0.16,0.27-0.32,0.28-0.48,0C612.6,174.53,612.76,174.53,612.92,174.53z"/>
	<path class="coheceanLogo-component2" d="M657.05,177.41c0.16-0.16,0.32-0.32,0.48-0.48C657.37,177.09,657.21,177.25,657.05,177.41z"/>
	<path class="coheceanLogo-component2" d="M655.61,178.84c0.16-0.16,0.32-0.32,0.48-0.48C655.93,178.53,655.77,178.68,655.61,178.84z"/>
	<path class="coheceanLogo-component2" d="M649.38,179.32c0.16-0.28,0.32-0.27,0.48,0c0,0-0.24,0-0.24,0L649.38,179.32z"/>
	<path class="coheceanLogo-component2" d="M650.82,179.32c0.16-0.16,0.32-0.32,0.48-0.48C651.14,179.01,650.98,179.17,650.82,179.32z"/>
	<path class="coheceanLogo-component2" d="M643.62,181.72c-0.16-0.16-0.32-0.32-0.48-0.48C643.3,181.41,643.46,181.56,643.62,181.72z"/>
	<path class="coheceanLogo-component2" d="M645.54,182.2c-0.16-0.16-0.32-0.32-0.48-0.47C645.22,181.89,645.38,182.05,645.54,182.2z"/>
	<path class="coheceanLogo-component2" d="M645.54,184.12c0.16-0.16,0.32-0.32,0.48-0.48C645.86,183.8,645.7,183.96,645.54,184.12z"/>
	<path class="coheceanLogo-component2" d="M645.54,185.56c-0.16-0.16-0.32-0.32-0.48-0.48C645.22,185.24,645.38,185.4,645.54,185.56z"/>
	<path class="coheceanLogo-component2" d="M646.02,190.37c0.16-0.16,0.32-0.33,0.47-0.49C646.34,190.04,646.18,190.2,646.02,190.37z"/>
	<path class="coheceanLogo-component2" d="M646.01,191.32c-0.19-0.07-0.26-0.19-0.18-0.34c0.03-0.06,0.12-0.09,0.18-0.14
		C646.02,191,646.02,191.16,646.01,191.32z"/>
	<path class="coheceanLogo-component2" d="M646.5,195.15c0.16-0.16,0.32-0.32,0.48-0.47C646.82,194.83,646.66,194.99,646.5,195.15z"/>
	<path class="coheceanLogo-component2" d="M612.44,166.38c0.16-0.16,0.32-0.32,0.48-0.48C612.76,166.06,612.6,166.22,612.44,166.38z"/>
	<path class="coheceanLogo-component2" d="M612.92,205.71c0.16-0.16,0.32-0.32,0.48-0.48C613.24,205.39,613.08,205.55,612.92,205.71z"/>
	<path class="coheceanLogo-component2" d="M612.91,206.18c-0.19-0.07-0.26-0.19-0.18-0.34c0.03-0.06,0.12-0.09,0.18-0.14
		C612.92,205.87,612.91,206.02,612.91,206.18z"/>
	<path class="coheceanLogo-component2" d="M613.4,207.14c-0.16-0.16-0.32-0.32-0.48-0.48C613.08,206.82,613.24,206.98,613.4,207.14z"/>
	<path class="coheceanLogo-component2" d="M656.09,178.37c0.16-0.16,0.32-0.32,0.48-0.48C656.41,178.05,656.25,178.21,656.09,178.37z"/>
	<path class="coheceanLogo-component2" d="M620.11,160.14c0.16-0.16,0.32-0.32,0.48-0.48C620.43,159.82,620.27,159.98,620.11,160.14z"/>
	<path class="coheceanLogo-component2" d="M619.63,160.62c0.16-0.16,0.32-0.32,0.48-0.48C619.95,160.3,619.79,160.46,619.63,160.62z"/>
	<path class="coheceanLogo-component2" d="M617.71,162.06c0.16-0.16,0.32-0.32,0.48-0.48C618.04,161.74,617.87,161.9,617.71,162.06z"/>
	<path class="coheceanLogo-component2" d="M617.23,162.54c0.16-0.16,0.32-0.32,0.48-0.48C617.55,162.22,617.39,162.38,617.23,162.54z"/>
	<path class="coheceanLogo-component2" d="M615.32,163.98c0.16-0.16,0.32-0.32,0.48-0.48C615.64,163.66,615.48,163.82,615.32,163.98z"/>
	<path class="coheceanLogo-component2" d="M614.84,164.45c0.16-0.16,0.32-0.32,0.48-0.48C615.16,164.14,615,164.3,614.84,164.45z"/>
	<path class="coheceanLogo-component2" d="M612.92,165.9c0.16-0.16,0.32-0.32,0.48-0.48C613.24,165.58,613.08,165.74,612.92,165.9z"/>
	<path class="coheceanLogo-component2" d="M610.52,170.22c0.16-0.16,0.32-0.32,0.48-0.48C610.84,169.9,610.68,170.06,610.52,170.22z"/>
	<path class="coheceanLogo-component2" d="M609.56,173.09c0-0.16,0-0.32,0-0.48c0.16,0.16,0.32,0.32,0.48,0.48
		C609.88,173.09,609.72,173.09,609.56,173.09z"/>
	<path class="coheceanLogo-component2" d="M632.1,173.09c-0.16,0.16-0.32,0.32-0.48,0.47C631.78,173.41,631.94,173.25,632.1,173.09z"/>
	<path class="coheceanLogo-component2" d="M649.85,173.09c-0.16,0.27-0.32,0.27-0.48,0C649.54,173.09,649.7,173.09,649.85,173.09z"/>
	<path class="coheceanLogo-component2" d="M645.06,195.63c0.16-0.16,0.32-0.32,0.49-0.47C645.38,195.31,645.22,195.47,645.06,195.63z"/>
	<path class="coheceanLogo-component6" d="M214.74,356.78c0.21,0.05,0.6,0.24,0.51,0.29c-0.91,0.43-1.84,0.98-2.82,1.1c-1.45,0.18-2.77,0.75-4.13,1.17
		c-3.33,1.05-6.63,2.17-9.94,3.29c-0.66,0.22-1.26,0.49-1.36-0.56c4.61-1.45,9.22-2.91,13.82-4.36
		C212.1,357.3,213.39,356.9,214.74,356.78z"/>
	<path class="coheceanLogo-component2" d="M609.45,173.49c-0.01,0.01-0.1,0.25-0.26,0.31c-0.25,0.1-0.45-0.09-0.34-0.34c0.07-0.16,0.31-0.25,0.49-0.34
		C609.56,173.01,609.63,173.08,609.45,173.49z"/>
</g>
<g>
	<path class="coheceanLogo-component7" d="M164.1,245.35c-6.73,0-12.76,1.51-18.1,4.41c-5.34,2.9-9.51,6.96-12.41,12.18c-2.9,5.22-4.29,11.14-4.29,17.75
		c0,6.61,1.51,12.53,4.52,17.75c0.46,0.81,0.93,1.62,1.51,2.32c1.97,1.86,4.18,3.48,6.73,4.87c5.34,2.9,11.37,4.29,18.1,4.29
		c10.21,0,18.56-3.25,25.06-9.63s9.86-14.62,9.86-24.71c0-6.61-1.51-12.53-4.41-17.75c-0.46-0.81-0.93-1.62-1.51-2.44
		c-1.97-1.86-4.18-3.48-6.73-4.87C176.86,246.74,170.83,245.35,164.1,245.35z"/>
	<polygon class="coheceanLogo-component7" points="672.68,285.49 659.22,253.94 646.92,285.49 	"/>
	<path class="coheceanLogo-component8" d="M92.41,316.12c-6.38,3.36-12.3,5.8-17.75,7.19c-5.34,1.39-11.72,2.09-18.91,2.09
		c-10.44,0-19.84-2.09-28.07-6.26c-4.76-2.44-8.93-5.45-12.53-9.16c4.41,5.92,9.98,10.67,16.82,14.15
		c8.24,4.18,17.52,6.26,28.07,6.26c7.19,0,13.46-0.7,18.91-2.09c5.34-1.39,11.25-3.83,17.75-7.19v-17.98
		c-1.51,0.81-2.9,1.51-4.29,2.2V316.12z"/>
	<path class="coheceanLogo-component8" d="M74.32,242.68c-5.22-1.51-10.56-2.32-16.24-2.32c-7.08,0-13.46,1.51-19.14,4.41
		c-5.68,2.9-10.09,6.96-13.22,12.3c-3.13,5.34-4.76,11.14-4.76,17.63c0,6.61,1.51,12.53,4.64,17.86c1.51,2.55,3.25,4.76,5.34,6.73
		c-0.35-0.58-0.7-1.04-1.04-1.62c-3.13-5.22-4.64-11.14-4.64-17.86c0-6.5,1.62-12.41,4.76-17.63c3.13-5.34,7.54-9.4,13.22-12.3
		c5.68-2.9,12.06-4.41,19.14-4.41c5.68,0,11.02,0.81,16.24,2.32c5.22,1.51,10.79,4.06,16.94,7.54v-17.98
		c-1.39-0.7-2.9-1.39-4.29-1.97v14.96C85.1,246.74,79.54,244.19,74.32,242.68z"/>
	<path class="coheceanLogo-component8" d="M133.71,297.44c-3.02-5.22-4.52-11.14-4.52-17.75c0-6.61,1.39-12.53,4.29-17.75
		c2.9-5.22,6.96-9.28,12.41-12.18c5.34-2.9,11.37-4.41,18.1-4.41s12.76,1.39,18.1,4.29c2.55,1.39,4.76,3.02,6.73,4.87
		c-2.78-4.18-6.5-7.42-11.02-9.86c-5.34-2.9-11.37-4.29-18.1-4.29s-12.76,1.51-18.1,4.41c-5.34,2.9-9.51,6.96-12.41,12.18
		c-2.9,5.22-4.29,11.14-4.29,17.75c0,6.61,1.51,12.53,4.52,17.75c1.62,2.78,3.48,5.22,5.8,7.31
		C134.75,298.95,134.17,298.25,133.71,297.44z"/>
	<path class="coheceanLogo-component8" d="M204.59,244.54c0.93,1.28,1.86,2.55,2.67,3.94c4.87,8,7.31,16.7,7.31,26.22c0,9.28-2.32,17.86-7.08,25.75
		c-4.76,7.89-11.25,14.04-19.61,18.44c-8.35,4.41-17.63,6.61-28.07,6.61c-10.21,0-19.61-2.2-27.96-6.61
		c-4.87-2.55-9.05-5.68-12.76-9.4c4.41,5.92,10.09,10.79,16.94,14.5c8.35,4.41,17.75,6.61,27.96,6.61c10.44,0,19.72-2.2,28.07-6.61
		c8.35-4.41,14.85-10.56,19.61-18.44c4.76-7.89,7.08-16.47,7.08-25.75c0-9.51-2.44-18.21-7.31-26.22
		C209.58,250.11,207.26,247.21,204.59,244.54z"/>
	<polygon class="coheceanLogo-component8" points="322.34,324.24 307.49,324.24 307.49,329.23 326.63,329.23 326.63,230.04 322.34,230.04 	"/>
	<rect x="251.69" y="230.04" class="coheceanLogo-component8" width="4.29" height="36.66"/>
	<polygon class="coheceanLogo-component8" points="251.69,282.36 251.69,324.24 236.84,324.24 236.84,329.23 255.98,329.23 255.98,287.35 303.2,287.35 
		303.2,282.36 	"/>
	<polygon class="coheceanLogo-component8" points="409.23,324.24 348.44,324.24 348.44,329.23 413.52,329.23 413.52,314.26 409.23,314.26 	"/>
	<polygon class="coheceanLogo-component8" points="363.4,281.08 363.4,309.16 367.58,309.16 367.58,286.07 410.62,286.07 410.62,271.11 406.33,271.11 
		406.33,281.08 	"/>
	<polygon class="coheceanLogo-component8" points="363.4,240.02 363.4,266.12 367.58,266.12 367.58,245 412.59,245 412.59,230.04 408.3,230.04 
		408.3,240.02 	"/>
	<path class="coheceanLogo-component8" d="M496.23,242.68c-5.22-1.51-10.56-2.32-16.24-2.32c-7.08,0-13.46,1.51-19.14,4.41
		c-5.68,2.9-10.09,6.96-13.22,12.3c-3.13,5.34-4.76,11.14-4.76,17.63c0,6.61,1.51,12.53,4.64,17.86c1.51,2.55,3.25,4.76,5.34,6.73
		c-0.35-0.58-0.7-1.04-1.04-1.62c-3.13-5.22-4.64-11.14-4.64-17.86c0-6.5,1.62-12.41,4.76-17.63c3.13-5.34,7.54-9.4,13.22-12.3
		c5.68-2.9,12.06-4.41,19.14-4.41c5.68,0,11.02,0.81,16.24,2.32c5.22,1.51,10.79,4.06,16.94,7.54v-17.98
		c-1.39-0.7-2.9-1.39-4.29-1.97v14.96C507.02,246.74,501.33,244.19,496.23,242.68z"/>
	<path class="coheceanLogo-component8" d="M514.21,316.12c-6.38,3.36-12.3,5.8-17.75,7.19c-5.34,1.39-11.72,2.09-18.91,2.09
		c-10.44,0-19.84-2.09-28.07-6.26c-4.76-2.44-8.93-5.45-12.53-9.16c4.41,5.92,9.98,10.67,16.82,14.15
		c8.24,4.18,17.52,6.26,28.07,6.26c7.19,0,13.46-0.7,18.91-2.09c5.34-1.39,11.25-3.83,17.75-7.19v-17.98
		c-1.51,0.81-2.9,1.51-4.29,2.2V316.12L514.21,316.12z"/>
	<polygon class="coheceanLogo-component8" points="597.62,324.24 536.72,324.24 536.72,329.23 601.8,329.23 601.8,314.26 597.62,314.26 	"/>
	<polygon class="coheceanLogo-component8" points="551.68,281.08 551.68,309.16 555.97,309.16 555.97,286.07 598.9,286.07 598.9,271.11 594.6,271.11 
		594.6,281.08 	"/>
	<polygon class="coheceanLogo-component8" points="551.68,240.02 551.68,266.12 555.97,266.12 555.97,245 600.87,245 600.87,230.04 596.58,230.04 
		596.58,240.02 	"/>
	<polygon class="coheceanLogo-component8" points="667.92,230.04 709.45,324.24 691.35,324.24 693.56,329.23 713.74,329.23 670.01,230.04 	"/>
	<polygon class="coheceanLogo-component8" points="634.86,300.11 625.34,324.24 611.54,324.24 609.45,329.23 629.64,329.23 639.15,305.1 681.14,305.1 
		678.94,300.11 	"/>
	<polygon class="coheceanLogo-component8" points="659.22,253.94 655.97,246.28 640.66,285.49 646.92,285.49 	"/>
	<polygon class="coheceanLogo-component8" points="739.84,324.24 725.34,324.24 725.34,329.23 744.14,329.23 744.14,258.93 739.84,253.82 	"/>
	<rect x="769.57" y="220.06" class="coheceanLogo-component8" width="0" height="84.22"/>
	<polygon class="coheceanLogo-component8" points="815.48,230.04 815.48,324.24 799.12,324.24 803.3,329.23 819.77,329.23 819.77,230.04 	"/>
	<path class="coheceanLogo-component9" d="M55.75,325.51c7.19,0,13.46-0.7,18.91-2.09c5.34-1.39,11.25-3.83,17.75-7.19v-10.79v-7.31
		c-7.54,4.06-13.8,6.84-18.68,8.47c-4.99,1.51-10.09,2.32-15.54,2.32c-7.08,0-13.46-1.39-19.14-4.29c-3.02-1.51-5.57-3.36-7.89-5.45
		c-2.09-1.97-3.83-4.18-5.34-6.73c-3.13-5.22-4.64-11.14-4.64-17.86c0-6.5,1.62-12.41,4.76-17.63c3.13-5.34,7.54-9.4,13.22-12.3
		c5.68-2.9,12.06-4.41,19.14-4.41c5.68,0,11.02,0.81,16.24,2.32c5.22,1.51,10.79,4.06,16.94,7.54v-14.96v-3.02
		c-6.26-3.02-12.06-5.22-17.4-6.5c-5.34-1.28-10.9-1.97-16.59-1.97c-10.67,0-20.19,2.2-28.65,6.5s-15.2,10.44-19.95,18.33
		c-4.87,8-7.31,16.94-7.31,26.91c0,9.28,2.32,17.86,7.08,25.75c1.97,3.25,4.29,6.26,6.84,8.82c3.6,3.71,7.77,6.73,12.53,9.16
		C36.03,323.42,45.31,325.51,55.75,325.51z"/>
	<path class="coheceanLogo-component9" d="M131.85,318.78c8.35,4.41,17.75,6.61,27.96,6.61c10.44,0,19.72-2.2,28.07-6.61
		c8.35-4.41,14.85-10.56,19.61-18.44c4.76-7.89,7.08-16.47,7.08-25.75c0-9.51-2.44-18.21-7.31-26.22c-0.81-1.39-1.74-2.67-2.67-3.94
		c-4.52-6.03-10.09-10.9-16.94-14.38c-8.24-4.18-17.4-6.38-27.73-6.38c-10.67,0-20.19,2.2-28.42,6.61s-14.73,10.67-19.37,18.68
		c-4.64,8-7.08,16.59-7.08,25.64c0,9.4,2.32,17.98,7.08,25.75c1.97,3.25,4.29,6.26,6.96,8.93
		C122.81,313.1,126.98,316.23,131.85,318.78z M129.53,292.45c-3.02-5.22-4.52-11.14-4.52-17.75c0-6.61,1.39-12.53,4.29-17.75
		c2.9-5.22,6.96-9.28,12.41-12.18c5.34-2.9,11.37-4.41,18.1-4.41s12.76,1.39,18.1,4.29c4.52,2.44,8.24,5.68,11.02,9.86
		c0.58,0.81,1.04,1.51,1.51,2.44c2.9,5.22,4.41,11.25,4.41,17.75c0,10.09-3.25,18.33-9.86,24.71c-6.5,6.38-14.96,9.63-25.06,9.63
		c-6.73,0-12.76-1.39-18.1-4.29c-2.55-1.39-4.76-3.02-6.73-4.87C133.01,297.67,131.04,295.24,129.53,292.45z"/>
	<polygon class="coheceanLogo-component9" points="322.34,230.04 322.34,225.05 303.2,225.05 303.2,266.81 255.98,266.81 251.69,266.81 251.69,230.04 
		251.69,225.05 232.55,225.05 232.55,324.24 236.84,324.24 251.69,324.24 251.69,282.36 303.2,282.36 303.2,287.35 303.2,324.24 
		307.49,324.24 322.34,324.24 	"/>
	<polygon class="coheceanLogo-component9" points="409.23,314.26 409.23,309.16 367.58,309.16 363.4,309.16 363.4,281.08 406.33,281.08 406.33,271.11 
		406.33,266.12 367.58,266.12 363.4,266.12 363.4,240.02 408.3,240.02 408.3,230.04 408.3,225.05 344.15,225.05 344.15,324.24 
		348.44,324.24 409.23,324.24 	"/>
	<path class="coheceanLogo-component9" d="M477.67,325.51c7.19,0,13.46-0.7,18.91-2.09c5.34-1.39,11.25-3.83,17.75-7.19v-10.79v-7.31
		c-7.54,4.06-13.8,6.84-18.68,8.47c-4.99,1.51-10.09,2.32-15.54,2.32c-7.08,0-13.46-1.39-19.14-4.29c-3.02-1.51-5.57-3.36-7.89-5.45
		c-2.09-1.97-3.83-4.18-5.34-6.73c-3.13-5.22-4.64-11.14-4.64-17.86c0-6.5,1.62-12.41,4.76-17.63c3.13-5.34,7.54-9.4,13.22-12.3
		c5.68-2.9,12.06-4.41,19.14-4.41c5.68,0,11.02,0.81,16.24,2.32c5.22,1.51,10.79,4.06,16.94,7.54v-14.96v-3.02
		c-6.26-3.02-12.06-5.22-17.4-6.5s-10.9-1.97-16.59-1.97c-10.67,0-20.19,2.2-28.65,6.5c-8.47,4.29-15.2,10.44-19.95,18.33
		c-4.87,8-7.31,16.94-7.31,26.91c0,9.28,2.32,17.86,7.08,25.75c1.97,3.25,4.29,6.26,6.84,8.82c3.6,3.71,7.77,6.73,12.53,9.16
		C457.83,323.42,467.23,325.51,477.67,325.51z"/>
	<polygon class="coheceanLogo-component9" points="597.62,314.26 597.62,309.16 555.97,309.16 551.68,309.16 551.68,281.08 594.6,281.08 594.6,271.11 
		594.6,266.12 555.97,266.12 551.68,266.12 551.68,240.02 596.58,240.02 596.58,230.04 596.58,225.05 532.54,225.05 532.54,324.24 
		536.72,324.24 597.62,324.24 	"/>
	<path class="coheceanLogo-component9" d="M667.92,230.04l-2.2-4.99h-19.61l-40.83,99.07h6.38h13.69l9.63-24.13h44.08l2.09,4.99l8.12,19.14h2.09h18.1
		L667.92,230.04z M655.97,246.28l3.25,7.66l13.46,31.55h-25.75h-6.26L655.97,246.28z"/>
	<polygon class="coheceanLogo-component9" points="815.48,230.04 815.48,225.05 796.8,225.05 796.8,294.19 796.8,294.19 742.16,230.04 737.87,225.05 
		721.05,225.05 721.05,324.24 725.34,324.24 739.84,324.24 739.84,253.82 744.14,258.93 799.12,324.24 799.12,324.24 815.48,324.24 
			"/>
</g>
<polyline class="coheceanLogo-component10" points="661.06,340.29 661.06,533.41 178.03,533.41 "/>
<polyline class="coheceanLogo-component10" points="178.96,218.46 178.96,25.34 661.99,25.34 "/>
</svg>
