<?xml version="1.0" encoding="utf-8"?>
<svg version="1.1" id="amazon_icon" xmlns="http://www.w3.org/2000/svg" xmlns:xlink="http://www.w3.org/1999/xlink" x="0px" y="0px"
	 viewBox="0 0 1200 1200" style="enable-background:new 0 0 1200 1200;" xml:space="preserve">
<path d="M766.7,584.7c0.1-47.4-1.5-94.8-4.6-142.1c-2.4-35.4-22-62.5-53.6-77.5c-72.9-34.9-145.7-31.7-213.8,12
	c-33,21.2-53.5,53.1-48.9,101.9c29.7,2.4,58,4.8,84.5,6.9c38.3-54.8,65.1-68.8,97.2-52.7c25.2,12.7,29.8,30.9,18,77.5
	c-11.3,1.5-24,2.3-36.2,5c-35.4,8-72.7,12-105.5,26.3c-64.5,28.3-91.3,103.1-67,171.7c19.9,56.1,73.4,83.9,143.4,67.8
	c32.3-7.5,62-26.5,93.6-40.6c15.2,13.6,32.1,28.6,50.2,44.8c17.6-13.6,30.2-23.7,43.1-33.4c11.6-8.7,23.3-17.2,40-29.4
	C765.5,676.3,766.6,630.7,766.7,584.7z M637.7,675.2c-16.6,25-43.5,35-65.9,25.4c-22.8-9.8-33.9-42.1-25-70.9
	c7.8-25.1,25.5-40.1,49.5-46.9c15.5-4.5,32.1-5.1,55.2-8.5C656.9,614,657.1,645.9,637.7,675.2z"/>
<path d="M337.4,784.3c162.4,108.5,323.8,124,494.8,37c-20.2,55.6-105.4,99.6-197.8,108.8C524.3,940.9,393.5,880.4,337.4,784.3z"/>
<path d="M844.2,875.1c2.5-20.9,4.8-40.2,7.6-64.5c-22.1-1.3-41.5-2.5-60.8-3.6c22.2-27.9,36.6-30.3,86.3-14.5
	C880.8,842.5,879.3,846.5,844.2,875.1z"/>
</svg>
