<?xml version="1.0" encoding="utf-8"?>
<!-- Generator: Adobe Illustrator 25.0.0, SVG Export Plug-In . SVG Version: 6.00 Build 0)  -->
<svg version="1.1" id="Ebene_1" xmlns="http://www.w3.org/2000/svg" xmlns:xlink="http://www.w3.org/1999/xlink" x="0px" y="0px"
	 viewBox="0 0 1200 1200" style="enable-background:new 0 0 1200 1200;" xml:space="preserve">
<path d="M807.8,498.9c-67,63.9-89.1,141.1,12.2,223.6c-9.3,49.4-38.3,88.6-73.3,123.4c-21.3,21.2-48.8,25.5-76.3,12.9
	c-41.1-18.9-81-18.1-121.6,0.8c-31,14.4-58.2,4.8-79.5-18.5c-70.3-76.9-106.4-167.2-89-271.5c15.9-95.4,104-143.9,183-108.6
	c29.1,13,55.4,9.5,84.1-1.5C707.7,436.3,761.6,445.4,807.8,498.9z"/>
<path d="M603.4,436.1c-1.6-66.7,28.4-102.6,98.6-118.2C714.4,384.9,672.6,434.9,603.4,436.1z"/>
</svg>
