<?xml version="1.0" encoding="utf-8"?>
<svg version="1.1" id="discord_icon" xmlns="http://www.w3.org/2000/svg" xmlns:xlink="http://www.w3.org/1999/xlink" x="0px" y="0px"
	 viewBox="0 0 1200 1200" style="enable-background:new 0 0 1200 1200;" xml:space="preserve">
<path d="M955.9,735.5c-4.5-91-29.1-176.5-63.1-259.7C866.9,412.4,784.4,369.9,707,381c17.6,10.6,32.4,19.5,47.1,28.3
	c-107.6-22.7-211.7-16.5-317,8c25.3-11.7,50.6-23.4,75.9-35.1c-1-3.8-2-7.7-3.1-11.5c-27.7,7.5-55.8,13.8-83,22.8
	c-49.7,16.4-86.1,47.3-99.8,100c-17.9,68.8-40.3,136.7-52.3,206.5c-14,81.2,4.3,107.8,79.5,140.5c14.9,6.5,31,11,47,14.3
	c51.2,10.8,52.3,9.9,78.3-41.1c-19.6-12.4-39.1-24.7-58.6-37c125.1,47.5,249.1,48,375.7,6.5c-17.7,10.7-35.4,21.4-53.2,32.1
	c34,49.3,35.8,52.4,84.6,38.1c32.6-9.6,63.8-26,93.2-43.3C948.4,794.4,957.5,768.6,955.9,735.5z M502.1,715.9
	c-32.4-0.9-56-27.3-55.5-62.2c0.5-33.5,26.7-62.6,56.5-62.8c30.6-0.2,58,28.2,58.6,60.6C562.4,688.4,536.1,716.8,502.1,715.9z
	 M716.5,716.1c-30-0.9-57.8-31.1-57.5-62.6c0.3-33.8,32.2-65.2,63.4-62.2c30.3,2.9,55.1,32.9,53.8,65.5
	C774.9,689.6,747.3,717,716.5,716.1z"/>
</svg>
