<?xml version="1.0" encoding="utf-8"?>
<!-- Generator: Adobe Illustrator 25.0.0, SVG Export Plug-In . SVG Version: 6.00 Build 0)  -->
<svg version="1.1" id="Ebene_1" xmlns="http://www.w3.org/2000/svg" xmlns:xlink="http://www.w3.org/1999/xlink" x="0px" y="0px"
	 viewBox="0 0 1200 1200" style="enable-background:new 0 0 1200 1200;" xml:space="preserve">
<path d="M904.4,457.3c-3.9-87.4-61.4-148.8-149.1-154.4c-100.1-6.4-201.2-6.3-301.4-0.7c-87.2,4.9-149.6,61.7-154.7,143.7
	c-6.7,105.6-7.4,212.3,0.3,317.7c6.5,90.5,70.9,143,162.1,147.5c45.6,2.3,91.4,0.4,137.1,0.3c47.5,0,95.1,2,142.6-0.4
	c97.2-5,158.9-61.8,163.3-157.7C909.1,654.8,908.9,555.8,904.4,457.3z M849.5,747.1c-2.8,66-43.4,104.6-109.5,106.9
	c-89.4,3.2-179.1,4-268.4,0.4c-81.4-3.4-114.3-40.3-119.1-120.6c-0.4-7.3-1-14.6-1-22c-0.1-36.5,0-73.1,0-109.7
	c0,0-0.8-87.9,1.8-131.6c4.2-70.4,39.9-109.8,109.8-112.7c93.1-3.9,186.5-3.9,279.6,0.1c66.4,2.9,104.1,41.6,107,109.6
	C853.4,560.5,853.4,654,849.5,747.1z"/>
<path d="M599.3,448.1c-86.6,1-155.2,70.4-155.7,157.6c-0.5,89.8,68.5,157.5,160.2,157c88.4-0.5,154.8-67.4,154.8-155.9
	C758.6,516.7,688.7,447,599.3,448.1z M600.4,707.2c-56.4-0.4-100.3-45.4-99.7-102.2c0.7-57,45.1-100.2,102.2-99.5
	c57.1,0.8,100.3,44.9,99.7,101.9C702,663.9,657.2,707.6,600.4,707.2z"/>
<path d="M801.6,432.7c-1.1,32.2-17.6,46.7-39.4,44.2c-21.1-2.5-31.7-15.6-32.3-35.9c-0.6-20.7,18.7-38.7,39.2-32.7
	C783.2,412.4,794.1,426.7,801.6,432.7z"/>
</svg>
