<?xml version="1.0" encoding="utf-8"?>
<!-- Generator: Adobe Illustrator 25.0.0, SVG Export Plug-In . SVG Version: 6.00 Build 0)  -->
<svg version="1.1" id="Ebene_1" xmlns="http://www.w3.org/2000/svg" xmlns:xlink="http://www.w3.org/1999/xlink" x="0px" y="0px"
	 viewBox="0 0 1200 1200" style="enable-background:new 0 0 1200 1200;" xml:space="preserve">
<path d="M915.3,453.8c-0.3-42.6-9-51.3-52.3-51.5c-175.2-0.8-350.3-0.8-525.5-0.1c-43.3,0.2-51.7,8.8-52,51.4
	c-0.8,109.7-0.7,219.3,0,328.9c0.3,46,8.2,53.6,54.7,54c85.7,0.7,171.5,0.2,257.3,0.2c89.4,0,178.8,0.6,268.2-0.3
	c39.7-0.4,49.1-9.1,49.5-48.3C916.1,676.7,916.1,565.2,915.3,453.8z M817.9,737.4c-40.3-39.9-80.5-79.8-124.1-123
	c-31.6,29.9-61.5,58.2-94.2,89.2c-31.3-28.4-60.7-55-92.7-84c-42.5,40.8-84,80.6-125.5,120.4c-2.4-2-4.8-4.1-7.2-6.2
	c36.2-43.7,72.6-87.4,112.1-135.2c-23.1-24.2-45.3-47.3-67.5-70.5c1.9-2.5,3.8-4.9,5.8-7.3c57.6,47.6,115.2,95.3,175.3,145
	c59.5-49.2,116.5-96.4,173.5-143.6c2.1,2.1,4.1,4.2,6.2,6.3c-20.2,21.5-40.4,43-65.8,70.1c38.2,46.1,74,89.5,109.8,132.8
	C821.8,733.3,819.8,735.4,817.9,737.4z"/>
</svg>
