<?xml version="1.0" encoding="utf-8"?>
<!-- Generator: Adobe Illustrator 25.0.0, SVG Export Plug-In . SVG Version: 6.00 Build 0)  -->
<svg version="1.1" id="Ebene_1" xmlns="http://www.w3.org/2000/svg" xmlns:xlink="http://www.w3.org/1999/xlink" x="0px" y="0px"
	 viewBox="0 0 1200 1200" style="enable-background:new 0 0 1200 1200;" xml:space="preserve">
<path d="M602,905.7c-14,1.7-24.6,3.8-35.2,4c-21.7,0.6-43.5,0.2-69.4,0.2c-1.3-22.5-2.4-41.5-3.9-67c-41.5,0-82.6,0-127.1,0
	c0-18.7-1.6-31.2,0.2-43.2c23.9-151.4,47.9-302.8,72.9-454.1c8.1-49,10.2-50.3,59.6-50.9c60.3-0.8,120.6-1.1,180.9,0.6
	c23.5,0.6,47.4,4.8,70.1,11.3c57.6,16.5,88.1,56.9,87,117.1c-0.5,26.9,2.1,47.9,24.7,67.5c13.7,11.8,22.4,34,25.4,52.8
	c14,86.3-50.3,173.6-137.5,188.3c-26.9,4.5-54.5,6-81.8,6.3c-26.1,0.4-40.4,9.9-44.1,37.1C618.3,817.3,610.1,858.5,602,905.7z"/>
</svg>
