<?xml version="1.0" encoding="utf-8"?>
<svg version="1.1" id="pinterest_icon" xmlns="http://www.w3.org/2000/svg" xmlns:xlink="http://www.w3.org/1999/xlink" x="0px" y="0px"
	 viewBox="0 0 1200 1200" style="enable-background:new 0 0 1200 1200;" xml:space="preserve">
<path d="M439.7,669c-41.4-8.8-65.5-34.8-77.3-74.5c-37.5-125.6,51.6-261.2,189.2-283c67.9-10.8,135-4.8,197.1,30.2
	c56.4,31.7,90.6,78.3,100.5,142.4c11.3,73.2,1.7,142.4-40.5,204.7C756,766.8,678.4,786,594,743.2c-8-4-16.3-7.4-20.8-9.5
	c-24.3,62.3-47.3,123-71.3,183.3c-4.5,11.3-13,21-24.2,28.6c-17.5-35.7-15-68-9.6-99.8c8.6-50.4,18.4-100.7,29.3-150.7
	c9.8-44.6,20-88,8.1-134.7c-7.8-30.6-0.4-62,19.3-88.5c17.3-23.3,42.4-30.9,67.5-21.7c26.6,9.7,28.6,31.2,25.3,54
	c-3.9,27.1-9.6,54-14.9,80.8c-2.1,10.7-6.1,21.1-8.1,31.9c-5.8,31.6-8.4,63.1,23.9,83.3c24.6,15.3,69.9,6.2,96.9-17.6
	c67.8-59.7,75.9-211.1,15.1-277.6c-31.9-34.9-73.1-50.8-118.1-48.7c-79.1,3.7-139.3,41.1-173.6,114.5
	c-20.3,43.6-23.5,87.1,1.3,131.4C457.1,632,455.3,633,439.7,669z"/>
</svg>
