<?xml version="1.0" encoding="utf-8"?>
<!-- Generator: Adobe Illustrator 25.0.0, SVG Export Plug-In . SVG Version: 6.00 Build 0)  -->
<svg version="1.1" id="Ebene_1" xmlns="http://www.w3.org/2000/svg" xmlns:xlink="http://www.w3.org/1999/xlink" x="0px" y="0px"
	 viewBox="0 0 1200 1200" style="enable-background:new 0 0 1200 1200;" xml:space="preserve">
<path d="M397,366c89,89.1,175.7,176.6,261,262.1c-45.9,45.9-98.7,98.6-151.4,151.3c-22,21.9-43.2,44.7-66.3,65.3
	c-7,6.2-21.1,11.4-28.3,8.4c-7.2-3.1-12.9-16.7-13.7-26.2c-2-23.6-1-47.4-1-71.2C397.3,647.9,395.3,389,397,366z"/>
<path d="M456.8,356.4C559.4,414,661.1,471.1,765.2,529.6C738.4,556.9,716,579.8,698,598C618.2,518,539.1,438.8,456.8,356.4z"/>
<path d="M758.2,718.2C666.7,768.3,575,818.6,476.6,872.5C495.8,831.7,642,680.6,694.2,644C713.7,666.6,733.7,689.7,758.2,718.2z"/>
<path d="M791,698.6c-23.5-25.6-44.2-48-68.8-74.7c23.4-24.9,47.5-50.6,72.9-77.6c33.4,18.7,64,34,92.7,52.4
	c23,14.7,23,31.4-0.1,46.1C858.9,663,828.1,678.2,791,698.6z"/>
</svg>
