<?xml version="1.0" encoding="utf-8"?>
<svg version="1.1" id="slack_icon" xmlns="http://www.w3.org/2000/svg" xmlns:xlink="http://www.w3.org/1999/xlink" x="0px" y="0px"
	 viewBox="0 0 1200 1200" style="enable-background:new 0 0 1200 1200;" xml:space="preserve">
<path d="M860.7,366.2c-42-74.2-106-109-190.9-103.9c-100,6-194,32.8-282.1,81.5c-84,46.4-126.3,114.1-115.3,207.5
	C273.9,672,309.7,778,374,874.7c37.3,56,88.7,84.3,157,83.8c114.6-0.9,219.7-32.1,317.3-91.6c70.7-43.1,103-104.8,101.3-187.5
	C947.3,566.9,915.7,463.4,860.7,366.2z M808.2,660.9c-12.1,10.3-28.8,15.1-47.1,23.8c3.2,16.9,9.6,34.4,8.6,51.4
	c-0.7,12.2-8.6,29.1-18.4,34.4c-15.7,8.6-31.9,0.8-40.1-17.2c-6.6-14.6-13.3-29.2-21.2-46.7c-29.6,9.9-56.7,19.1-88.5,29.8
	c5.4,21.6,9.7,35.5,12.1,49.7c3,17.6-0.3,33.6-19.8,39.8c-18.5,5.9-32.3-1.6-40.3-18.9c-6-13.2-11-26.9-17.8-43.7
	c-17.6,3.4-35,9.5-52.2,9c-10.5-0.3-27.7-8.8-29.7-16.8c-2.9-11.4,1.4-29.7,9.7-37.7c12.4-11.9,31-17.4,49.4-26.9
	c-8.9-29.1-17.2-56.3-26.4-86.4c-18.7,4.7-32.5,8.3-46.2,11.6c-18.6,4.4-33-1.8-40.5-19.3c-7.7-18.3,0.2-32.5,16.3-41.5
	c12.6-7,26.5-11.7,43.2-18.8c-3.1-15.9-6.6-31.3-9.2-46.9c-3.4-20.1,0.9-40.4,23.1-41.7c12.1-0.7,27.1,13,37,23.8
	c8.1,8.7,10.6,22.7,18.2,40.3c29.2-8.9,57.7-17.6,88.9-27.1c-4.6-21.6-11.7-39.3-10.6-56.4c0.8-11.8,10.8-29.2,20.6-32.5
	c9.8-3.2,28.1,4.8,36,13.7c10.2,11.7,13.7,29.2,21.5,47.4c14.6-3.2,28.7-5.4,42.1-9.5c19-5.8,33.1,0.1,40.7,17.3
	c9,20.6-0.1,35.2-19.4,44.4c-12.9,6.2-25.7,12.4-41.7,20.2c9.3,29.2,17.9,56.5,27.2,85.7c20.9-4.2,38.8-11.5,55.8-9.8
	c11.4,1,26,12.9,30.7,23.6C823.8,636.8,816.2,654.2,808.2,660.9z"/>
<path d="M672.3,637.1c-12.2,6.1-18.4,9.9-25.1,12.3c-20.5,7.4-41.2,14.2-68.1,23.4c-10.2-30-19.9-58.3-31.4-92.2
	c31.8-11.1,60.1-21,93.2-32.7C651.8,579,661.3,605.9,672.3,637.1z"/>
</svg>
