<?xml version="1.0" encoding="utf-8"?>
<svg version="1.1" id="snapchat_icon" xmlns="http://www.w3.org/2000/svg" xmlns:xlink="http://www.w3.org/1999/xlink" x="0px" y="0px"
	 viewBox="0 0 1200 1200" style="enable-background:new 0 0 1200 1200;" xml:space="preserve">
<path d="M436.3,620.4c-19.7-9.6-37.6-17.5-54.8-26.8c-14.7-8-32.2-19.6-21.4-37.5c6.4-10.7,25.3-15.7,39.6-19
	c9.5-2.2,20.8,2.9,36.7,5.7c0-28.1,0.1-53,0-78c-0.4-86,50.4-151.8,132.5-171.5c85.3-20.6,177.5,14.9,212.6,85.4
	c10.9,22,14.4,48.7,16.9,73.6c2.8,28.5,0.6,57.6,0.6,89.5c20.4-2.8,36.7-8.2,51.8-6c10.6,1.6,24.9,12.1,27.8,21.6
	c2.4,8-6.7,23.9-15.2,29.9c-17.4,12.4-37.8,20.7-59.5,32C819.6,701,879.7,735,945.5,759.1c2,32.2-19.8,38.7-38.2,42
	c-31.1,5.5-54,18.5-61.9,49.4c-16.2,0-28.9,1.2-41.4-0.2c-32.5-3.8-61.4,3.9-87.5,23.5c-65.4,49.2-130.9,49.7-196-0.3
	c-27.9-21.5-59-27.7-92.9-22.2c-21.5,3.5-37.6,2.7-48.3-22.5c-4.9-11.6-24.9-17.4-38.7-24.4c-18.6-9.5-44.6-8.3-49.9-40.1
	c29.6-17.3,62.1-32.7,90.2-53.9C408.6,689.3,425.9,659,436.3,620.4z"/>
</svg>
