<?xml version="1.0" encoding="utf-8"?>
<!-- Generator: Adobe Illustrator 25.0.0, SVG Export Plug-In . SVG Version: 6.00 Build 0)  -->
<svg version="1.1" id="Ebene_1" xmlns="http://www.w3.org/2000/svg" xmlns:xlink="http://www.w3.org/1999/xlink" x="0px" y="0px"
	 viewBox="0 0 1200 1200" style="enable-background:new 0 0 1200 1200;" xml:space="preserve">
<path d="M508.4,685.2c-3.1,29-6,55.5-8.9,82c-4.3-0.3-8.7-0.5-13-0.8c-19.4-91-3.7-182.6,1.8-274.4c22.6,39.1,9,83,21,131.2
	c3.2-46.2,6-85.1,9.6-136.1c22.4,24.8,17.5,43,18.4,59.1c1,18.1,0.2,36.3,4.9,54.5c4.1-46.2,8.1-92.5,12.2-138.7
	c3.7-0.1,7.4-0.1,11.2-0.2c3.9,14.7,7.9,29.4,11.8,44.1c1.8,0.4,3.6,0.8,5.4,1.2c2.6-21.1,5.2-42.2,8.1-66.4
	c34.2,11.2,20.4,39.7,26.6,55.6c1.2-20.5,2.5-43.9,3.7-65.2c117.4-49.7,210,1.1,258.4,140.4c14.9,0,31.2-1.1,47.2,0.2
	c47.4,3.8,85.2,40.4,91.4,87.3c6.6,50.4-21.3,96.7-69.2,110.9c-17.2,5.1-35.9,7.2-54,7.4c-76.7,0.8-153.6-1.9-230.2,1.7
	c-25.1,1.2-45.4-24.8-71.4-8.8c-0.5,0.3-9.2-12.8-14.3-19.9c-5.7,8.4-10.5,15.4-18.9,27.8c-7.2-20.2-12.4-34.9-19.1-53.7
	c-3,16.3-5.6,30.3-8.9,48.2C515,746.4,515,746.4,508.4,685.2z"/>
<path d="M332.1,710.4c-2.7,17-5.4,34-9.4,58.6c-24-82.4-24-82.4-0.9-172.8c4.4,22.2,7.4,37.6,10.4,52.9c1.9,0.3,3.8,0.7,5.7,1
	c4.5-34,8.9-68,13.4-102c2.4,0,4.7,0,7.1,0c2.4,24.5,4.7,49,7.1,73.4c18.4-33.3,9.3-70.8,25-105.8c4.3,39.4,8.6,78.7,13,118.1
	c2.8,0,5.6,0,8.5,0.1c0-43.6,0-87.1,0-140.5c33.2,57.5,36.1,202.3,6.3,282.8c-3.7-31.3-6-51.3-9.8-83.8c-7.9,31.1-13,51-20.9,82
	c-6.4-26.6-10.5-43.5-14.5-60.4c-2-0.4-4.1-0.9-6.1-1.3c-3.1,17.2-6.2,34.5-11.6,64.5c-7.8-30.9-12.4-49.2-17.1-67.6
	C336.3,710,334.2,710.2,332.1,710.4z"/>
<path d="M455.7,491.5c21.8,45.5,23.2,219,2.3,273.1C439.5,716.9,438.2,562.2,455.7,491.5z"/>
<path d="M291.5,767.5c-27.1-62.5-22.6-111.3-4.3-168.1C304.3,656.7,296.9,706.6,291.5,767.5z"/>
<path d="M261.4,610.8c0,47.1,0,94.3,0,141.4C233.6,705,233.7,657.4,261.4,610.8z"/>
<path d="M228,622.2c0,37.1,0,74.2,0,120.6C198.3,697.6,205.5,660.7,228,622.2z"/>
<path d="M184.9,711.5c0-20.3,0-40.6,0-60.9c2.8,0,5.6,0,8.4-0.1c0,20.3,0,40.6,0,60.9C190.5,711.5,187.7,711.5,184.9,711.5z"/>
</svg>
