<?xml version="1.0" encoding="utf-8"?>
<!-- Generator: Adobe Illustrator 25.0.0, SVG Export Plug-In . SVG Version: 6.00 Build 0)  -->
<svg version="1.1" id="Ebene_1" xmlns="http://www.w3.org/2000/svg" xmlns:xlink="http://www.w3.org/1999/xlink" x="0px" y="0px"
	 viewBox="0 0 1200 1200" style="enable-background:new 0 0 1200 1200;" xml:space="preserve">
<path d="M510.9,351.3c13.2-0.4,26.3-0.4,39.5-0.1c68.5,1.8,137,9.1,203.7,24.7c50.1,11.7,99,28.1,145.8,49.5
	c18.2,8.3,36.6,16.9,53.1,28c26,17.3,33,41.8,21.4,65.8c-12.2,25.3-38.1,33-70.2,20.6c-5.1-2-9.9-4.6-14.8-7
	C711.9,447,526.1,431.5,334.3,467.9c-14.3,2.7-28.4,6.5-42.8,9.2c-37.1,7.1-62.9-5.7-69.5-34.3c-5.2-22.5,3.2-42.7,23.1-54.4
	c12.3-7.2,28-9.4,41.9-12.1c15.4-3,30.9-5.2,46.4-7.3C392.2,361.2,451.6,353,510.9,351.3z"/>
<path d="M503.1,531.8c3.5,0,7.1,0,10.6,0c68.5,0.6,137.5,10.7,203.4,29.4c46.7,13.2,92.1,31.1,135,53.8
	c14.4,7.6,28.8,16.5,40.3,27.7c14.6,14.3,17.5,35,3.2,49.3c-9.9,9.8-28.1,14.7-42.8,15.2c-11.4,0.4-23.4-9-34.8-14.7
	c-149.6-74.8-306-94.4-469.3-57.7c-10.7,2.4-21.4,5.1-32.2,6.9c-32.8,5.4-55.1-6.7-59.9-31.9c-4.1-21.7,9.8-41.1,40.7-49.8
	C364.3,540.8,433.5,532,503.1,531.8z"/>
<path d="M835.9,809c0.1,0.3,0.2,0.5,0.3,0.8c4,10.3-3.2,23.3-10.1,30.8c-7.5,8.1-18.2,12-29,9.5c-8.7-2-16.8-7.1-24.7-11.5
	c-120.9-67.6-250.9-72.3-383.9-55.7c-18.1,2.3-35.9,6.9-54,9.8c-35.2,5.6-53.2-2.7-55-26.4c-2.3-30.3,22.1-35.9,43.1-39.7
	c43.1-7.9,86.6-15.7,130.2-18.4c68-4.2,136.7-1.4,203.2,13.7c59.8,13.6,124.3,36.1,171.3,76.9C830.7,801.7,834,804.9,835.9,809z"/>
</svg>
