<?xml version="1.0" encoding="utf-8"?>
<svg version="1.1" id="steam_icon" xmlns="http://www.w3.org/2000/svg" xmlns:xlink="http://www.w3.org/1999/xlink" x="0px" y="0px"
	 viewBox="0 0 1200 1200" style="enable-background:new 0 0 1200 1200;" xml:space="preserve">
<path d="M933.7,489.7c-17.3-44.3-63-73-112.8-70.7c-55.7,2.6-95.3,40.1-106.9,98.9c-9.7,49.2-13.8,101.1-77.9,117.2
	c-18.6,4.6-34.2,8.5-51.8,2.5c-36.3-12.4-72.3-25.6-108.8-37c-21.7-6.9-37.2-17.6-50.4-37.8c-29.6-45.2-76.2-56.3-118.8-33.4
	c-40.9,22-57.9,69.2-40.6,112.9c16.5,41.7,60.5,65.6,108,50.2c29.2-9.4,53-4.2,78.9,4.6c31.1,10.6,62,21.7,93.4,31.4
	c25.2,7.8,44.5,19.4,57.5,45.1c17,33.6,49.3,47,86.7,47.7c45.8-0.6,91.2-29.5,95.1-74.8c3.8-43.7,30.1-64.1,58.1-86.7
	c16.9-13.6,36.7-23.8,53.9-37.2C938.5,590.4,952.4,538,933.7,489.7z M322.2,655.3c-33.6-25.7-39.7-41.1-27.3-69.3
	c13.4-30.4,29.4-37.2,84.6-31.5C316.5,579.2,300.6,586.2,322.2,655.3z M706.1,784.4c-28.8,17.5-52.9,11.7-81.9-19.8
	c86.4,3.3,95.7-2.9,101.8-67.8C743,739.3,737,765.6,706.1,784.4z M823.8,618.1c-45.6-1.4-83.4-39.1-84.4-84.1
	c-1-45.9,40.4-87.2,87.3-87.1c47.9,0.2,87,39.8,86.4,87.4C912.4,582,872.3,619.6,823.8,618.1z"/>
<path d="M825.2,596c-35-0.6-63-28.3-63.2-62.6c-0.1-36.2,30.9-64.7,68.4-62.7c35.5,1.9,61,29.7,59.6,65.2
	C888.8,570.8,860.9,596.7,825.2,596z"/>
</svg>
