<?xml version="1.0" encoding="utf-8"?>
<svg version="1.1" id="twitter_icon" xmlns="http://www.w3.org/2000/svg" xmlns:xlink="http://www.w3.org/1999/xlink" x="0px" y="0px"
	 viewBox="0 0 1200 1200" style="enable-background:new 0 0 1200 1200;" xml:space="preserve">
<path d="M366.6,804.4c47.5-14,91.7-27.1,136-40.2c0-3.6,0-7.2,0-10.8c-16.3-8.6-34.2-15.2-48.6-26.4c-15.3-11.9-27.3-28.2-43.5-45.6
	c12.2-7.4,20.2-12.3,29.5-17.9c-37-23.7-68.2-50.9-69.7-101.4c10.2-1.5,20.1-2.9,33.1-4.7c-27.4-42.2-57.2-83.7-19-141.2
	c63.8,62.6,135.9,108.8,229.4,113.5c4.4-20.7,6.8-40.4,12.9-58.9c22.1-66,93.6-100.9,154.1-68.2c36,19.5,66,25.4,111.5-2
	c-10.5,22.6-15.9,34.1-22.5,48.2c8.4,3,17.2,6.1,28.1,10.1c-6.3,8-10.7,16.7-17.7,21.7C857,497,851.3,518.8,849,546.3
	c-18.7,227.6-247.7,364.3-456.9,273.9C383.2,816.3,375.2,809.8,366.6,804.4z"/>
</svg>
