<?xml version="1.0" encoding="utf-8"?>
<!-- Generator: Adobe Illustrator 25.0.0, SVG Export Plug-In . SVG Version: 6.00 Build 0)  -->
<svg version="1.1" id="Ebene_1" xmlns="http://www.w3.org/2000/svg" xmlns:xlink="http://www.w3.org/1999/xlink" x="0px" y="0px"
	 viewBox="0 0 1200 1200" style="enable-background:new 0 0 1200 1200;" xml:space="preserve">
<path d="M339.4,535.6c-7.7-11.1-13.7-19.9-19.1-27.6c2.7-5.3,3.5-9.2,5.9-11.3c34.2-30.3,66.9-62.5,103.2-89.9
	c64.9-48.9,113.9-30,131.1,49.3c12,55.3,20.3,111.3,32.8,166.4c5,22,16.9,42.4,25.8,63.6c48.7-21.7,105.9-108.3,102.2-149.6
	c-2-22.5-12.8-38.1-37.8-38.3c-12.3-0.1-24.6,1-37.5,1.6c23.2-87.8,80-131.1,161.6-124.7c41.1,3.2,62.3,21.3,72,62.1
	c9.2,38.7,4.9,76.7-11,112.5c-48.3,108.4-118.1,201.1-208.2,278.2c-11,9.4-23.7,17.2-36.7,23.7c-49.4,24.5-89.4,14-115.4-34.7
	c-15.3-28.6-24.8-60.6-34.4-91.9c-15.5-50.5-27-102.4-43.8-152.5C409.5,512.1,401.3,509.6,339.4,535.6z"/>
</svg>
